<svg xmlns="http://www.w3.org/2000/svg" height="481" viewBox="240 -247 502 481" width="502" pwa-launched="true" pwa-extension-id="8B10C49B-589F-4DBF-8A5C-4462BD70890B" pwa-extension-url-root="safari-extension://8B10C49B-589F-4DBF-8A5C-4462BD70890B/Assets/extension/"><path d="m263.3907 149.674261c-16.541064 16.518759-16.541064 43.407086 0 59.936411 16.529324 16.537542 43.41413 16.537542 59.830754 0l21.947368-21.833494 49.820417 49.808678c8.519412 8.532325 22.173714 8.532325 30.704864 0l20.750793-20.750792 27.364064-27.364065 22.16699-22.166989c8.532324-8.517064 8.532324-22.176061 0-30.707212l-49.809852-49.8075039 82.698703-82.8114025c18.987592 9.8107646 40.630676 15.3494971 63.462979 15.3494971 76.581958 0 138.65732-62.0659702 138.65732-138.6549717 0-76.579609-62.075362-138.657319-138.65732-138.657319-76.586653 0-138.656145 62.07771-138.656145 138.657319 0 22.832304 5.542255 44.4765623 15.351845 63.4641543zm254.073555-269.001132c0-41.324581 33.533244-74.86877 74.841048-74.86877 41.312746 0 74.8394 33.544189 74.8394 74.86877 0 41.3245806-33.526654 74.8638248-74.8394 74.8638248-41.306156 0-74.841048-33.5408922-74.841048-74.8638248z" fill="#63615c" fill-rule="evenodd" transform="matrix(0 1 1 0 497.984902 -497.984902)"/></svg>