  <svg id="graph" xmlns="http://www.w3.org/2000/svg" class='w-full' width='200' height='30' viewbox="0 0 300.0 20">
  <path fill="none" class='stroke-2 stroke-amber-900 dark:stroke-amber-300' d="M 0.49813200498132,19.994092976549116
C 0.58115400581154,18.98792998208203 0.91324200913242,14.963278004213677 0.99626400996264,13.95711500974659
C 1.16230801162308,13.888199736152956 1.4113740141137399,18.64335361411385 1.49439601494396,19.5806013349873
C 1.6604400166044,19.432925748715224 1.90950601909506,14.15598479925965 1.99252801992528,13.071061492114124
C 2.15857202158572,11.724260145312776 2.4076380240763804,11.761671293835036 2.4906600249066,11.49979325417922
C 2.65670402656704,12.653631834918384 2.9057700290577,18.578376356154134 2.98879202988792,19.994092976549116
C 3.15483603154836,20.02461259771201 3.4039020340390196,13.068107980388682 3.4869240348692396,11.682910981156596
C 3.652968036529679,10.667887451513183 3.90203403902034,13.533778329099968 3.98505603985056,13.903951798688642
C 4.1511000415109995,14.762439206883654 4.400166044001659,16.345521491720323 4.48318804483188,16.83383543032666
C 4.64923204649232,16.89192116092701 4.89829804898298,14.68269439029673 4.9813200498132,14.252466182290744
C 5.14736405147364,13.603678106602084 5.396430053964299,13.15966684387737 5.47945205479452,12.941106976194696
C 5.64549605645496,13.21479906275228 5.8945620589456205,15.402366747395986 5.9775840597758405,15.894618701636245
C 6.143628061436281,16.194892393722803 6.392694063926942,14.934727390867742 6.47571606475716,14.74274912871404
C 6.6417600664176,14.35780810049816 6.89082606890826,13.777935298403134 6.97384806973848,13.584972532340954
C 7.139892071398921,13.32900151613602 7.3889580738895795,13.269931281627187 7.4719800747198,13.206923031484434
C 7.63802407638024,14.273140764368833 7.887090078870901,18.853052946620195 7.97011207970112,19.98227892964735
C 8.136156081361559,21.01305452182645 8.385222083852218,19.490026975407094 8.46824408468244,19.39157658455904
C 8.63428808634288,16.81906787169945 8.883354088833538,7.0212849745013495 8.96637608966376,4.547226652489812
C 9.1324200913242,2.4925669954909737 9.381486093814859,6.64421997755331 9.46450809464508,7.063618642566011
C 9.63055209630552,8.952881642940122 9.87961809879618,14.41294031937307 9.9626400996264,15.88280465473448
C 10.12868410128684,17.487546025557723 10.3777501037775,16.557189832043637 10.46077210460772,16.692066867505464
C 10.62681610626816,16.498119597534803 10.875882108758821,15.047945340343 10.95890410958904,14.71912103491051
C 11.12494811124948,15.26945871975112 11.374014113740143,19.114930986276015 11.45703611457036,19.994092976549116
C 11.6230801162308,20.873254966822216 11.87214611872146,19.99409297654912 11.95516811955168,19.994092976549116
C 12.12121212121212,19.994092976549116 12.37027812370278,19.99409297654912 12.453300124533,19.994092976549116
C 12.61934412619344,19.994092976549116 12.868410128684102,19.99409297654912 12.95143212951432,19.994092976549116
C 13.117476131174762,18.629570559395123 13.366542133665419,13.171480890779135 13.44956413449564,11.80695847362514
C 13.615608136156082,11.806958473625139 13.864674138646741,18.629570559395123 13.94769613947696,19.994092976549116
C 14.113740141137399,21.358615393703115 14.362806143628061,19.99409297654912 14.44582814445828,19.994092976549116
C 14.61187214611872,19.145450607438914 14.860938148609378,15.750881130998089 14.943960149439599,14.902238761887885
C 15.110004151100041,14.902238761887885 15.3590701535907,19.14545060743891 15.44209215442092,19.994092976549116
C 15.608136156081358,20.84273534565932 15.85720215857202,19.99409297654912 15.94022415940224,19.994092976549116
C 16.10626816106268,19.994092976549116 16.355334163553337,19.99409297654912 16.43835616438356,19.994092976549116
C 16.604400166043998,19.994092976549116 16.85346616853466,19.99409297654912 16.93648816936488,19.994092976549116
C 17.102532171025317,19.994092976549116 17.351598173515978,19.99409297654912 17.434620174346197,19.994092976549116
C 17.60066417600664,18.939689290566484 17.849730178497296,14.722074546635952 17.93275217932752,13.667670860653319
C 18.098796180987957,11.359009195266509 18.347862183478615,7.396380963632427 18.430884184308837,6.142122984228248
C 18.596928185969276,6.942524661822908 18.84599418845994,16.41542126922244 18.92901618929016,18.470080926221275
C 19.0950601909506,18.982022958631145 19.34412619344126,10.75649280327643 19.427148194271478,9.21377517868746
C 19.593192195931916,9.467777187075432 19.842258198422574,18.197373343572174 19.925280199252796,19.994092976549116
C 20.091324200913235,20.37706499694804 20.3403902034039,12.925354913659007 20.42341220423412,11.511607301080986
C 20.58945620589456,10.314450548368677 20.838522208385218,12.594561600409556 20.921544209215437,12.811152460275268
C 21.087588210875875,14.22490007285329 21.33665421336654,18.796936223836813 21.41967621419676,19.994092976549116
C 21.585720215857197,20.412507137653336 21.834786218347855,16.100380018508673 21.917808219178077,15.321637426900585
C 22.08385222083852,14.50843719849568 22.332918223329177,15.149349242916495 22.4159402241594,15.114891606119677
C 22.581984225819838,15.893634197727765 22.831050228310502,19.18089274814421 22.914072229140718,19.994092976549116
C 23.080116230801156,19.1917222911375 23.329182233291814,11.916238407466478 23.412204234122036,10.30066749364995
C 23.57824823578248,10.300667493649948 23.827314238273136,18.37852206273259 23.91033623910336,19.994092976549116
C 24.076380240763797,21.609663890365642 24.32544624325446,19.99409297654912 24.408468244084677,19.994092976549116
C 24.574512245745115,18.656152164924094 24.823578248235776,13.304388918424005 24.906600249066,11.966448106798985
C 25.072644250726437,10.627522791265484 25.321710253217095,11.961525587256581 25.404732254047317,11.960541083348101
C 25.570776255707756,12.36123417409967 25.81984225819842,13.968929056648355 25.90286425902864,14.370606651308405
C 26.068908260689085,15.709531966841906 26.317974263179735,19.056845255675665 26.400996264009958,19.994092976549116
C 26.567040265670396,20.931340697422566 26.816106268161054,19.99409297654912 26.899128268991277,19.994092976549116
C 27.065172270651715,19.994092976549116 27.31423827314238,19.99409297654912 27.3972602739726,19.994092976549116
C 27.563304275633044,19.67117569456751 27.812370278123694,18.37950656664107 27.895392278953917,18.05658928465946
C 28.06143628061436,17.607655502392344 28.31050228310502,17.426506783231925 28.39352428393524,17.300490282946424
C 28.559568285595677,16.410498749680038 28.808634288086342,13.480615118042019 28.891656288916558,12.716640085061139
C 29.057700290577,12.276566837970348 29.306766293067653,14.33614901451159 29.389788293897876,14.66005080040168
C 29.555832295558318,15.872959615649675 29.80489829804898,19.10508594719121 29.887920298879198,19.994092976549116
C 30.053964300539636,20.88113099809006 30.3030303030303,19.984247937464314 30.386052303860517,19.98227892964735
C 30.55209630552096,17.859688502963355 30.801162308011616,9.379171835312187 30.88418430884184,7.2585504164451535
C 31.05022831050228,5.833973260873846 31.299294312992938,10.73877173292378 31.382316313823157,11.434815996219506
C 31.548360315483595,13.198062496308111 31.79742631797426,16.770827180183904 31.88044831880448,17.838029416976784
C 32.046492320464914,19.264575580365054 32.29555832295558,19.63474904995373 32.3785803237858,19.994092976549116
C 32.54462432544624,19.57666331935338 32.79369032793689,16.11022505759348 32.87671232876712,15.33345147380235
C 33.04275633042756,15.33345147380235 33.29182233291822,19.21731939275799 33.37484433374844,19.994092976549116
C 33.54088833540888,20.77086656034024 33.78995433789955,19.99409297654912 33.872976338729764,19.994092976549116
C 34.0390203403902,19.92320869513852 34.28808634288085,19.63967156949613 34.37110834371108,19.56878728808553
C 34.53715234537152,18.91999921239687 34.78621834786218,16.679268316695214 34.8692403486924,16.101364522417153
C 35.03528435035284,15.083387481048298 35.28435035284351,13.900998286963201 35.36737235367372,13.460925039872409
C 35.53341635533416,12.995254691161124 35.78248235782481,13.332939531769943 35.86550435865504,13.307342430149449
C 36.031548360315476,13.303404414515526 36.28061436280614,13.415637860082304 36.36363636363636,13.437296946068876
C 36.5296803652968,13.651918798117629 36.77874636778747,14.402110776379784 36.86176836861768,14.595073542441964
C 37.02781237027812,15.687872880855336 37.276878372768785,19.094256404197925 37.359900373599004,19.994092976549116
C 37.52594437525945,19.68003622974383 37.7750103777501,13.92462638076673 37.85803237858032,12.710733061610254
C 38.02407638024076,11.627778762281686 38.27314238273143,13.3654281607498 38.35616438356164,13.496367180577709
C 38.52220838522208,12.863331167424738 38.771274387712744,9.676492015673302 38.85429638854296,8.912516982692422
C 39.02034039020341,9.349636718057772 39.26940639269406,14.91799082442357 39.35242839352428,16.119085592769803
C 39.518472395184716,17.14100064977258 39.76753839767539,15.223187036052535 39.8505603985056,15.04400732470908
C 40.01660440016604,13.287652351979839 40.2656704026567,7.15813101778014 40.34869240348692,5.580955756394353
C 40.51473640514737,5.601630338472444 40.763802407638025,13.570204973713748 40.846824408468244,15.168054817177625
C 41.01286841012868,15.502786146060998 41.26193441261935,8.852462244275111 41.34495641344956,7.589343729694608
C 41.51100041511,7.161084529505583 41.76006641760066,11.763640301651998 41.84308841843088,12.598499616043476
C 42.009132420091326,13.395947781912696 42.258198422581984,12.411443873432178 42.3412204234122,12.374032724909918
C 42.50726442507264,12.209620572193673 42.756330427563306,11.739027703939987 42.83935242839352,11.612026699745998
C 43.00539643005396,11.649437848268258 43.25446243254462,12.43408746332723 43.33748443337484,12.598499616043476
C 43.503528435035285,12.828873530627916 43.75259443752594,12.92830842538445 43.83561643835616,12.994270187252644
C 44.0016604400166,13.991572646543405 44.25072644250727,17.650973674365485 44.333748443337484,18.582314371788055
C 44.49979244499792,19.320692303148444 44.74885844748858,17.617500541477153 44.8318804483188,17.42453777541497
C 44.997924449979244,17.06716285663654 45.2469904524699,16.602477011833734 45.33001245330012,16.43806485911749
C 45.49605645496056,16.140744678756374 45.74512245745123,15.77352472089314 45.82814445828144,15.640616693248273
C 45.99418845994188,14.890424714986118 46.24325446243254,12.554196940161853 46.32627646326276,11.936912989544568
C 46.4923204649232,12.334652568570696 46.74138646741386,17.012030637761633 46.82440846824408,18.027054167405044
C 46.99045246990452,18.37261503928171 47.23951847239519,14.679740878571288 47.3225404732254,14.010278220804537
C 47.48858447488585,12.992301179435684 47.7376504773765,12.267706302794025 47.820672478206724,11.91919191919192
C 47.98671647986717,12.057022466379195 48.23578248235782,14.350916573138795 48.31880448318804,14.83726150392817
C 48.48484848484848,15.29210230964617 48.73391448733915,14.679740878571288 48.81693648816936,14.648236753499912
C 48.98298048982981,15.507708665603401 49.23204649232046,19.10311693937425 49.31506849315068,19.994092976549116
C 49.48111249481113,20.88506901372398 49.73017849730178,19.99409297654912 49.813200498132,19.994092976549116
C 49.979244499792436,19.994092976549116 50.22831050228311,19.99409297654912 50.31133250311332,19.994092976549116
C 50.477376504773765,19.994092976549116 50.726442507264416,19.99409297654912 50.80946450809464,19.994092976549116
C 50.97550850975509,19.994092976549116 51.224574512245745,19.99409297654912 51.307596513075964,19.994092976549116
C 51.473640514736395,19.994092976549116 51.72270651722707,19.99409297654912 51.80572851805728,19.994092976549116
C 51.971772519717724,19.63081103431981 52.220838522208375,18.17768326540256 52.3038605230386,17.814401323173254
C 52.46990452469905,17.814401323173254 52.718970527189704,19.63081103431981 52.80199252801992,19.994092976549116
C 52.968036529680354,20.357374918778426 53.217102532171026,19.99409297654912 53.30012453300124,19.994092976549116
C 53.46616853466168,19.994092976549116 53.715234537152334,19.99409297654912 53.79825653798256,19.994092976549116
C 53.964300539643006,19.65739263984878 54.21336654213366,18.310591293047434 54.29638854296388,17.973890956347095
C 54.46243254462431,17.973890956347095 54.711498547114985,19.657392639848783 54.7945205479452,19.994092976549116
C 54.96056454960564,19.991139464823675 55.20963055209629,18.295823734420225 55.29265255292652,17.956169885994445
C 55.458696554586965,17.531848701439344 55.70776255707762,17.532833205347824 55.79078455790784,17.4481658692185
C 55.95682855956827,17.164628743576113 56.205894562058944,16.453816921653175 56.28891656288916,16.254947132140114
C 56.4549605645496,16.34059897217792 56.70402656704025,17.67755527989446 56.78704856787048,17.96207690944533
C 56.953092569530924,18.585267883513495 57.20215857202158,19.65542363203182 57.2851805728518,19.994092976549116
C 57.45122457451223,20.332762321066415 57.7002905770029,19.99409297654912 57.78331257783312,19.994092976549116
C 57.94935657949356,19.48707346368165 58.19842258198421,17.458995412211785 58.28144458281444,16.95197589934432
C 58.44748858447488,16.841711461594503 58.69655458696554,18.93575127493256 58.77957658779576,19.33250635005021
C 58.94562058945619,19.839525862917675 59.19468659194686,19.8838285387993 59.27770859277708,19.994092976549116
C 59.44375259443752,19.157264654340675 59.69281859692817,15.25862917675783 59.7758405977584,14.311536416799575
C 59.94188459941884,14.103806092110185 60.1909506019095,18.00834859314391 60.27397260273972,18.74771102841278
C 60.44001660440015,19.694803788371036 60.68908260689082,19.786362651859726 60.77210460772104,19.994092976549116
C 60.93814860938148,20.201823301238505 61.18721461187213,19.99409297654912 61.27023661270236,19.994092976549116
C 61.4362806143628,19.994092976549116 61.68534661685346,19.99409297654912 61.76836861768368,19.994092976549116
C 61.93441261934411,19.89662708960955 62.18347862183478,19.50676354185126 62.266500622665,19.40929765491169
C 62.43254462432544,18.905231653769665 62.68161062681609,17.37629708389942 62.76463262764632,16.96969696969697
C 62.93067662930676,16.164372772559908 63.17974263179743,14.976076555023923 63.26276463262764,14.577352472089315
C 63.42880863428808,15.081418473231338 63.67787463677874,19.09130289247248 63.76089663760896,19.994092976549116
C 63.9269406392694,20.89688306062575 64.17600664176005,19.99409297654912 64.25902864259028,19.994092976549116
C 64.42507264425072,19.994092976549116 64.67413864674138,19.99409297654912 64.7571606475716,19.994092976549116
C 64.92320464923203,19.994092976549116 65.1722706517227,19.99409297654912 65.25529265255291,19.994092976549116
C 65.42133665421336,19.994092976549116 65.67040265670401,19.99409297654912 65.75342465753424,19.994092976549116
C 65.91946865919468,19.994092976549116 66.16853466168534,19.99409297654912 66.25155666251555,19.994092976549116
C 66.41760066417599,19.994092976549116 66.66666666666666,19.99409297654912 66.74968866749687,19.994092976549116
C 66.91573266915732,19.994092976549116 67.16479867164797,19.99409297654912 67.2478206724782,19.994092976549116
C 67.41386467413864,19.994092976549116 67.6629306766293,19.99409297654912 67.74595267745951,19.994092976549116
C 67.91199667911995,19.994092976549116 68.16106268161062,19.99409297654912 68.24408468244083,19.994092976549116
C 68.41012868410128,19.994092976549116 68.65919468659193,19.99409297654912 68.74221668742216,19.994092976549116
C 68.9082606890826,19.994092976549116 69.15732669157326,19.99409297654912 69.24034869240347,19.994092976549116
C 69.40639269406391,19.994092976549116 69.65545869655458,19.99409297654912 69.73848069738479,19.994092976549116
C 69.90452469904524,19.994092976549116 70.15359070153589,19.99409297654912 70.23661270236612,19.994092976549116
C 70.40265670402655,19.994092976549116 70.65172270651722,19.99409297654912 70.73474470734743,19.994092976549116
C 70.90078870900787,19.994092976549116 71.14985471149853,19.99409297654912 71.23287671232875,19.994092976549116
C 71.3989207139892,19.994092976549116 71.64798671647985,19.99409297654912 71.73100871731008,19.994092976549116
C 71.89705271897051,19.994092976549116 72.14611872146118,19.99409297654912 72.22914072229139,19.994092976549116
C 72.39518472395183,19.994092976549116 72.64425072644251,19.99409297654912 72.72727272727272,19.994092976549116
C 72.89331672893316,19.994092976549116 73.14238273142381,19.99409297654912 73.22540473225403,19.994092976549116
C 73.39144873391446,19.994092976549116 73.64051473640512,19.99409297654912 73.72353673723535,19.994092976549116
C 73.88958073889579,19.994092976549116 74.13864674138647,19.99409297654912 74.22166874221668,19.994092976549116
C 74.38771274387712,19.994092976549116 74.63677874636777,19.99409297654912 74.719800747198,19.994092976549116
C 74.88584474885842,19.994092976549116 75.13491075134908,19.99409297654912 75.21793275217931,19.994092976549116
C 75.38397675383975,19.994092976549116 75.63304275633043,19.99409297654912 75.71606475716064,19.994092976549116
C 75.88210875882108,19.994092976549116 76.13117476131173,19.99409297654912 76.21419676214195,19.994092976549116
C 76.38024076380238,19.994092976549116 76.62930676629304,19.99409297654912 76.71232876712327,19.994092976549116
C 76.8783727687837,19.994092976549116 77.12743877127438,19.99409297654912 77.2104607721046,19.994092976549116
C 77.37650477376503,19.994092976549116 77.62557077625569,19.99409297654912 77.70859277708591,19.994092976549116
C 77.87463677874634,19.994092976549116 78.123702781237,19.99409297654912 78.20672478206723,19.994092976549116
C 78.37276878372766,19.994092976549116 78.62183478621834,19.99409297654912 78.70485678704856,19.994092976549116
C 78.870900788709,19.994092976549116 79.11996679119964,19.99409297654912 79.20298879202987,19.994092976549116
C 79.3690327936903,19.994092976549116 79.61809879618097,19.99409297654912 79.7011207970112,19.994092976549116
C 79.86716479867164,19.994092976549116 80.1162308011623,19.99409297654912 80.19925280199251,19.994092976549116
C 80.36529680365295,19.994092976549116 80.6143628061436,19.99409297654912 80.69738480697383,19.994092976549116
C 80.86342880863425,19.994092976549116 81.11249481112493,19.99409297654912 81.19551681195516,19.994092976549116
C 81.3615608136156,19.994092976549116 81.61062681610626,19.99409297654912 81.69364881693647,19.994092976549116
C 81.85969281859691,19.994092976549116 82.10875882108756,19.99409297654912 82.19178082191779,19.994092976549116
C 82.35782482357821,19.994092976549116 82.60689082606889,19.99409297654912 82.68991282689912,19.994092976549116
C 82.85595682855956,19.994092976549116 83.10502283105022,19.99409297654912 83.18804483188043,19.994092976549116
C 83.35408883354087,19.994092976549116 83.60315483603152,19.99409297654912 83.68617683686175,19.994092976549116
C 83.85222083852217,19.994092976549116 84.10128684101285,19.99409297654912 84.18430884184308,19.994092976549116
C 84.35035284350352,19.994092976549116 84.59941884599418,19.99409297654912 84.68244084682439,19.994092976549116
C 84.84848484848483,19.994092976549116 85.09755085097548,19.99409297654912 85.1805728518057,19.994092976549116
C 85.34661685346613,19.994092976549116 85.59568285595681,19.99409297654912 85.67870485678704,19.994092976549116
C 85.84474885844747,19.994092976549116 86.09381486093811,19.99409297654912 86.17683686176835,19.994092976549116
C 86.34288086342877,19.994092976549116 86.59194686591945,19.99409297654912 86.67496886674967,19.994092976549116
C 86.84101286841009,18.8934176068679 87.09007887090077,14.49071612814303 87.173100871731,13.390040758461812
C 87.33914487339143,13.390040758461813 87.58821087588207,18.893417606867903 87.67123287671231,19.994092976549116
C 87.83727687837275,21.094768346230335 88.08634288086341,19.99409297654912 88.16936488169364,19.994092976549116
C 88.33540888335408,19.994092976549116 88.58447488584476,19.99409297654912 88.66749688667495,19.994092976549116
C 88.83354088833539,19.994092976549116 89.08260689082603,19.99409297654912 89.16562889165627,19.994092976549116
C 89.3316728933167,19.994092976549116 89.58073889580737,19.99409297654912 89.6637608966376,19.994092976549116
C 89.82980489829804,19.259653060822654 90.07887090078871,16.32189339791679 90.16189290161891,15.587453482190325
C 90.32793690327935,14.771299742059975 90.57700290576999,15.178884360170912 90.66002490660023,15.097170535767027
C 90.82606890826067,14.24360564711442 91.07513491075133,11.237915214523404 91.15815691158156,10.466064150274677
C 91.324200913242,11.282217890405027 91.57326691573267,18.406088172170048 91.65628891656287,19.994092976549116
C 91.82233291822331,20.606454407623996 92.07139892071395,15.115876110028156 92.15442092154419,14.140232736723965
C 92.32046492320463,14.140232736723965 92.56953092569529,19.018449603244925 92.65255292652552,19.994092976549116
C 92.81859692818595,20.96973634985331 93.06766293067663,19.99409297654912 93.15068493150683,19.994092976549116
C 93.31672893316727,19.994092976549116 93.5657949356579,19.99409297654912 93.64881693648815,19.994092976549116
C 93.81486093814858,19.994092976549116 94.06392694063925,19.99409297654912 94.14694894146947,19.994092976549116
C 94.31299294312991,19.994092976549116 94.56205894562059,19.99409297654912 94.64508094645079,19.994092976549116
C 94.81112494811123,19.994092976549116 95.06019095060189,19.99409297654912 95.14321295143212,19.994092976549116
C 95.30925695309254,19.994092976549116 95.55832295558321,19.99409297654912 95.64134495641343,19.994092976549116
C 95.80738895807387,19.994092976549116 96.05645496056455,19.99409297654912 96.13947696139475,19.994092976549116
C 96.30552096305519,19.994092976549116 96.55458696554585,19.99409297654912 96.63760896637608,19.994092976549116
C 96.8036529680365,19.994092976549116 97.05271897052717,19.99409297654912 97.1357409713574,19.994092976549116
C 97.30178497301783,19.994092976549116 97.55085097550851,19.99409297654912 97.63387297633871,19.994092976549116
C 97.79991697799915,19.994092976549116 98.04898298048981,19.99409297654912 98.13200498132004,19.994092976549116
C 98.29804898298046,19.279343138992264 98.54711498547113,16.42034378876484 98.63013698630135,15.705593951207986
C 98.79618098796179,15.052867859885403 99.04524699045247,16.01571268237935 99.12826899128267,16.07773642861362
C 99.2943129929431,16.792486266170474 99.54337899543377,19.34136688522653 99.626400996264,19.994092976549116
C 99.79244499792442,20.6468190678717 100.04151100041508,19.99409297654912 100.12453300124531,19.994092976549116
C 100.29057700290575,19.994092976549116 100.53964300539643,19.99409297654912 100.62266500622663,19.994092976549116
C 100.78870900788706,19.994092976549116 101.03777501037773,19.99409297654912 101.12079701120796,19.994092976549116
C 101.28684101286838,19.994092976549116 101.53590701535904,19.99409297654912 101.61892901618927,19.994092976549116
C 101.78497301784971,19.994092976549116 102.03403902034039,19.99409297654912 102.1170610211706,19.994092976549116
C 102.28310502283104,19.994092976549116 102.53217102532169,19.99409297654912 102.61519302615191,19.994092976549116
C 102.78123702781234,19.994092976549116 103.030303030303,19.99409297654912 103.11332503113323,19.994092976549116
C 103.27936903279367,19.994092976549116 103.52843503528435,19.99409297654912 103.61145703611456,19.994092976549116
C 103.77750103777502,18.87668104042373 104.02656704026565,14.407033295922185 104.10958904109587,13.289621359796799
C 104.2756330427563,12.24309370508201 104.52469904524696,13.644042766849786 104.60772104607719,13.714927048260382
C 104.77376504773763,14.83233898438577 105.0228310502283,18.94756532183433 105.10585305105852,19.994092976549116
C 105.27189705271898,21.040620631263906 105.5209630552096,19.99409297654912 105.60398505603983,19.994092976549116
C 105.77002905770026,19.994092976549116 106.01909506019092,19.99409297654912 106.10211706102115,19.994092976549116
C 106.26816106268159,19.994092976549116 106.51722706517226,19.99409297654912 106.60024906600248,19.994092976549116
C 106.76629306766294,19.994092976549116 107.01535907015356,19.99409297654912 107.09838107098379,19.994092976549116
C 107.26442507264422,19.994092976549116 107.51349107513488,19.99409297654912 107.5965130759651,19.994092976549116
C 107.76255707762554,19.033217161872134 108.01162308011622,15.189713903164197 108.09464508094644,14.228838088487212
C 108.2606890826069,14.228838088487214 108.50975508509752,19.033217161872134 108.59277708592775,19.994092976549116
C 108.75882108758817,20.9549687912261 109.00788709007884,19.99409297654912 109.09090909090907,19.994092976549116
C 109.2569530925695,19.994092976549116 109.50601909506018,19.99409297654912 109.5890410958904,19.994092976549116
C 109.75508509755086,19.994092976549116 110.00415110004148,19.99409297654912 110.08717310087171,19.994092976549116
C 110.25321710253216,19.994092976549116 110.50228310502281,19.99409297654912 110.58530510585304,19.994092976549116
C 110.75134910751348,19.994092976549116 111.00041511000416,19.99409297654912 111.08343711083435,19.994092976549116
C 111.24948111249479,19.994092976549116 111.49854711498544,19.99409297654912 111.58156911581567,19.994092976549116
C 111.74761311747612,19.994092976549116 111.99667911996677,19.99409297654912 112.079701120797,19.994092976549116
C 112.24574512245744,19.992123968732155 112.49481112494811,19.984247937464314 112.57783312577831,19.98227892964735
C 112.74387712743875,19.98227892964735 112.9929431299294,19.992123968732155 113.07596513075963,19.994092976549116
C 113.24200913242008,19.996061984366076 113.49107513491073,19.99409297654912 113.57409713574096,19.994092976549116
C 113.7401411374014,19.946836788942054 113.98920713989207,19.75781203851379 114.07222914072227,19.710555850906726
C 114.23827314238271,19.710555850906726 114.48733914487336,19.946836788942054 114.57036114570359,19.994092976549116
C 114.73640514736404,20.04134916415618 114.98547114985469,19.99409297654912 115.06849315068492,19.994092976549116
C 115.23453715234535,19.994092976549116 115.48360315483603,19.99409297654912 115.56662515566623,19.994092976549116
C 115.73266915732667,19.992123968732155 115.98173515981732,19.984247937464314 116.06475716064755,19.98227892964735
C 116.230801162308,19.98227892964735 116.47986716479865,19.992123968732155 116.56288916562887,19.994092976549116
C 116.72893316728931,19.996061984366076 116.97799916977999,19.99409297654912 117.06102117061019,19.994092976549116
C 117.22706517227063,19.99310847264064 117.47613117476129,19.98917045700671 117.55915317559152,19.98818595309823
C 117.72519717725197,19.98818595309823 117.97426317974261,19.993108472640635 118.05728518057283,19.994092976549116
C 118.22332918223327,19.94191426939965 118.47239518472395,19.72827692125938 118.55541718555415,19.67511371020143
C 118.72146118721459,19.67511371020143 118.97052718970525,19.94092976549117 119.05354919053548,19.994092976549116
C 119.21959319219593,20.047256187607065 119.46865919468657,19.99409297654912 119.55168119551679,19.994092976549116
C 119.71772519717723,19.852324413727924 119.96679119966791,19.285250162443145 120.04981320049811,19.14348159962195
C 120.21585720215855,19.14348159962195 120.46492320464921,19.852324413727924 120.54794520547944,19.994092976549116
C 120.71398920713989,20.069899777502116 120.96305520963053,19.664284167208145 121.04607721046075,19.598322405339946
C 121.21212121212119,19.458522850335715 121.46118721461187,19.22913343965976 121.54420921544207,19.155295646523715
C 121.7102532171025,19.22125740839191 121.95931921959317,19.854293421544885 122.0423412204234,19.994092976549116
C 122.20838522208385,20.13389253155335 122.45745122457448,19.99409297654912 122.54047322540471,19.994092976549116
C 122.70651722706515,19.994092976549116 122.95558322955583,19.99409297654912 123.03860523038603,19.994092976549116
C 123.20464923204646,19.994092976549116 123.45371523453713,19.99409297654912 123.53673723536735,19.994092976549116
C 123.7027812370278,19.994092976549116 123.95184723951844,19.99409297654912 124.03486924034867,19.994092976549116
C 124.20091324200911,19.994092976549116 124.44997924449979,19.99409297654912 124.53300124533,19.994092976549116
C 124.69904524699042,19.225195424025834 124.94811124948109,16.1496052139327 125.03113325031131,15.380707661409415
C 125.19717725197177,14.732904089629235 125.4462432544624,15.986177565124933 125.52926525529263,16.107271545868034
C 125.69530925695307,16.13089963967157 125.94437525944375,15.61994211117018 126.02739726027396,15.52247622423061
C 126.19344126193438,14.936696398684704 126.44250726442505,13.080906531198929 126.52552926525527,12.592592592592593
C 126.69157326691573,12.244078208990489 126.94063926940636,13.29159036761376 127.02366127023659,13.431389922617994
C 127.18970527189703,13.983696615275562 127.4387712743877,15.493925610884679 127.52179327521792,15.906432748538013
C 127.68783727687834,17.000216590859868 127.936903279369,19.3128162718806 128.01992528019923,19.994092976549116
C 128.18596928185968,20.029535117254415 128.43503528435033,16.76492015673302 128.51805728518056,16.119085592769803
C 128.684101286841,15.539212790674776 128.93316728933166,16.448894402110778 129.0161892901619,16.51485616397897
C 129.1822332918223,15.932029850158502 129.43129929431302,13.270915785535669 129.51432129514322,12.622127709847009
C 129.68036529680367,12.051115442928308 129.9294312992943,13.011006753696812 130.01245330012452,13.088782562466774
C 130.17849730178497,13.662748341110914 130.42756330427562,15.569732411837672 130.51058530510585,16.065922381711854
C 130.67662930676627,15.994053596392774 130.92569530925698,13.225628605745568 131.00871731008718,12.657569850552308
C 131.17476131174763,11.649437848268258 131.42382731423825,10.457203615098353 131.50684931506848,10.017130368007562
C 131.67289331672893,10.14708488392699 131.92195931921958,12.867269183058658 132.0049813200498,13.437296946068876
C 132.17102532171023,13.810423927382994 132.42009132420094,12.452793037588359 132.50311332503114,12.255892255892256
C 132.6691573266916,12.573887018331462 132.9182233291822,14.830369976568809 133.00124533001244,15.345265520704118
C 133.1672893316729,15.274381239293518 133.41635533416354,12.416366392974581 133.49937733499377,11.830586567428673
C 133.6654213366542,11.404296375056608 133.9144873391449,12.62803473329789 133.9975093399751,12.787524366471734
C 134.16355334163555,13.169511882962174 134.41261934412617,13.900013783054717 134.4956413449564,14.122511666371315
C 134.66168534661685,14.10971311556107 134.9107513491075,12.946029495737095 134.99377334993773,12.710733061610254
C 135.15981735159815,13.072045996022602 135.40888335408886,15.693779904306218 135.49190535491906,16.290389272845413
C 135.6579493565795,16.879122610116763 135.90701535907013,16.251009116506193 135.99003735990036,16.243133085238348
C 136.1560813615608,15.79026128733731 136.40514736405146,14.018154252072383 136.48816936488168,13.573158485439189
C 136.6542133665421,13.549530391635656 136.90327936903282,15.679996849587491 136.986301369863,16.101364522417153
C 137.15234537152347,16.282513241577565 137.4014113740141,14.900269754070926 137.48443337484431,14.66005080040168
C 137.65047737650477,14.410971311556109 137.89954337899542,14.615748124520055 137.98256537982564,14.60688758934373
C 138.14860938148607,14.504499182861757 138.39767538397678,14.139248232815483 138.48069738480697,14.045720361509835
C 138.64674138646743,13.802547896115145 138.89580738895805,13.297497391064644 138.97882938978827,13.147852796975604
C 139.14487339144873,13.150806308701045 139.39393939393938,13.910843326048003 139.4769613947696,14.063441431862485
C 139.64300539643003,15.03022426999035 139.89207139892073,18.13436509342942 139.97509339975093,18.948549825742806
C 140.14113740141138,19.061767775218065 140.390203403902,15.443715911552168 140.47322540473223,14.74274912871404
C 140.63926940639269,13.974836080099239 140.88833540888334,14.408017799830665 140.97135740971356,14.34107153405399
C 141.137401411374,14.768346230334535 141.3864674138647,16.812176344340088 141.4694894146949,17.306397306397304
C 141.63553341635534,18.24856754681316 141.88459941884597,19.546143698190484 141.9676214196762,19.994092976549116
C 142.13366542133664,20.44204225490775 142.3827314238273,19.99409297654912 142.46575342465752,19.994092976549116
C 142.63179742631795,19.994092976549116 142.88086342880865,19.99409297654912 142.96388542963885,19.994092976549116
C 143.1299294312993,19.421111701813455 143.37899543378995,17.129186602870814 143.46201743462018,16.556205328135153
C 143.62806143628063,16.556205328135153 143.87712743877125,19.421111701813455 143.96014943960148,19.994092976549116
C 144.1261934412619,20.567074251284776 144.3752594437526,19.99409297654912 144.4582814445828,19.994092976549116
C 144.62432544624326,19.532360643471755 144.8733914487339,17.685431311162308 144.95641344956414,17.223698978084943
C 145.1224574512246,16.637919152539038 145.3715234537152,16.603461515742215 145.45454545454544,16.479414023273673
C 145.62058945620586,16.941146356351034 145.86965545869657,19.40831315100321 145.95267745952677,19.994092976549116
C 146.11872146118722,20.57987280209502 146.36778746367787,19.99409297654912 146.4508094645081,19.994092976549116
C 146.61685346616855,19.994092976549116 146.86591946865917,19.99409297654912 146.9489414694894,19.994092976549116
C 147.11498547114982,18.937720282749524 147.36405147364053,14.712229507551143 147.44707347447073,13.655856813751551
C 147.61311747613118,12.62606572548093 147.86218347862183,13.788764841396421 147.94520547945206,13.815346446925394
C 148.1112494811125,14.870734636816508 148.36031548360313,18.959379368736094 148.44333748443336,19.98818595309823
C 148.60938148609378,19.96849587492862 148.8584474885845,14.745702640439482 148.9414694894147,13.697205977907734
C 149.10751349107514,12.878098726051944 149.3565794935658,14.844153031287533 149.43960149439602,15.073542441963495
C 149.60564549605647,15.185775887530275 149.8547114985471,14.487762616417585 149.93773349937732,14.370606651308405
C 150.10377750103774,14.521235749305923 150.35284350352845,15.70953196684191 150.43586550435865,15.97731702994861
C 150.6019095060191,16.914564750822063 150.85097550850975,19.324630318782365 150.93399750933997,19.994092976549116
C 151.10004151100043,19.2370094709276 151.34910751349105,12.861362159607774 151.43212951432128,11.434815996219506
C 151.5981735159817,11.434815996219506 151.8472395184724,18.56754681316085 151.9302615193026,19.994092976549116
C 152.09630552096306,21.42063913993739 152.3453715234537,19.99409297654912 152.42839352428393,19.994092976549116
C 152.5944375259444,19.994092976549116 152.843503528435,19.99409297654912 152.92652552926523,19.994092976549116
C 153.09256953092566,19.994092976549116 153.34163553341637,19.99409297654912 153.42465753424656,19.994092976549116
C 153.59070153590702,19.994092976549116 153.83976753839767,19.99409297654912 153.9227895392279,19.994092976549116
C 154.08883354088834,19.994092976549116 154.33789954337897,19.99409297654912 154.4209215442092,19.994092976549116
C 154.58696554586962,19.994092976549116 154.83603154836032,19.99409297654912 154.91905354919052,19.994092976549116
C 155.08509755085097,19.994092976549116 155.33416355334163,19.99409297654912 155.41718555417185,19.994092976549116
C 155.5832295558323,19.994092976549116 155.83229555832293,19.99409297654912 155.91531755915315,19.994092976549116
C 156.08136156081358,19.23405595920216 156.33042756330428,16.193907889814323 156.41344956413448,15.433870872467365
C 156.57949356579493,14.437552917085084 156.82855956828558,14.252466182290744 156.9115815691158,14.01618524425542
C 157.07762557077626,13.76907476322681 157.32669157326688,13.962037529288992 157.4097135740971,13.951207986295705
C 157.57575757575754,14.216039537676963 157.82482357824824,15.329513458168428 157.90784557907844,15.605174552542975
C 158.0738895807389,15.55791836493591 158.32295558322954,13.990588142634929 158.40597758405977,13.667670860653319
C 158.57202158572022,12.551243428436413 158.82108758821087,9.700120109476837 158.9041095890411,8.906609959241539
C 159.07015359070152,8.776655443322111 159.3192195931922,12.224388130820879 159.4022415940224,12.887943765136749
C 159.56828559568285,13.05826294130388 159.8173515981735,10.421761474393055 159.90037359900373,9.928525016244315
C 160.06641760066418,9.662708960954575 160.31548360315483,11.06562703053931 160.39850560398506,11.29304743339831
C 160.56454960564548,12.910587355031799 160.81361560813616,18.243645027270755 160.89663760896636,19.633764546045246
C 161.0626816106268,21.083938803237046 161.31174761311746,19.93403823813181 161.3947696139477,19.994092976549116
C 161.56081361560814,19.066690294760473 161.8098796180988,15.056805875519325 161.89290161892902,14.069348455313369
C 162.05894562058944,12.830842538444882 162.30801162308012,12.81410597200071 162.39103362391032,12.563057475338178
C 162.55707762557077,13.550514895544138 162.80614362806142,18.75558705968063 162.88916562889165,19.994092976549116
C 163.0552096305521,21.16565262764093 163.30427563304275,19.65936164766574 163.38729763387298,19.592415381889065
C 163.5533416355334,17.424537775414965 163.80240763802408,9.087758678401952 163.88542963885428,6.986827337704531
C 164.05147364051473,5.9964164057731315 164.30053964300538,12.539429381534646 164.3835616438356,13.649949790300669
C 164.54960564549606,12.787524366471738 164.7986716479867,3.785220627325892 164.88169364881693,1.812274794730937
C 165.04773765047736,1.4883730088408467 165.29680365296804,10.057495028255264 165.37982565379824,11.706539074960128
C 165.5458696554587,14.736842105263158 165.79493565794934,18.61283399295095 165.87795765877956,19.994092976549116
C 166.04400166044002,21.37535196014728 166.29306766293067,19.99409297654912 166.3760896637609,19.994092976549116
C 166.54213366542132,19.14249709571347 166.791199667912,15.736113572370881 166.8742216687422,14.884517691535235
C 167.04026567040265,13.755291708508082 167.2893316728933,13.496367180577709 167.37235367372352,13.218737078386201
C 167.53839767538398,13.06318546084628 167.78746367787463,13.82912950164412 167.87048567870485,13.951207986295705
C 168.03652968036528,13.981727607458602 168.28559568285596,13.493413668852265 168.36861768368615,13.401854805363579
C 168.5346616853466,13.862602634532463 168.78372768783726,16.163388268651424 168.86674968866748,16.715694961308994
C 169.03279369032794,17.811447811447806 169.28185969281859,19.432925748715224 169.3648816936488,19.976371906196466
C 169.53092569530924,19.133636560537145 169.77999169779991,13.04546439049363 169.8630136986301,11.659282887353063
C 170.02905770029056,10.35481520861638 170.27812370278122,12.067852009372475 170.36114570361144,12.14956583377636
C 170.5271897052719,12.43704097505267 170.77625570776254,13.178372418138501 170.85927770859277,13.384133735010929
C 171.02532171025322,13.424498395258631 171.27438771274387,12.557150451887296 171.35740971357407,12.391753795262568
C 171.52345371523452,12.630988245023334 171.7725197177252,14.41490932719003 171.8555417185554,14.819540433575522
C 172.02158572021585,15.52346072813909 172.2706517227065,16.315986374465904 172.35367372353673,16.615275562643983
C 172.51971772519718,16.54931380077579 172.76878372768783,14.789020812412625 172.85180572851803,14.423769862366354
C 173.01784973017848,13.82420698210172 173.26691573266916,13.252210211274539 173.34993773349936,13.017898281056176
C 173.5159817351598,13.583003524523994 173.76504773765046,17.014984149487073 173.8480697384807,17.814401323173254
C 174.01411374014114,17.18136531002028 174.26317974263182,10.652135388977493 174.34620174346202,9.219682202138342
C 174.51224574512244,9.58296414436765 174.76131174761312,18.198357847480654 174.84433374844332,19.994092976549116
C 175.01037775010377,21.789828105617577 175.25944375259442,19.99409297654912 175.34246575342465,19.994092976549116
C 175.5085097550851,19.21141236930711 175.75757575757578,16.08068994033906 175.84059775840598,15.298009333097053
C 176.0066417600664,13.78679583357946 176.25570776255708,11.655344871719143 176.33872976338728,10.926811979443558
C 176.50477376504773,9.891113867722055 176.75383976753838,9.390985882213952 176.8368617683686,9.083820662768032
C 177.00290577002906,9.947230590505443 177.25197177251974,14.936696398684703 177.33499377334994,16.107271545868034
C 177.50103777501036,17.460964420028745 177.75010377750104,17.02286018075492 177.83312577833124,17.205977907732294
C 177.9991697799917,16.841711461594503 178.24823578248234,14.469057042156457 178.33125778331257,13.92167286904129
C 178.49730178497302,13.455018016421526 178.7463677874637,14.3253194715183 178.8293897882939,14.406048792013705
C 178.99543378995432,14.30267588162325 179.244499792445,13.485537637584422 179.3275217932752,13.301435406698564
C 179.49356579493565,14.23277610412113 179.7426317974263,18.878650048240694 179.82565379825652,19.994092976549116
C 179.99169779991698,21.10953590485754 180.24076380240766,19.99409297654912 180.32378580323785,19.994092976549116
C 180.48982980489828,19.036170673597574 180.73889580738896,15.204481461791403 180.82191780821915,14.24655915883986
C 180.9879618098796,13.8251914860102 181.23702781237026,16.92933230944927 181.32004981320048,17.46588693957115
C 181.48609381486094,18.42380924252269 181.73515981735162,19.572725303719455 181.8181818181818,19.994092976549116
C 181.90120381901204,20.415460649378776 181.81818181818184,19.99409297654912 181.8181818181818,19.994092976549116
" ></path>
  </svg>
