  <svg id="graph" xmlns="http://www.w3.org/2000/svg" class='w-full' width='200' height='30' viewbox="0 0 300.0 20">
  <path fill="none" class='stroke-2 stroke-amber-900 dark:stroke-amber-300' d="M 0.49813200498132,19.994092976549116
C 0.58115400581154,16.24608659696379 0.91324200913242,19.211412369307105 0.99626400996264,19.952743812392935
C 1.16230801162308,20.700966782838126 1.4113740141137399,19.98720144918975 1.49439601494396,19.994092976549116
C 1.6604400166044,19.250792525646325 1.90950601909506,16.243133085238348 1.99252801992528,15.492941106976195
C 2.15857202158572,15.492941106976195 2.4076380240763804,19.243900998286964 2.4906600249066,19.994092976549116
C 2.65670402656704,19.17892374032725 2.9057700290577,12.167286904129009 2.98879202988792,10.601925689644988
C 3.15483603154836,9.447102604997342 3.4039020340390196,12.654616338826868 3.4869240348692396,13.065154468663241
C 3.652968036529679,14.551755370468824 3.90203403902034,18.44546832850926 3.98505603985056,19.521531100478466
C 4.1511000415109995,19.95077480457597 4.400166044001659,16.28743576111997 4.48318804483188,15.640616693248273
C 4.64923204649232,15.509677673420363 4.89829804898298,18.22001693346722 4.9813200498132,18.735896981511015
C 5.14736405147364,19.461476362061152 5.396430053964299,19.78439364404277 5.47945205479452,19.994092976549116
C 5.64549605645496,19.826727312107426 5.8945620589456205,18.10876799180893 5.9775840597758405,17.73170299486089
C 6.143628061436281,17.088821942623113 6.392694063926942,16.40262271841219 6.47571606475716,16.136806663122453
C 6.6417600664176,16.507964636619608 6.89082606890826,19.321676807056924 6.97384806973848,19.958650835843816
C 7.139892071398921,19.41225116663713 7.3889580738895795,14.041782345875914 7.4719800747198,12.858408647882333
C 7.63802407638024,12.864315671333216 7.887090078870901,18.804812255104654 7.97011207970112,19.994092976549116
C 8.136156081361559,21.18337369799358 8.385222083852218,19.99409297654912 8.46824408468244,19.994092976549116
C 8.63428808634288,19.994092976549116 8.883354088833538,19.99409297654912 8.96637608966376,19.994092976549116
C 9.1324200913242,19.994092976549116 9.381486093814859,19.99409297654912 9.46450809464508,19.994092976549116
C 9.63055209630552,19.994092976549116 9.87961809879618,19.99409297654912 9.9626400996264,19.994092976549116
C 10.12868410128684,19.994092976549116 10.3777501037775,19.99409297654912 10.46077210460772,19.994092976549116
C 10.62681610626816,19.994092976549116 10.875882108758821,19.99409297654912 10.95890410958904,19.994092976549116
C 11.12494811124948,18.98792998208203 11.374014113740143,14.963278004213677 11.45703611457036,13.95711500974659
C 11.6230801162308,13.888199736152956 11.87214611872146,18.64335361411385 11.95516811955168,19.5806013349873
C 12.12121212121212,19.432925748715224 12.37027812370278,14.15598479925965 12.453300124533,13.071061492114124
C 12.61934412619344,11.724260145312776 12.868410128684102,11.761671293835036 12.95143212951432,11.49979325417922
C 13.117476131174762,12.653631834918384 13.366542133665419,18.578376356154134 13.44956413449564,19.994092976549116
C 13.615608136156082,20.02461259771201 13.864674138646741,13.068107980388682 13.94769613947696,11.682910981156596
C 14.113740141137399,10.667887451513183 14.362806143628061,13.533778329099968 14.44582814445828,13.903951798688642
C 14.61187214611872,14.762439206883654 14.860938148609378,16.345521491720323 14.943960149439599,16.83383543032666
C 15.110004151100041,16.89192116092701 15.3590701535907,14.68269439029673 15.44209215442092,14.252466182290744
C 15.608136156081358,13.603678106602084 15.85720215857202,13.15966684387737 15.94022415940224,12.941106976194696
C 16.10626816106268,13.21479906275228 16.355334163553337,15.402366747395986 16.43835616438356,15.894618701636245
C 16.604400166043998,16.194892393722803 16.85346616853466,14.934727390867742 16.93648816936488,14.74274912871404
C 17.102532171025317,14.35780810049816 17.351598173515978,13.777935298403134 17.434620174346197,13.584972532340954
C 17.60066417600664,13.32900151613602 17.849730178497296,13.269931281627187 17.93275217932752,13.206923031484434
C 18.098796180987957,14.273140764368833 18.347862183478615,18.853052946620195 18.430884184308837,19.98227892964735
C 18.596928185969276,21.01305452182645 18.84599418845994,19.490026975407094 18.92901618929016,19.39157658455904
C 19.0950601909506,16.81906787169945 19.34412619344126,7.0212849745013495 19.427148194271478,4.547226652489812
C 19.593192195931916,2.4925669954909737 19.842258198422574,6.64421997755331 19.925280199252796,7.063618642566011
C 20.091324200913235,8.952881642940122 20.3403902034039,14.41294031937307 20.42341220423412,15.88280465473448
C 20.58945620589456,17.487546025557723 20.838522208385218,16.557189832043637 20.921544209215437,16.692066867505464
C 21.087588210875875,16.498119597534803 21.33665421336654,15.047945340343 21.41967621419676,14.71912103491051
C 21.585720215857197,15.26945871975112 21.834786218347855,19.114930986276015 21.917808219178077,19.994092976549116
C 22.08385222083852,20.873254966822216 22.332918223329177,19.99409297654912 22.4159402241594,19.994092976549116
C 22.581984225819838,19.994092976549116 22.831050228310502,19.99409297654912 22.914072229140718,19.994092976549116
C 23.080116230801156,19.994092976549116 23.329182233291814,19.99409297654912 23.412204234122036,19.994092976549116
C 23.57824823578248,18.629570559395123 23.827314238273136,13.171480890779135 23.91033623910336,11.80695847362514
C 24.076380240763797,11.806958473625139 24.32544624325446,18.629570559395123 24.408468244084677,19.994092976549116
C 24.574512245745115,21.358615393703115 24.823578248235776,19.99409297654912 24.906600249066,19.994092976549116
C 25.072644250726437,19.145450607438914 25.321710253217095,15.750881130998089 25.404732254047317,14.902238761887885
C 25.570776255707756,14.902238761887885 25.81984225819842,19.14545060743891 25.90286425902864,19.994092976549116
C 26.068908260689085,20.84273534565932 26.317974263179735,19.99409297654912 26.400996264009958,19.994092976549116
C 26.567040265670396,19.994092976549116 26.816106268161054,19.99409297654912 26.899128268991277,19.994092976549116
C 27.065172270651715,19.994092976549116 27.31423827314238,19.99409297654912 27.3972602739726,19.994092976549116
C 27.563304275633044,19.994092976549116 27.812370278123694,19.99409297654912 27.895392278953917,19.994092976549116
C 28.06143628061436,18.939689290566484 28.31050228310502,14.722074546635952 28.39352428393524,13.667670860653319
C 28.559568285595677,11.359009195266509 28.808634288086342,7.396380963632427 28.891656288916558,6.142122984228248
C 29.057700290577,6.942524661822908 29.306766293067653,16.41542126922244 29.389788293897876,18.470080926221275
C 29.555832295558318,18.982022958631145 29.80489829804898,10.75649280327643 29.887920298879198,9.21377517868746
C 30.053964300539636,9.467777187075432 30.3030303030303,18.197373343572174 30.386052303860517,19.994092976549116
C 30.55209630552096,20.37706499694804 30.801162308011616,12.925354913659007 30.88418430884184,11.511607301080986
C 31.05022831050228,10.314450548368677 31.299294312992938,12.594561600409556 31.382316313823157,12.811152460275268
C 31.548360315483595,14.22490007285329 31.79742631797426,18.796936223836813 31.88044831880448,19.994092976549116
C 32.046492320464914,20.412507137653336 32.29555832295558,16.100380018508673 32.3785803237858,15.321637426900585
C 32.54462432544624,14.50843719849568 32.79369032793689,15.149349242916495 32.87671232876712,15.114891606119677
C 33.04275633042756,15.893634197727765 33.29182233291822,19.18089274814421 33.37484433374844,19.994092976549116
C 33.54088833540888,19.1917222911375 33.78995433789955,11.916238407466478 33.872976338729764,10.30066749364995
C 34.0390203403902,10.300667493649948 34.28808634288085,18.37852206273259 34.37110834371108,19.994092976549116
C 34.53715234537152,21.609663890365642 34.78621834786218,19.99409297654912 34.8692403486924,19.994092976549116
C 35.03528435035284,18.656152164924094 35.28435035284351,13.304388918424005 35.36737235367372,11.966448106798985
C 35.53341635533416,10.627522791265484 35.78248235782481,11.961525587256581 35.86550435865504,11.960541083348101
C 36.031548360315476,12.36123417409967 36.28061436280614,13.968929056648355 36.36363636363636,14.370606651308405
C 36.5296803652968,15.709531966841906 36.77874636778747,19.056845255675665 36.86176836861768,19.994092976549116
C 37.02781237027812,20.931340697422566 37.276878372768785,19.99409297654912 37.359900373599004,19.994092976549116
C 37.52594437525945,19.994092976549116 37.7750103777501,19.99409297654912 37.85803237858032,19.994092976549116
C 38.02407638024076,19.67117569456751 38.27314238273143,18.37950656664107 38.35616438356164,18.05658928465946
C 38.52220838522208,17.607655502392344 38.771274387712744,17.426506783231925 38.85429638854296,17.300490282946424
C 39.02034039020341,16.410498749680038 39.26940639269406,13.480615118042019 39.35242839352428,12.716640085061139
C 39.518472395184716,12.276566837970348 39.76753839767539,14.33614901451159 39.8505603985056,14.66005080040168
C 40.01660440016604,15.872959615649675 40.2656704026567,19.10508594719121 40.34869240348692,19.994092976549116
C 40.51473640514737,20.88113099809006 40.763802407638025,19.984247937464314 40.846824408468244,19.98227892964735
C 41.01286841012868,17.859688502963355 41.26193441261935,9.379171835312187 41.34495641344956,7.2585504164451535
C 41.51100041511,5.833973260873846 41.76006641760066,10.73877173292378 41.84308841843088,11.434815996219506
C 42.009132420091326,13.198062496308111 42.258198422581984,16.770827180183904 42.3412204234122,17.838029416976784
C 42.50726442507264,19.264575580365054 42.756330427563306,19.63474904995373 42.83935242839352,19.994092976549116
C 43.00539643005396,19.57666331935338 43.25446243254462,16.11022505759348 43.33748443337484,15.33345147380235
C 43.503528435035285,15.33345147380235 43.75259443752594,19.21731939275799 43.83561643835616,19.994092976549116
C 44.0016604400166,20.77086656034024 44.25072644250727,19.99409297654912 44.333748443337484,19.994092976549116
C 44.49979244499792,19.92320869513852 44.74885844748858,19.63967156949613 44.8318804483188,19.56878728808553
C 44.997924449979244,18.91999921239687 45.2469904524699,16.679268316695214 45.33001245330012,16.101364522417153
C 45.49605645496056,15.083387481048298 45.74512245745123,13.900998286963201 45.82814445828144,13.460925039872409
C 45.99418845994188,12.995254691161124 46.24325446243254,13.332939531769943 46.32627646326276,13.307342430149449
C 46.4923204649232,13.303404414515526 46.74138646741386,13.415637860082304 46.82440846824408,13.437296946068876
C 46.99045246990452,13.651918798117629 47.23951847239519,14.402110776379784 47.3225404732254,14.595073542441964
C 47.48858447488585,15.687872880855336 47.7376504773765,19.094256404197925 47.820672478206724,19.994092976549116
C 47.98671647986717,19.68003622974383 48.23578248235782,13.92462638076673 48.31880448318804,12.710733061610254
C 48.48484848484848,11.627778762281686 48.73391448733915,13.3654281607498 48.81693648816936,13.496367180577709
C 48.98298048982981,12.863331167424738 49.23204649232046,9.676492015673302 49.31506849315068,8.912516982692422
C 49.48111249481113,9.349636718057772 49.73017849730178,14.91799082442357 49.813200498132,16.119085592769803
C 49.979244499792436,17.14100064977258 50.22831050228311,15.223187036052535 50.31133250311332,15.04400732470908
C 50.477376504773765,13.287652351979839 50.726442507264416,7.15813101778014 50.80946450809464,5.580955756394353
C 50.97550850975509,5.601630338472444 51.224574512245745,13.570204973713748 51.307596513075964,15.168054817177625
C 51.473640514736395,15.502786146060998 51.72270651722707,8.852462244275111 51.80572851805728,7.589343729694608
C 51.971772519717724,7.161084529505583 52.220838522208375,11.763640301651998 52.3038605230386,12.598499616043476
C 52.46990452469905,13.395947781912696 52.718970527189704,12.411443873432178 52.80199252801992,12.374032724909918
C 52.968036529680354,12.209620572193673 53.217102532171026,11.739027703939987 53.30012453300124,11.612026699745998
C 53.46616853466168,11.649437848268258 53.715234537152334,12.43408746332723 53.79825653798256,12.598499616043476
C 53.964300539643006,12.828873530627916 54.21336654213366,12.92830842538445 54.29638854296388,12.994270187252644
C 54.46243254462431,13.991572646543405 54.711498547114985,17.650973674365485 54.7945205479452,18.582314371788055
C 54.96056454960564,19.320692303148444 55.20963055209629,17.617500541477153 55.29265255292652,17.42453777541497
C 55.458696554586965,17.06716285663654 55.70776255707762,16.602477011833734 55.79078455790784,16.43806485911749
C 55.95682855956827,16.140744678756374 56.205894562058944,15.77352472089314 56.28891656288916,15.640616693248273
C 56.4549605645496,14.890424714986118 56.70402656704025,12.554196940161853 56.78704856787048,11.936912989544568
C 56.953092569530924,12.334652568570696 57.20215857202158,17.012030637761633 57.2851805728518,18.027054167405044
C 57.45122457451223,18.37261503928171 57.7002905770029,14.679740878571288 57.78331257783312,14.010278220804537
C 57.94935657949356,12.992301179435684 58.19842258198421,12.267706302794025 58.28144458281444,11.91919191919192
C 58.44748858447488,12.057022466379195 58.69655458696554,14.350916573138795 58.77957658779576,14.83726150392817
C 58.94562058945619,15.29210230964617 59.19468659194686,14.679740878571288 59.27770859277708,14.648236753499912
C 59.44375259443752,15.507708665603401 59.69281859692817,19.10311693937425 59.7758405977584,19.994092976549116
C 59.94188459941884,20.88506901372398 60.1909506019095,19.99409297654912 60.27397260273972,19.994092976549116
C 60.44001660440015,19.994092976549116 60.68908260689082,19.99409297654912 60.77210460772104,19.994092976549116
C 60.93814860938148,19.994092976549116 61.18721461187213,19.99409297654912 61.27023661270236,19.994092976549116
C 61.4362806143628,19.994092976549116 61.68534661685346,19.99409297654912 61.76836861768368,19.994092976549116
C 61.93441261934411,19.994092976549116 62.18347862183478,19.99409297654912 62.266500622665,19.994092976549116
C 62.43254462432544,19.63081103431981 62.68161062681609,18.17768326540256 62.76463262764632,17.814401323173254
C 62.93067662930676,17.814401323173254 63.17974263179743,19.63081103431981 63.26276463262764,19.994092976549116
C 63.42880863428808,20.357374918778426 63.67787463677874,19.99409297654912 63.76089663760896,19.994092976549116
C 63.9269406392694,19.994092976549116 64.17600664176005,19.99409297654912 64.25902864259028,19.994092976549116
C 64.42507264425072,19.65739263984878 64.67413864674138,18.310591293047434 64.7571606475716,17.973890956347095
C 64.92320464923203,17.973890956347095 65.1722706517227,19.657392639848783 65.25529265255291,19.994092976549116
C 65.42133665421336,19.991139464823675 65.67040265670401,18.295823734420225 65.75342465753424,17.956169885994445
C 65.91946865919468,17.531848701439344 66.16853466168534,17.532833205347824 66.25155666251555,17.4481658692185
C 66.41760066417599,17.164628743576113 66.66666666666666,16.453816921653175 66.74968866749687,16.254947132140114
C 66.91573266915732,16.34059897217792 67.16479867164797,17.67755527989446 67.2478206724782,17.96207690944533
C 67.41386467413864,18.585267883513495 67.6629306766293,19.65542363203182 67.74595267745951,19.994092976549116
C 67.91199667911995,20.332762321066415 68.16106268161062,19.99409297654912 68.24408468244083,19.994092976549116
C 68.41012868410128,19.48707346368165 68.65919468659193,17.458995412211785 68.74221668742216,16.95197589934432
C 68.9082606890826,16.841711461594503 69.15732669157326,18.93575127493256 69.24034869240347,19.33250635005021
C 69.40639269406391,19.839525862917675 69.65545869655458,19.8838285387993 69.73848069738479,19.994092976549116
C 69.90452469904524,19.157264654340675 70.15359070153589,15.25862917675783 70.23661270236612,14.311536416799575
C 70.40265670402655,14.103806092110185 70.65172270651722,18.00834859314391 70.73474470734743,18.74771102841278
C 70.90078870900787,19.694803788371036 71.14985471149853,19.786362651859726 71.23287671232875,19.994092976549116
C 71.3989207139892,20.201823301238505 71.64798671647985,19.99409297654912 71.73100871731008,19.994092976549116
C 71.89705271897051,19.994092976549116 72.14611872146118,19.99409297654912 72.22914072229139,19.994092976549116
C 72.39518472395183,19.89662708960955 72.64425072644251,19.50676354185126 72.72727272727272,19.40929765491169
C 72.89331672893316,18.905231653769665 73.14238273142381,17.37629708389942 73.22540473225403,16.96969696969697
C 73.39144873391446,16.164372772559908 73.64051473640512,14.976076555023923 73.72353673723535,14.577352472089315
C 73.88958073889579,15.081418473231338 74.13864674138647,19.09130289247248 74.22166874221668,19.994092976549116
C 74.38771274387712,20.89688306062575 74.63677874636777,19.99409297654912 74.719800747198,19.994092976549116
C 74.88584474885842,19.994092976549116 75.13491075134908,19.99409297654912 75.21793275217931,19.994092976549116
C 75.38397675383975,19.994092976549116 75.63304275633043,19.99409297654912 75.71606475716064,19.994092976549116
C 75.88210875882108,19.994092976549116 76.13117476131173,19.99409297654912 76.21419676214195,19.994092976549116
C 76.38024076380238,19.994092976549116 76.62930676629304,19.99409297654912 76.71232876712327,19.994092976549116
C 76.8783727687837,19.994092976549116 77.12743877127438,19.99409297654912 77.2104607721046,19.994092976549116
C 77.37650477376503,19.994092976549116 77.62557077625569,19.99409297654912 77.70859277708591,19.994092976549116
C 77.87463677874634,19.994092976549116 78.123702781237,19.99409297654912 78.20672478206723,19.994092976549116
C 78.37276878372766,19.994092976549116 78.62183478621834,19.99409297654912 78.70485678704856,19.994092976549116
C 78.870900788709,19.994092976549116 79.11996679119964,19.99409297654912 79.20298879202987,19.994092976549116
C 79.3690327936903,19.994092976549116 79.61809879618097,19.99409297654912 79.7011207970112,19.994092976549116
C 79.86716479867164,19.994092976549116 80.1162308011623,19.99409297654912 80.19925280199251,19.994092976549116
C 80.36529680365295,19.994092976549116 80.6143628061436,19.99409297654912 80.69738480697383,19.994092976549116
C 80.86342880863425,19.994092976549116 81.11249481112493,19.99409297654912 81.19551681195516,19.994092976549116
C 81.3615608136156,19.994092976549116 81.61062681610626,19.99409297654912 81.69364881693647,19.994092976549116
C 81.85969281859691,19.994092976549116 82.10875882108756,19.99409297654912 82.19178082191779,19.994092976549116
C 82.35782482357821,19.994092976549116 82.60689082606889,19.99409297654912 82.68991282689912,19.994092976549116
C 82.85595682855956,19.994092976549116 83.10502283105022,19.99409297654912 83.18804483188043,19.994092976549116
C 83.35408883354087,19.994092976549116 83.60315483603152,19.99409297654912 83.68617683686175,19.994092976549116
C 83.85222083852217,19.994092976549116 84.10128684101285,19.99409297654912 84.18430884184308,19.994092976549116
C 84.35035284350352,19.994092976549116 84.59941884599418,19.99409297654912 84.68244084682439,19.994092976549116
C 84.84848484848483,19.994092976549116 85.09755085097548,19.99409297654912 85.1805728518057,19.994092976549116
C 85.34661685346613,19.994092976549116 85.59568285595681,19.99409297654912 85.67870485678704,19.994092976549116
C 85.84474885844747,19.994092976549116 86.09381486093811,19.99409297654912 86.17683686176835,19.994092976549116
C 86.34288086342877,19.994092976549116 86.59194686591945,19.99409297654912 86.67496886674967,19.994092976549116
C 86.84101286841009,19.994092976549116 87.09007887090077,19.99409297654912 87.173100871731,19.994092976549116
C 87.33914487339143,19.994092976549116 87.58821087588207,19.99409297654912 87.67123287671231,19.994092976549116
C 87.83727687837275,19.994092976549116 88.08634288086341,19.99409297654912 88.16936488169364,19.994092976549116
C 88.33540888335408,19.994092976549116 88.58447488584476,19.99409297654912 88.66749688667495,19.994092976549116
C 88.83354088833539,19.994092976549116 89.08260689082603,19.99409297654912 89.16562889165627,19.994092976549116
C 89.3316728933167,19.994092976549116 89.58073889580737,19.99409297654912 89.6637608966376,19.994092976549116
C 89.82980489829804,19.994092976549116 90.07887090078871,19.99409297654912 90.16189290161891,19.994092976549116
C 90.32793690327935,19.994092976549116 90.57700290576999,19.99409297654912 90.66002490660023,19.994092976549116
C 90.82606890826067,19.994092976549116 91.07513491075133,19.99409297654912 91.15815691158156,19.994092976549116
C 91.324200913242,19.994092976549116 91.57326691573267,19.99409297654912 91.65628891656287,19.994092976549116
C 91.82233291822331,19.994092976549116 92.07139892071395,19.99409297654912 92.15442092154419,19.994092976549116
C 92.32046492320463,19.994092976549116 92.56953092569529,19.99409297654912 92.65255292652552,19.994092976549116
C 92.81859692818595,19.994092976549116 93.06766293067663,19.99409297654912 93.15068493150683,19.994092976549116
C 93.31672893316727,19.994092976549116 93.5657949356579,19.99409297654912 93.64881693648815,19.994092976549116
C 93.81486093814858,19.994092976549116 94.06392694063925,19.99409297654912 94.14694894146947,19.994092976549116
C 94.31299294312991,19.994092976549116 94.56205894562059,19.99409297654912 94.64508094645079,19.994092976549116
C 94.81112494811123,19.994092976549116 95.06019095060189,19.99409297654912 95.14321295143212,19.994092976549116
C 95.30925695309254,19.994092976549116 95.55832295558321,19.99409297654912 95.64134495641343,19.994092976549116
C 95.80738895807387,19.994092976549116 96.05645496056455,19.99409297654912 96.13947696139475,19.994092976549116
C 96.30552096305519,19.994092976549116 96.55458696554585,19.99409297654912 96.63760896637608,19.994092976549116
C 96.8036529680365,19.994092976549116 97.05271897052717,19.99409297654912 97.1357409713574,19.994092976549116
C 97.30178497301783,18.8934176068679 97.55085097550851,14.49071612814303 97.63387297633871,13.390040758461812
C 97.79991697799915,13.390040758461813 98.04898298048981,18.893417606867903 98.13200498132004,19.994092976549116
C 98.29804898298046,21.094768346230335 98.54711498547113,19.99409297654912 98.63013698630135,19.994092976549116
C 98.79618098796179,19.994092976549116 99.04524699045247,19.99409297654912 99.12826899128267,19.994092976549116
C 99.2943129929431,19.994092976549116 99.54337899543377,19.99409297654912 99.626400996264,19.994092976549116
C 99.79244499792442,19.994092976549116 100.04151100041508,19.99409297654912 100.12453300124531,19.994092976549116
C 100.29057700290575,19.259653060822654 100.53964300539643,16.32189339791679 100.62266500622663,15.587453482190325
C 100.78870900788706,14.771299742059975 101.03777501037773,15.178884360170912 101.12079701120796,15.097170535767027
C 101.28684101286838,14.24360564711442 101.53590701535904,11.237915214523404 101.61892901618927,10.466064150274677
C 101.78497301784971,11.282217890405027 102.03403902034039,18.406088172170048 102.1170610211706,19.994092976549116
C 102.28310502283104,20.606454407623996 102.53217102532169,15.115876110028156 102.61519302615191,14.140232736723965
C 102.78123702781234,14.140232736723965 103.030303030303,19.018449603244925 103.11332503113323,19.994092976549116
C 103.27936903279367,20.96973634985331 103.52843503528435,19.99409297654912 103.61145703611456,19.994092976549116
C 103.77750103777502,19.994092976549116 104.02656704026565,19.99409297654912 104.10958904109587,19.994092976549116
C 104.2756330427563,19.994092976549116 104.52469904524696,19.99409297654912 104.60772104607719,19.994092976549116
C 104.77376504773763,19.994092976549116 105.0228310502283,19.99409297654912 105.10585305105852,19.994092976549116
C 105.27189705271898,19.994092976549116 105.5209630552096,19.99409297654912 105.60398505603983,19.994092976549116
C 105.77002905770026,19.994092976549116 106.01909506019092,19.99409297654912 106.10211706102115,19.994092976549116
C 106.26816106268159,19.994092976549116 106.51722706517226,19.99409297654912 106.60024906600248,19.994092976549116
C 106.76629306766294,19.994092976549116 107.01535907015356,19.99409297654912 107.09838107098379,19.994092976549116
C 107.26442507264422,19.994092976549116 107.51349107513488,19.99409297654912 107.5965130759651,19.994092976549116
C 107.76255707762554,19.994092976549116 108.01162308011622,19.99409297654912 108.09464508094644,19.994092976549116
C 108.2606890826069,19.994092976549116 108.50975508509752,19.99409297654912 108.59277708592775,19.994092976549116
C 108.75882108758817,19.279343138992264 109.00788709007884,16.42034378876484 109.09090909090907,15.705593951207986
C 109.2569530925695,15.052867859885403 109.50601909506018,16.01571268237935 109.5890410958904,16.07773642861362
C 109.75508509755086,16.792486266170474 110.00415110004148,19.34136688522653 110.08717310087171,19.994092976549116
C 110.25321710253216,20.6468190678717 110.50228310502281,19.99409297654912 110.58530510585304,19.994092976549116
C 110.75134910751348,19.994092976549116 111.00041511000416,19.99409297654912 111.08343711083435,19.994092976549116
C 111.24948111249479,19.994092976549116 111.49854711498544,19.99409297654912 111.58156911581567,19.994092976549116
C 111.74761311747612,19.994092976549116 111.99667911996677,19.99409297654912 112.079701120797,19.994092976549116
C 112.24574512245744,19.994092976549116 112.49481112494811,19.99409297654912 112.57783312577831,19.994092976549116
C 112.74387712743875,19.994092976549116 112.9929431299294,19.99409297654912 113.07596513075963,19.994092976549116
C 113.24200913242008,19.994092976549116 113.49107513491073,19.99409297654912 113.57409713574096,19.994092976549116
C 113.7401411374014,19.994092976549116 113.98920713989207,19.99409297654912 114.07222914072227,19.994092976549116
C 114.23827314238271,18.87668104042373 114.48733914487336,14.407033295922185 114.57036114570359,13.289621359796799
C 114.73640514736404,12.24309370508201 114.98547114985469,13.644042766849786 115.06849315068492,13.714927048260382
C 115.23453715234535,14.83233898438577 115.48360315483603,18.94756532183433 115.56662515566623,19.994092976549116
C 115.73266915732667,21.040620631263906 115.98173515981732,19.99409297654912 116.06475716064755,19.994092976549116
C 116.230801162308,19.994092976549116 116.47986716479865,19.99409297654912 116.56288916562887,19.994092976549116
C 116.72893316728931,19.994092976549116 116.97799916977999,19.99409297654912 117.06102117061019,19.994092976549116
C 117.22706517227063,19.994092976549116 117.47613117476129,19.99409297654912 117.55915317559152,19.994092976549116
C 117.72519717725197,19.994092976549116 117.97426317974261,19.99409297654912 118.05728518057283,19.994092976549116
C 118.22332918223327,19.033217161872134 118.47239518472395,15.189713903164197 118.55541718555415,14.228838088487212
C 118.72146118721459,14.228838088487214 118.97052718970525,19.033217161872134 119.05354919053548,19.994092976549116
C 119.21959319219593,20.9549687912261 119.46865919468657,19.99409297654912 119.55168119551679,19.994092976549116
C 119.71772519717723,19.994092976549116 119.96679119966791,19.99409297654912 120.04981320049811,19.994092976549116
C 120.21585720215855,19.994092976549116 120.46492320464921,19.99409297654912 120.54794520547944,19.994092976549116
C 120.71398920713989,19.994092976549116 120.96305520963053,19.99409297654912 121.04607721046075,19.994092976549116
C 121.21212121212119,19.994092976549116 121.46118721461187,19.99409297654912 121.54420921544207,19.994092976549116
C 121.7102532171025,19.994092976549116 121.95931921959317,19.99409297654912 122.0423412204234,19.994092976549116
C 122.20838522208385,19.994092976549116 122.45745122457448,19.99409297654912 122.54047322540471,19.994092976549116
C 122.70651722706515,19.992123968732155 122.95558322955583,19.984247937464314 123.03860523038603,19.98227892964735
C 123.20464923204646,19.98227892964735 123.45371523453713,19.992123968732155 123.53673723536735,19.994092976549116
C 123.7027812370278,19.996061984366076 123.95184723951844,19.99409297654912 124.03486924034867,19.994092976549116
C 124.20091324200911,19.946836788942054 124.44997924449979,19.75781203851379 124.53300124533,19.710555850906726
C 124.69904524699042,19.710555850906726 124.94811124948109,19.946836788942054 125.03113325031131,19.994092976549116
C 125.19717725197177,20.04134916415618 125.4462432544624,19.99409297654912 125.52926525529263,19.994092976549116
C 125.69530925695307,19.994092976549116 125.94437525944375,19.99409297654912 126.02739726027396,19.994092976549116
C 126.19344126193438,19.992123968732155 126.44250726442505,19.984247937464314 126.52552926525527,19.98227892964735
C 126.69157326691573,19.98227892964735 126.94063926940636,19.992123968732155 127.02366127023659,19.994092976549116
C 127.18970527189703,19.996061984366076 127.4387712743877,19.99409297654912 127.52179327521792,19.994092976549116
C 127.68783727687834,19.99310847264064 127.936903279369,19.98917045700671 128.01992528019923,19.98818595309823
C 128.18596928185968,19.98818595309823 128.43503528435033,19.993108472640635 128.51805728518056,19.994092976549116
C 128.684101286841,19.94191426939965 128.93316728933166,19.72827692125938 129.0161892901619,19.67511371020143
C 129.1822332918223,19.67511371020143 129.43129929431302,19.94092976549117 129.51432129514322,19.994092976549116
C 129.68036529680367,20.047256187607065 129.9294312992943,19.99409297654912 130.01245330012452,19.994092976549116
C 130.17849730178497,19.852324413727924 130.42756330427562,19.285250162443145 130.51058530510585,19.14348159962195
C 130.67662930676627,19.14348159962195 130.92569530925698,19.852324413727924 131.00871731008718,19.994092976549116
C 131.17476131174763,20.069899777502116 131.42382731423825,19.664284167208145 131.50684931506848,19.598322405339946
C 131.67289331672893,19.458522850335715 131.92195931921958,19.22913343965976 132.0049813200498,19.155295646523715
C 132.17102532171023,19.22125740839191 132.42009132420094,19.854293421544885 132.50311332503114,19.994092976549116
C 132.6691573266916,20.13389253155335 132.9182233291822,19.99409297654912 133.00124533001244,19.994092976549116
C 133.1672893316729,19.994092976549116 133.41635533416354,19.99409297654912 133.49937733499377,19.994092976549116
C 133.6654213366542,19.994092976549116 133.9144873391449,19.99409297654912 133.9975093399751,19.994092976549116
C 134.16355334163555,19.994092976549116 134.41261934412617,19.99409297654912 134.4956413449564,19.994092976549116
C 134.66168534661685,19.994092976549116 134.9107513491075,19.99409297654912 134.99377334993773,19.994092976549116
C 135.15981735159815,19.225195424025834 135.40888335408886,16.1496052139327 135.49190535491906,15.380707661409415
C 135.6579493565795,14.732904089629235 135.90701535907013,15.986177565124933 135.99003735990036,16.107271545868034
C 136.1560813615608,16.13089963967157 136.40514736405146,15.61994211117018 136.48816936488168,15.52247622423061
C 136.6542133665421,14.936696398684704 136.90327936903282,13.080906531198929 136.986301369863,12.592592592592593
C 137.15234537152347,12.244078208990489 137.4014113740141,13.29159036761376 137.48443337484431,13.431389922617994
C 137.65047737650477,13.983696615275562 137.89954337899542,15.493925610884679 137.98256537982564,15.906432748538013
C 138.14860938148607,17.000216590859868 138.39767538397678,19.3128162718806 138.48069738480697,19.994092976549116
C 138.64674138646743,20.029535117254415 138.89580738895805,16.76492015673302 138.97882938978827,16.119085592769803
C 139.14487339144873,15.539212790674776 139.39393939393938,16.448894402110778 139.4769613947696,16.51485616397897
C 139.64300539643003,15.932029850158502 139.89207139892073,13.270915785535669 139.97509339975093,12.622127709847009
C 140.14113740141138,12.051115442928308 140.390203403902,13.011006753696812 140.47322540473223,13.088782562466774
C 140.63926940639269,13.662748341110914 140.88833540888334,15.569732411837672 140.97135740971356,16.065922381711854
C 141.137401411374,15.994053596392774 141.3864674138647,13.225628605745568 141.4694894146949,12.657569850552308
C 141.63553341635534,11.649437848268258 141.88459941884597,10.457203615098353 141.9676214196762,10.017130368007562
C 142.13366542133664,10.14708488392699 142.3827314238273,12.867269183058658 142.46575342465752,13.437296946068876
C 142.63179742631795,13.810423927382994 142.88086342880865,12.452793037588359 142.96388542963885,12.255892255892256
C 143.1299294312993,12.573887018331462 143.37899543378995,14.830369976568809 143.46201743462018,15.345265520704118
C 143.62806143628063,15.274381239293518 143.87712743877125,12.416366392974581 143.96014943960148,11.830586567428673
C 144.1261934412619,11.404296375056608 144.3752594437526,12.62803473329789 144.4582814445828,12.787524366471734
C 144.62432544624326,13.169511882962174 144.8733914487339,13.900013783054717 144.95641344956414,14.122511666371315
C 145.1224574512246,14.10971311556107 145.3715234537152,12.946029495737095 145.45454545454544,12.710733061610254
C 145.62058945620586,13.072045996022602 145.86965545869657,15.693779904306218 145.95267745952677,16.290389272845413
C 146.11872146118722,16.879122610116763 146.36778746367787,16.251009116506193 146.4508094645081,16.243133085238348
C 146.61685346616855,15.79026128733731 146.86591946865917,14.018154252072383 146.9489414694894,13.573158485439189
C 147.11498547114982,13.549530391635656 147.36405147364053,15.679996849587491 147.44707347447073,16.101364522417153
C 147.61311747613118,16.282513241577565 147.86218347862183,14.900269754070926 147.94520547945206,14.66005080040168
C 148.1112494811125,14.410971311556109 148.36031548360313,14.615748124520055 148.44333748443336,14.60688758934373
C 148.60938148609378,14.504499182861757 148.8584474885845,14.139248232815483 148.9414694894147,14.045720361509835
C 149.10751349107514,13.802547896115145 149.3565794935658,13.297497391064644 149.43960149439602,13.147852796975604
C 149.60564549605647,13.150806308701045 149.8547114985471,13.910843326048003 149.93773349937732,14.063441431862485
C 150.10377750103774,15.03022426999035 150.35284350352845,18.13436509342942 150.43586550435865,18.948549825742806
C 150.6019095060191,19.061767775218065 150.85097550850975,15.443715911552168 150.93399750933997,14.74274912871404
C 151.10004151100043,13.974836080099239 151.34910751349105,14.408017799830665 151.43212951432128,14.34107153405399
C 151.5981735159817,14.768346230334535 151.8472395184724,16.812176344340088 151.9302615193026,17.306397306397304
C 152.09630552096306,18.24856754681316 152.3453715234537,19.546143698190484 152.42839352428393,19.994092976549116
C 152.5944375259444,20.44204225490775 152.843503528435,19.99409297654912 152.92652552926523,19.994092976549116
C 153.09256953092566,19.994092976549116 153.34163553341637,19.99409297654912 153.42465753424656,19.994092976549116
C 153.59070153590702,19.421111701813455 153.83976753839767,17.129186602870814 153.9227895392279,16.556205328135153
C 154.08883354088834,16.556205328135153 154.33789954337897,19.421111701813455 154.4209215442092,19.994092976549116
C 154.58696554586962,20.567074251284776 154.83603154836032,19.99409297654912 154.91905354919052,19.994092976549116
C 155.08509755085097,19.532360643471755 155.33416355334163,17.685431311162308 155.41718555417185,17.223698978084943
C 155.5832295558323,16.637919152539038 155.83229555832293,16.603461515742215 155.91531755915315,16.479414023273673
C 156.08136156081358,16.941146356351034 156.33042756330428,19.40831315100321 156.41344956413448,19.994092976549116
C 156.57949356579493,20.57987280209502 156.82855956828558,19.99409297654912 156.9115815691158,19.994092976549116
C 157.07762557077626,19.994092976549116 157.32669157326688,19.99409297654912 157.4097135740971,19.994092976549116
C 157.57575757575754,18.937720282749524 157.82482357824824,14.712229507551143 157.90784557907844,13.655856813751551
C 158.0738895807389,12.62606572548093 158.32295558322954,13.788764841396421 158.40597758405977,13.815346446925394
C 158.57202158572022,14.870734636816508 158.82108758821087,18.959379368736094 158.9041095890411,19.98818595309823
C 159.07015359070152,19.96849587492862 159.3192195931922,14.745702640439482 159.4022415940224,13.697205977907734
C 159.56828559568285,12.878098726051944 159.8173515981735,14.844153031287533 159.90037359900373,15.073542441963495
C 160.06641760066418,15.185775887530275 160.31548360315483,14.487762616417585 160.39850560398506,14.370606651308405
C 160.56454960564548,14.521235749305923 160.81361560813616,15.70953196684191 160.89663760896636,15.97731702994861
C 161.0626816106268,16.914564750822063 161.31174761311746,19.324630318782365 161.3947696139477,19.994092976549116
C 161.56081361560814,19.2370094709276 161.8098796180988,12.861362159607774 161.89290161892902,11.434815996219506
C 162.05894562058944,11.434815996219506 162.30801162308012,18.56754681316085 162.39103362391032,19.994092976549116
C 162.55707762557077,21.42063913993739 162.80614362806142,19.99409297654912 162.88916562889165,19.994092976549116
C 163.0552096305521,19.994092976549116 163.30427563304275,19.99409297654912 163.38729763387298,19.994092976549116
C 163.5533416355334,19.994092976549116 163.80240763802408,19.99409297654912 163.88542963885428,19.994092976549116
C 164.05147364051473,19.994092976549116 164.30053964300538,19.99409297654912 164.3835616438356,19.994092976549116
C 164.54960564549606,19.994092976549116 164.7986716479867,19.99409297654912 164.88169364881693,19.994092976549116
C 165.04773765047736,19.994092976549116 165.29680365296804,19.99409297654912 165.37982565379824,19.994092976549116
C 165.5458696554587,19.994092976549116 165.79493565794934,19.99409297654912 165.87795765877956,19.994092976549116
C 166.04400166044002,19.994092976549116 166.29306766293067,19.99409297654912 166.3760896637609,19.994092976549116
C 166.54213366542132,19.23405595920216 166.791199667912,16.193907889814323 166.8742216687422,15.433870872467365
C 167.04026567040265,14.437552917085084 167.2893316728933,14.252466182290744 167.37235367372352,14.01618524425542
C 167.53839767538398,13.76907476322681 167.78746367787463,13.962037529288992 167.87048567870485,13.951207986295705
C 168.03652968036528,14.216039537676963 168.28559568285596,15.329513458168428 168.36861768368615,15.605174552542975
C 168.5346616853466,15.55791836493591 168.78372768783726,13.990588142634929 168.86674968866748,13.667670860653319
C 169.03279369032794,12.551243428436413 169.28185969281859,9.700120109476837 169.3648816936488,8.906609959241539
C 169.53092569530924,8.776655443322111 169.77999169779991,12.224388130820879 169.8630136986301,12.887943765136749
C 170.02905770029056,13.05826294130388 170.27812370278122,10.421761474393055 170.36114570361144,9.928525016244315
C 170.5271897052719,9.662708960954575 170.77625570776254,11.06562703053931 170.85927770859277,11.29304743339831
C 171.02532171025322,12.910587355031799 171.27438771274387,18.243645027270755 171.35740971357407,19.633764546045246
C 171.52345371523452,21.083938803237046 171.7725197177252,19.93403823813181 171.8555417185554,19.994092976549116
C 172.02158572021585,19.066690294760473 172.2706517227065,15.056805875519325 172.35367372353673,14.069348455313369
C 172.51971772519718,12.830842538444882 172.76878372768783,12.81410597200071 172.85180572851803,12.563057475338178
C 173.01784973017848,13.550514895544138 173.26691573266916,18.75558705968063 173.34993773349936,19.994092976549116
C 173.5159817351598,21.16565262764093 173.76504773765046,19.65936164766574 173.8480697384807,19.592415381889065
C 174.01411374014114,17.424537775414965 174.26317974263182,9.087758678401952 174.34620174346202,6.986827337704531
C 174.51224574512244,5.9964164057731315 174.76131174761312,12.539429381534646 174.84433374844332,13.649949790300669
C 175.01037775010377,12.787524366471738 175.25944375259442,3.785220627325892 175.34246575342465,1.812274794730937
C 175.5085097550851,1.4883730088408467 175.75757575757578,10.057495028255264 175.84059775840598,11.706539074960128
C 176.0066417600664,14.736842105263158 176.25570776255708,18.61283399295095 176.33872976338728,19.994092976549116
C 176.50477376504773,21.37535196014728 176.75383976753838,19.99409297654912 176.8368617683686,19.994092976549116
C 177.00290577002906,19.14249709571347 177.25197177251974,15.736113572370881 177.33499377334994,14.884517691535235
C 177.50103777501036,13.755291708508082 177.75010377750104,13.496367180577709 177.83312577833124,13.218737078386201
C 177.9991697799917,13.06318546084628 178.24823578248234,13.82912950164412 178.33125778331257,13.951207986295705
C 178.49730178497302,13.981727607458602 178.7463677874637,13.493413668852265 178.8293897882939,13.401854805363579
C 178.99543378995432,13.862602634532463 179.244499792445,16.163388268651424 179.3275217932752,16.715694961308994
C 179.49356579493565,17.811447811447806 179.7426317974263,19.432925748715224 179.82565379825652,19.976371906196466
C 179.99169779991698,19.133636560537145 180.24076380240766,13.04546439049363 180.32378580323785,11.659282887353063
C 180.48982980489828,10.35481520861638 180.73889580738896,12.067852009372475 180.82191780821915,12.14956583377636
C 180.9879618098796,12.43704097505267 181.23702781237026,13.178372418138501 181.32004981320048,13.384133735010929
C 181.48609381486094,14.68170988638825 181.73515981735162,18.84320790753539 181.8181818181818,19.935022742040285
C 181.90120381901204,21.026837576545176 181.81818181818184,19.93502274204028 181.8181818181818,19.935022742040285
" ></path>
  </svg>
