  <svg id="graph" xmlns="http://www.w3.org/2000/svg" class='w-full' width='200' height='30' viewbox="0 0 300.0 20">
  <path fill="none" class='stroke-2 stroke-amber-900 dark:stroke-amber-300' d="M 0.49813200498132,19.994092976549116
C 0.58115400581154,15.307854372181856 0.91324200913242,19.056845255675665 0.99626400996264,19.994092976549116
C 1.16230801162308,20.931340697422566 1.4113740141137399,19.99409297654912 1.49439601494396,19.994092976549116
C 1.6604400166044,19.994092976549116 1.90950601909506,19.99409297654912 1.99252801992528,19.994092976549116
C 2.15857202158572,19.67117569456751 2.4076380240763804,18.37950656664107 2.4906600249066,18.05658928465946
C 2.65670402656704,17.607655502392344 2.9057700290577,17.426506783231925 2.98879202988792,17.300490282946424
C 3.15483603154836,16.410498749680038 3.4039020340390196,13.480615118042019 3.4869240348692396,12.716640085061139
C 3.652968036529679,12.276566837970348 3.90203403902034,14.33614901451159 3.98505603985056,14.66005080040168
C 4.1511000415109995,15.872959615649675 4.400166044001659,19.10508594719121 4.48318804483188,19.994092976549116
C 4.64923204649232,20.88113099809006 4.89829804898298,19.984247937464314 4.9813200498132,19.98227892964735
C 5.14736405147364,17.859688502963355 5.396430053964299,9.379171835312187 5.47945205479452,7.2585504164451535
C 5.64549605645496,5.833973260873846 5.8945620589456205,10.73877173292378 5.9775840597758405,11.434815996219506
C 6.143628061436281,13.201016008033553 6.392694063926942,16.785594738811113 6.47571606475716,17.855750487329434
C 6.6417600664176,19.282296650717704 6.89082606890826,19.63770256167917 6.97384806973848,19.994092976549116
C 7.139892071398921,19.57370980762794 7.3889580738895795,16.11022505759348 7.4719800747198,15.33345147380235
C 7.63802407638024,15.33345147380235 7.887090078870901,19.21731939275799 7.97011207970112,19.994092976549116
C 8.136156081361559,20.77086656034024 8.385222083852218,19.99409297654912 8.46824408468244,19.994092976549116
C 8.63428808634288,19.92320869513852 8.883354088833538,19.63967156949613 8.96637608966376,19.56878728808553
C 9.1324200913242,18.91999921239687 9.381486093814859,16.679268316695214 9.46450809464508,16.101364522417153
C 9.63055209630552,15.083387481048298 9.87961809879618,13.900998286963201 9.9626400996264,13.460925039872409
C 10.12868410128684,12.995254691161124 10.3777501037775,13.332939531769943 10.46077210460772,13.307342430149449
C 10.62681610626816,13.303404414515526 10.875882108758821,13.415637860082304 10.95890410958904,13.437296946068876
C 11.12494811124948,13.651918798117629 11.374014113740143,14.402110776379784 11.45703611457036,14.595073542441964
C 11.6230801162308,15.687872880855336 11.87214611872146,19.094256404197925 11.95516811955168,19.994092976549116
C 12.12121212121212,19.68003622974383 12.37027812370278,13.92462638076673 12.453300124533,12.710733061610254
C 12.61934412619344,11.627778762281686 12.868410128684102,13.3654281607498 12.95143212951432,13.496367180577709
C 13.117476131174762,12.863331167424738 13.366542133665419,9.676492015673302 13.44956413449564,8.912516982692422
C 13.615608136156082,9.349636718057772 13.864674138646741,14.91799082442357 13.94769613947696,16.119085592769803
C 14.113740141137399,17.14100064977258 14.362806143628061,15.223187036052535 14.44582814445828,15.04400732470908
C 14.61187214611872,13.287652351979839 14.860938148609378,7.15813101778014 14.943960149439599,5.580955756394353
C 15.110004151100041,5.601630338472444 15.3590701535907,13.570204973713748 15.44209215442092,15.168054817177625
C 15.608136156081358,15.502786146060998 15.85720215857202,8.852462244275111 15.94022415940224,7.589343729694608
C 16.10626816106268,7.161084529505583 16.355334163553337,11.763640301651998 16.43835616438356,12.598499616043476
C 16.604400166043998,13.395947781912696 16.85346616853466,12.411443873432178 16.93648816936488,12.374032724909918
C 17.102532171025317,12.209620572193673 17.351598173515978,11.739027703939987 17.434620174346197,11.612026699745998
C 17.60066417600664,11.649437848268258 17.849730178497296,12.43408746332723 17.93275217932752,12.598499616043476
C 18.098796180987957,12.828873530627916 18.347862183478615,12.92830842538445 18.430884184308837,12.994270187252644
C 18.596928185969276,13.991572646543405 18.84599418845994,17.650973674365485 18.92901618929016,18.582314371788055
C 19.0950601909506,19.320692303148444 19.34412619344126,17.617500541477153 19.427148194271478,17.42453777541497
C 19.593192195931916,17.06716285663654 19.842258198422574,16.602477011833734 19.925280199252796,16.43806485911749
C 20.091324200913235,16.140744678756374 20.3403902034039,15.77352472089314 20.42341220423412,15.640616693248273
C 20.58945620589456,14.890424714986118 20.838522208385218,12.554196940161853 20.921544209215437,11.936912989544568
C 21.087588210875875,12.334652568570696 21.33665421336654,17.012030637761633 21.41967621419676,18.027054167405044
C 21.585720215857197,18.37261503928171 21.834786218347855,14.679740878571288 21.917808219178077,14.010278220804537
C 22.08385222083852,12.992301179435684 22.332918223329177,12.267706302794025 22.4159402241594,11.91919191919192
C 22.581984225819838,12.057022466379195 22.831050228310502,14.350916573138795 22.914072229140718,14.83726150392817
C 23.080116230801156,15.29210230964617 23.329182233291814,14.679740878571288 23.412204234122036,14.648236753499912
C 23.57824823578248,15.507708665603401 23.827314238273136,19.10311693937425 23.91033623910336,19.994092976549116
C 24.076380240763797,20.88506901372398 24.32544624325446,19.99409297654912 24.408468244084677,19.994092976549116
C 24.574512245745115,19.994092976549116 24.823578248235776,19.99409297654912 24.906600249066,19.994092976549116
C 25.072644250726437,19.994092976549116 25.321710253217095,19.99409297654912 25.404732254047317,19.994092976549116
C 25.570776255707756,19.994092976549116 25.81984225819842,19.99409297654912 25.90286425902864,19.994092976549116
C 26.068908260689085,19.994092976549116 26.317974263179735,19.99409297654912 26.400996264009958,19.994092976549116
C 26.567040265670396,19.63081103431981 26.816106268161054,18.17768326540256 26.899128268991277,17.814401323173254
C 27.065172270651715,17.814401323173254 27.31423827314238,19.63081103431981 27.3972602739726,19.994092976549116
C 27.563304275633044,20.357374918778426 27.812370278123694,19.99409297654912 27.895392278953917,19.994092976549116
C 28.06143628061436,19.99803099218304 28.31050228310502,20.013783054718726 28.39352428393524,20.017721070352646
C 28.559568285595677,20.544430661389722 28.808634288086342,22.631578947368414 28.891656288916558,23.154350522771573
C 29.057700290577,23.15041250713765 29.306766293067653,20.520802567586195 29.389788293897876,19.994092976549116
C 29.555832295558318,19.12772953708626 29.80489829804898,18.295823734420225 29.887920298879198,17.956169885994445
C 30.053964300539636,17.531848701439344 30.3030303030303,17.532833205347824 30.386052303860517,17.4481658692185
C 30.55209630552096,17.164628743576113 30.801162308011616,16.453816921653175 30.88418430884184,16.254947132140114
C 31.05022831050228,16.34059897217792 31.299294312992938,17.67755527989446 31.382316313823157,17.96207690944533
C 31.548360315483595,18.585267883513495 31.79742631797426,19.65542363203182 31.88044831880448,19.994092976549116
C 32.046492320464914,20.332762321066415 32.29555832295558,19.99409297654912 32.3785803237858,19.994092976549116
C 32.54462432544624,19.48707346368165 32.79369032793689,17.458995412211785 32.87671232876712,16.95197589934432
C 33.04275633042756,16.841711461594503 33.29182233291822,18.93575127493256 33.37484433374844,19.33250635005021
C 33.54088833540888,19.839525862917675 33.78995433789955,19.8838285387993 33.872976338729764,19.994092976549116
C 34.0390203403902,19.157264654340675 34.28808634288085,15.25862917675783 34.37110834371108,14.311536416799575
C 34.53715234537152,14.103806092110185 34.78621834786218,18.00834859314391 34.8692403486924,18.74771102841278
C 35.03528435035284,19.694803788371036 35.28435035284351,19.786362651859726 35.36737235367372,19.994092976549116
C 35.53341635533416,20.201823301238505 35.78248235782481,19.99409297654912 35.86550435865504,19.994092976549116
C 36.031548360315476,19.994092976549116 36.28061436280614,19.99409297654912 36.36363636363636,19.994092976549116
C 36.5296803652968,19.89662708960955 36.77874636778747,19.50676354185126 36.86176836861768,19.40929765491169
C 37.02781237027812,18.905231653769665 37.276878372768785,17.37629708389942 37.359900373599004,16.96969696969697
C 37.52594437525945,16.164372772559908 37.7750103777501,14.976076555023923 37.85803237858032,14.577352472089315
C 38.02407638024076,15.081418473231338 38.27314238273143,19.09130289247248 38.35616438356164,19.994092976549116
C 38.52220838522208,20.89688306062575 38.771274387712744,19.99409297654912 38.85429638854296,19.994092976549116
C 39.02034039020341,19.994092976549116 39.26940639269406,19.99409297654912 39.35242839352428,19.994092976549116
C 39.518472395184716,19.994092976549116 39.76753839767539,19.99409297654912 39.8505603985056,19.994092976549116
C 40.01660440016604,19.994092976549116 40.2656704026567,19.99409297654912 40.34869240348692,19.994092976549116
C 40.51473640514737,19.994092976549116 40.763802407638025,19.99409297654912 40.846824408468244,19.994092976549116
C 41.01286841012868,19.994092976549116 41.26193441261935,19.99409297654912 41.34495641344956,19.994092976549116
C 41.51100041511,19.994092976549116 41.76006641760066,19.99409297654912 41.84308841843088,19.994092976549116
C 42.009132420091326,19.994092976549116 42.258198422581984,19.99409297654912 42.3412204234122,19.994092976549116
C 42.50726442507264,19.994092976549116 42.756330427563306,19.99409297654912 42.83935242839352,19.994092976549116
C 43.00539643005396,19.994092976549116 43.25446243254462,19.99409297654912 43.33748443337484,19.994092976549116
C 43.503528435035285,19.994092976549116 43.75259443752594,19.99409297654912 43.83561643835616,19.994092976549116
C 44.0016604400166,19.994092976549116 44.25072644250727,19.99409297654912 44.333748443337484,19.994092976549116
C 44.49979244499792,19.994092976549116 44.74885844748858,19.99409297654912 44.8318804483188,19.994092976549116
C 44.997924449979244,19.994092976549116 45.2469904524699,19.99409297654912 45.33001245330012,19.994092976549116
C 45.49605645496056,19.994092976549116 45.74512245745123,19.99409297654912 45.82814445828144,19.994092976549116
C 45.99418845994188,19.994092976549116 46.24325446243254,19.99409297654912 46.32627646326276,19.994092976549116
C 46.4923204649232,19.994092976549116 46.74138646741386,19.99409297654912 46.82440846824408,19.994092976549116
C 46.99045246990452,19.994092976549116 47.23951847239519,19.99409297654912 47.3225404732254,19.994092976549116
C 47.48858447488585,19.994092976549116 47.7376504773765,19.99409297654912 47.820672478206724,19.994092976549116
C 47.98671647986717,19.994092976549116 48.23578248235782,19.99409297654912 48.31880448318804,19.994092976549116
C 48.48484848484848,19.994092976549116 48.73391448733915,19.99409297654912 48.81693648816936,19.994092976549116
C 48.98298048982981,19.994092976549116 49.23204649232046,19.99409297654912 49.31506849315068,19.994092976549116
C 49.48111249481113,19.994092976549116 49.73017849730178,19.99409297654912 49.813200498132,19.994092976549116
C 49.979244499792436,19.994092976549116 50.22831050228311,19.99409297654912 50.31133250311332,19.994092976549116
C 50.477376504773765,19.994092976549116 50.726442507264416,19.99409297654912 50.80946450809464,19.994092976549116
C 50.97550850975509,19.994092976549116 51.224574512245745,19.99409297654912 51.307596513075964,19.994092976549116
C 51.473640514736395,19.994092976549116 51.72270651722707,19.99409297654912 51.80572851805728,19.994092976549116
C 51.971772519717724,19.994092976549116 52.220838522208375,19.99409297654912 52.3038605230386,19.994092976549116
C 52.46990452469905,19.994092976549116 52.718970527189704,19.99409297654912 52.80199252801992,19.994092976549116
C 52.968036529680354,19.994092976549116 53.217102532171026,19.99409297654912 53.30012453300124,19.994092976549116
C 53.46616853466168,19.994092976549116 53.715234537152334,19.99409297654912 53.79825653798256,19.994092976549116
C 53.964300539643006,19.994092976549116 54.21336654213366,19.99409297654912 54.29638854296388,19.994092976549116
C 54.46243254462431,19.994092976549116 54.711498547114985,19.99409297654912 54.7945205479452,19.994092976549116
C 54.96056454960564,19.994092976549116 55.20963055209629,19.99409297654912 55.29265255292652,19.994092976549116
C 55.458696554586965,19.994092976549116 55.70776255707762,19.99409297654912 55.79078455790784,19.994092976549116
C 55.95682855956827,19.994092976549116 56.205894562058944,19.99409297654912 56.28891656288916,19.994092976549116
C 56.4549605645496,19.994092976549116 56.70402656704025,19.99409297654912 56.78704856787048,19.994092976549116
C 56.953092569530924,19.994092976549116 57.20215857202158,19.99409297654912 57.2851805728518,19.994092976549116
C 57.45122457451223,19.994092976549116 57.7002905770029,19.99409297654912 57.78331257783312,19.994092976549116
C 57.94935657949356,19.994092976549116 58.19842258198421,19.99409297654912 58.28144458281444,19.994092976549116
C 58.44748858447488,19.994092976549116 58.69655458696554,19.99409297654912 58.77957658779576,19.994092976549116
C 58.94562058945619,19.994092976549116 59.19468659194686,19.99409297654912 59.27770859277708,19.994092976549116
C 59.44375259443752,19.994092976549116 59.69281859692817,19.99409297654912 59.7758405977584,19.994092976549116
C 59.94188459941884,19.994092976549116 60.1909506019095,19.99409297654912 60.27397260273972,19.994092976549116
C 60.44001660440015,19.994092976549116 60.68908260689082,19.99409297654912 60.77210460772104,19.994092976549116
C 60.93814860938148,19.994092976549116 61.18721461187213,19.99409297654912 61.27023661270236,19.994092976549116
C 61.4362806143628,18.8934176068679 61.68534661685346,14.49071612814303 61.76836861768368,13.390040758461812
C 61.93441261934411,13.390040758461813 62.18347862183478,18.893417606867903 62.266500622665,19.994092976549116
C 62.43254462432544,21.094768346230335 62.68161062681609,19.99409297654912 62.76463262764632,19.994092976549116
C 62.93067662930676,19.994092976549116 63.17974263179743,19.99409297654912 63.26276463262764,19.994092976549116
C 63.42880863428808,19.994092976549116 63.67787463677874,19.99409297654912 63.76089663760896,19.994092976549116
C 63.9269406392694,19.994092976549116 64.17600664176005,19.99409297654912 64.25902864259028,19.994092976549116
C 64.42507264425072,19.259653060822654 64.67413864674138,16.32189339791679 64.7571606475716,15.587453482190325
C 64.92320464923203,14.771299742059975 65.1722706517227,15.178884360170912 65.25529265255291,15.097170535767027
C 65.42133665421336,14.24360564711442 65.67040265670401,11.237915214523404 65.75342465753424,10.466064150274677
C 65.91946865919468,11.291078425581352 66.16853466168534,18.450390848051672 66.25155666251555,20.047256187607065
C 66.41760066417599,20.659617618681946 66.66666666666666,15.12473664520448 66.74968866749687,14.140232736723965
C 66.91573266915732,14.13137220154764 67.16479867164797,19.018449603244925 67.2478206724782,19.994092976549116
C 67.41386467413864,20.96973634985331 67.6629306766293,19.99409297654912 67.74595267745951,19.994092976549116
C 67.91199667911995,19.994092976549116 68.16106268161062,19.99409297654912 68.24408468244083,19.994092976549116
C 68.41012868410128,19.994092976549116 68.65919468659193,19.99409297654912 68.74221668742216,19.994092976549116
C 68.9082606890826,19.994092976549116 69.15732669157326,19.99409297654912 69.24034869240347,19.994092976549116
C 69.40639269406391,19.994092976549116 69.65545869655458,19.99409297654912 69.73848069738479,19.994092976549116
C 69.90452469904524,19.994092976549116 70.15359070153589,19.99409297654912 70.23661270236612,19.994092976549116
C 70.40265670402655,19.994092976549116 70.65172270651722,19.99409297654912 70.73474470734743,19.994092976549116
C 70.90078870900787,19.994092976549116 71.14985471149853,19.99409297654912 71.23287671232875,19.994092976549116
C 71.3989207139892,19.994092976549116 71.64798671647985,19.99409297654912 71.73100871731008,19.994092976549116
C 71.89705271897051,19.994092976549116 72.14611872146118,19.99409297654912 72.22914072229139,19.994092976549116
C 72.39518472395183,19.994092976549116 72.64425072644251,19.99409297654912 72.72727272727272,19.994092976549116
C 72.89331672893316,19.279343138992264 73.14238273142381,16.42034378876484 73.22540473225403,15.705593951207986
C 73.39144873391446,15.052867859885403 73.64051473640512,16.01571268237935 73.72353673723535,16.07773642861362
C 73.88958073889579,16.792486266170474 74.13864674138647,19.34136688522653 74.22166874221668,19.994092976549116
C 74.38771274387712,20.6468190678717 74.63677874636777,19.99409297654912 74.719800747198,19.994092976549116
C 74.88584474885842,19.994092976549116 75.13491075134908,19.99409297654912 75.21793275217931,19.994092976549116
C 75.38397675383975,19.994092976549116 75.63304275633043,19.99409297654912 75.71606475716064,19.994092976549116
C 75.88210875882108,19.994092976549116 76.13117476131173,19.99409297654912 76.21419676214195,19.994092976549116
C 76.38024076380238,19.994092976549116 76.62930676629304,19.99409297654912 76.71232876712327,19.994092976549116
C 76.8783727687837,19.994092976549116 77.12743877127438,19.99409297654912 77.2104607721046,19.994092976549116
C 77.37650477376503,19.994092976549116 77.62557077625569,19.99409297654912 77.70859277708591,19.994092976549116
C 77.87463677874634,19.994092976549116 78.123702781237,19.99409297654912 78.20672478206723,19.994092976549116
C 78.37276878372766,18.87668104042373 78.62183478621834,14.407033295922185 78.70485678704856,13.289621359796799
C 78.870900788709,12.24309370508201 79.11996679119964,13.644042766849786 79.20298879202987,13.714927048260382
C 79.3690327936903,14.83233898438577 79.61809879618097,18.94756532183433 79.7011207970112,19.994092976549116
C 79.86716479867164,21.040620631263906 80.1162308011623,19.99409297654912 80.19925280199251,19.994092976549116
C 80.36529680365295,19.994092976549116 80.6143628061436,19.99409297654912 80.69738480697383,19.994092976549116
C 80.86342880863425,19.994092976549116 81.11249481112493,19.99409297654912 81.19551681195516,19.994092976549116
C 81.3615608136156,19.994092976549116 81.61062681610626,19.99409297654912 81.69364881693647,19.994092976549116
C 81.85969281859691,19.994092976549116 82.10875882108756,19.99409297654912 82.19178082191779,19.994092976549116
C 82.35782482357821,19.033217161872134 82.60689082606889,15.189713903164197 82.68991282689912,14.228838088487212
C 82.85595682855956,14.228838088487214 83.10502283105022,19.033217161872134 83.18804483188043,19.994092976549116
C 83.35408883354087,20.9549687912261 83.60315483603152,19.99409297654912 83.68617683686175,19.994092976549116
C 83.85222083852217,19.994092976549116 84.10128684101285,19.99409297654912 84.18430884184308,19.994092976549116
C 84.35035284350352,19.994092976549116 84.59941884599418,19.99409297654912 84.68244084682439,19.994092976549116
C 84.84848484848483,19.994092976549116 85.09755085097548,19.99409297654912 85.1805728518057,19.994092976549116
C 85.34661685346613,19.9950774804576 85.59568285595681,19.99901549609152 85.67870485678704,20.0
C 85.84474885844747,20.0 86.09381486093811,19.9950774804576 86.17683686176835,19.994092976549116
C 86.34288086342877,19.993108472640635 86.59194686591945,19.99409297654912 86.67496886674967,19.994092976549116
C 86.84101286841009,19.992123968732155 87.09007887090077,19.984247937464314 87.173100871731,19.98227892964735
C 87.33914487339143,19.98227892964735 87.58821087588207,19.992123968732155 87.67123287671231,19.994092976549116
C 87.83727687837275,19.996061984366076 88.08634288086341,19.99409297654912 88.16936488169364,19.994092976549116
C 88.33540888335408,19.946836788942054 88.58447488584476,19.75781203851379 88.66749688667495,19.710555850906726
C 88.83354088833539,19.710555850906726 89.08260689082603,19.946836788942054 89.16562889165627,19.994092976549116
C 89.3316728933167,20.04134916415618 89.58073889580737,19.99409297654912 89.6637608966376,19.994092976549116
C 89.82980489829804,19.994092976549116 90.07887090078871,19.99409297654912 90.16189290161891,19.994092976549116
C 90.32793690327935,19.992123968732155 90.57700290576999,19.984247937464314 90.66002490660023,19.98227892964735
C 90.82606890826067,19.98227892964735 91.07513491075133,19.992123968732155 91.15815691158156,19.994092976549116
C 91.324200913242,19.996061984366076 91.57326691573267,19.99409297654912 91.65628891656287,19.994092976549116
C 91.82233291822331,20.075806800953 92.07139892071395,20.402662098568527 92.15442092154419,20.48437592297241
C 92.32046492320463,20.67536968121763 92.56953092569529,21.0307755921791 92.65255292652552,21.140055526020436
C 92.81859692818595,21.005178490558606 93.06766293067663,19.919270679504596 93.15068493150683,19.67511371020143
C 93.31672893316727,19.48411995195621 93.5657949356579,19.94092976549117 93.64881693648815,19.994092976549116
C 93.81486093814858,20.047256187607065 94.06392694063925,19.99409297654912 94.14694894146947,19.994092976549116
C 94.31299294312991,19.852324413727924 94.56205894562059,19.285250162443145 94.64508094645079,19.14348159962195
C 94.81112494811123,19.14348159962195 95.06019095060189,19.852324413727924 95.14321295143212,19.994092976549116
C 95.30925695309254,20.069899777502116 95.55832295558321,19.664284167208145 95.64134495641343,19.598322405339946
C 95.80738895807387,19.458522850335715 96.05645496056455,19.22913343965976 96.13947696139475,19.155295646523715
C 96.30552096305519,19.22125740839191 96.55458696554585,19.854293421544885 96.63760896637608,19.994092976549116
C 96.8036529680365,20.13389253155335 97.05271897052717,19.99409297654912 97.1357409713574,19.994092976549116
C 97.30178497301783,19.994092976549116 97.55085097550851,19.99409297654912 97.63387297633871,19.994092976549116
C 97.79991697799915,19.994092976549116 98.04898298048981,19.99409297654912 98.13200498132004,19.994092976549116
C 98.29804898298046,19.994092976549116 98.54711498547113,19.99409297654912 98.63013698630135,19.994092976549116
C 98.79618098796179,19.994092976549116 99.04524699045247,19.99409297654912 99.12826899128267,19.994092976549116
C 99.2943129929431,19.225195424025834 99.54337899543377,16.1496052139327 99.626400996264,15.380707661409415
C 99.79244499792442,14.732904089629235 100.04151100041508,15.986177565124933 100.12453300124531,16.107271545868034
C 100.29057700290575,16.13089963967157 100.53964300539643,15.61994211117018 100.62266500622663,15.52247622423061
C 100.78870900788706,14.936696398684704 101.03777501037773,13.080906531198929 101.12079701120796,12.592592592592593
C 101.28684101286838,12.244078208990489 101.53590701535904,13.29159036761376 101.61892901618927,13.431389922617994
C 101.78497301784971,13.983696615275562 102.03403902034039,15.493925610884679 102.1170610211706,15.906432748538013
C 102.28310502283104,17.000216590859868 102.53217102532169,19.3128162718806 102.61519302615191,19.994092976549116
C 102.78123702781234,20.029535117254415 103.030303030303,16.76492015673302 103.11332503113323,16.119085592769803
C 103.27936903279367,15.539212790674776 103.52843503528435,16.448894402110778 103.61145703611456,16.51485616397897
C 103.77750103777502,15.932029850158502 104.02656704026565,13.270915785535669 104.10958904109587,12.622127709847009
C 104.2756330427563,12.051115442928308 104.52469904524696,13.011006753696812 104.60772104607719,13.088782562466774
C 104.77376504773763,13.662748341110914 105.0228310502283,15.569732411837672 105.10585305105852,16.065922381711854
C 105.27189705271898,15.994053596392774 105.5209630552096,13.225628605745568 105.60398505603983,12.657569850552308
C 105.77002905770026,11.655344871719143 106.01909506019092,10.48673873235277 106.10211706102115,10.05257250871286
C 106.26816106268159,10.183511528540768 106.51722706517226,12.878098726051944 106.60024906600248,13.44320396951976
C 106.76629306766294,13.810423927382994 107.01535907015356,12.453777541496839 107.09838107098379,12.255892255892256
C 107.26442507264422,12.572902514422983 107.51349107513488,14.830369976568809 107.5965130759651,15.345265520704118
C 107.76255707762554,15.274381239293518 108.01162308011622,12.416366392974581 108.09464508094644,11.830586567428673
C 108.2606890826069,11.404296375056608 108.50975508509752,12.62803473329789 108.59277708592775,12.787524366471734
C 108.75882108758817,13.169511882962174 109.00788709007884,13.900013783054717 109.09090909090907,14.122511666371315
C 109.2569530925695,14.10971311556107 109.50601909506018,12.946029495737095 109.5890410958904,12.710733061610254
C 109.75508509755086,13.072045996022602 110.00415110004148,15.693779904306218 110.08717310087171,16.290389272845413
C 110.25321710253216,16.879122610116763 110.50228310502281,16.251009116506193 110.58530510585304,16.243133085238348
C 110.75134910751348,15.79026128733731 111.00041511000416,14.018154252072383 111.08343711083435,13.573158485439189
C 111.24948111249479,13.549530391635656 111.49854711498544,15.679996849587491 111.58156911581567,16.101364522417153
C 111.74761311747612,16.282513241577565 111.99667911996677,14.900269754070926 112.079701120797,14.66005080040168
C 112.24574512245744,14.410971311556109 112.49481112494811,14.615748124520055 112.57783312577831,14.60688758934373
C 112.74387712743875,14.504499182861757 112.9929431299294,14.139248232815483 113.07596513075963,14.045720361509835
C 113.24200913242008,13.802547896115145 113.49107513491073,13.297497391064644 113.57409713574096,13.147852796975604
C 113.7401411374014,13.150806308701045 113.98920713989207,13.910843326048003 114.07222914072227,14.063441431862485
C 114.23827314238271,15.03022426999035 114.48733914487336,18.13436509342942 114.57036114570359,18.948549825742806
C 114.73640514736404,19.061767775218065 114.98547114985469,15.443715911552168 115.06849315068492,14.74274912871404
C 115.23453715234535,13.974836080099239 115.48360315483603,14.408017799830665 115.56662515566623,14.34107153405399
C 115.73266915732667,14.768346230334535 115.98173515981732,16.812176344340088 116.06475716064755,17.306397306397304
C 116.230801162308,18.24856754681316 116.47986716479865,19.546143698190484 116.56288916562887,19.994092976549116
C 116.72893316728931,20.44204225490775 116.97799916977999,19.99409297654912 117.06102117061019,19.994092976549116
C 117.22706517227063,19.994092976549116 117.47613117476129,19.99409297654912 117.55915317559152,19.994092976549116
C 117.72519717725197,19.421111701813455 117.97426317974261,17.129186602870814 118.05728518057283,16.556205328135153
C 118.22332918223327,16.565065863311478 118.47239518472395,19.46541437769508 118.55541718555415,20.047256187607065
C 118.72146118721459,20.620237462342725 118.97052718970525,20.002953511725444 119.05354919053548,19.994092976549116
C 119.21959319219593,19.52350010829543 119.46865919468657,17.685431311162308 119.55168119551679,17.223698978084943
C 119.71772519717723,16.637919152539038 119.96679119966791,16.603461515742215 120.04981320049811,16.479414023273673
C 120.21585720215855,16.941146356351034 120.46492320464921,19.40831315100321 120.54794520547944,19.994092976549116
C 120.71398920713989,20.57987280209502 120.96305520963053,19.99409297654912 121.04607721046075,19.994092976549116
C 121.21212121212119,19.994092976549116 121.46118721461187,19.99409297654912 121.54420921544207,19.994092976549116
C 121.7102532171025,18.937720282749524 121.95931921959317,14.712229507551143 122.0423412204234,13.655856813751551
C 122.20838522208385,12.62606572548093 122.45745122457448,13.788764841396421 122.54047322540471,13.815346446925394
C 122.70651722706515,14.870734636816508 122.95558322955583,18.959379368736094 123.03860523038603,19.98818595309823
C 123.20464923204646,19.96849587492862 123.45371523453713,14.745702640439482 123.53673723536735,13.697205977907734
C 123.7027812370278,12.878098726051944 123.95184723951844,14.844153031287533 124.03486924034867,15.073542441963495
C 124.20091324200911,15.185775887530275 124.44997924449979,14.487762616417585 124.53300124533,14.370606651308405
C 124.69904524699042,14.521235749305923 124.94811124948109,15.70953196684191 125.03113325031131,15.97731702994861
C 125.19717725197177,16.914564750822063 125.4462432544624,19.324630318782365 125.52926525529263,19.994092976549116
C 125.69530925695307,19.2370094709276 125.94437525944375,12.861362159607774 126.02739726027396,11.434815996219506
C 126.19344126193438,11.451552562663673 126.44250726442505,18.651229645381694 126.52552926525527,20.09451237521413
C 126.69157326691573,21.5210585386024 126.94063926940636,20.010829542993285 127.02366127023659,19.994092976549116
C 127.18970527189703,19.97735641010495 127.4387712743877,19.99409297654912 127.52179327521792,19.994092976549116
C 127.68783727687834,19.994092976549116 127.936903279369,19.99409297654912 128.01992528019923,19.994092976549116
C 128.18596928185968,19.994092976549116 128.43503528435033,19.99409297654912 128.51805728518056,19.994092976549116
C 128.684101286841,19.994092976549116 128.93316728933166,19.99409297654912 129.0161892901619,19.994092976549116
C 129.1822332918223,19.994092976549116 129.43129929431302,19.99409297654912 129.51432129514322,19.994092976549116
C 129.68036529680367,19.994092976549116 129.9294312992943,19.99409297654912 130.01245330012452,19.994092976549116
C 130.17849730178497,19.994092976549116 130.42756330427562,19.99409297654912 130.51058530510585,19.994092976549116
C 130.67662930676627,19.23405595920216 130.92569530925698,16.193907889814323 131.00871731008718,15.433870872467365
C 131.17476131174763,14.437552917085084 131.42382731423825,14.252466182290744 131.50684931506848,14.01618524425542
C 131.67289331672893,13.76907476322681 131.92195931921958,13.962037529288992 132.0049813200498,13.951207986295705
C 132.17102532171023,14.216039537676963 132.42009132420094,15.329513458168428 132.50311332503114,15.605174552542975
C 132.6691573266916,15.55791836493591 132.9182233291822,13.990588142634929 133.00124533001244,13.667670860653319
C 133.1672893316729,12.551243428436413 133.41635533416354,9.700120109476837 133.49937733499377,8.906609959241539
C 133.6654213366542,8.776655443322111 133.9144873391449,12.224388130820879 133.9975093399751,12.887943765136749
C 134.16355334163555,13.05826294130388 134.41261934412617,10.421761474393055 134.4956413449564,9.928525016244315
C 134.66168534661685,9.662708960954575 134.9107513491075,11.06562703053931 134.99377334993773,11.29304743339831
C 135.15981735159815,12.910587355031799 135.40888335408886,18.243645027270755 135.49190535491906,19.633764546045246
C 135.6579493565795,21.083938803237046 135.90701535907013,19.93403823813181 135.99003735990036,19.994092976549116
C 136.1560813615608,19.066690294760473 136.40514736405146,15.056805875519325 136.48816936488168,14.069348455313369
C 136.6542133665421,12.830842538444882 136.90327936903282,12.81410597200071 136.986301369863,12.563057475338178
C 137.15234537152347,13.550514895544138 137.4014113740141,18.75558705968063 137.48443337484431,19.994092976549116
C 137.65047737650477,21.16565262764093 137.89954337899542,19.65936164766574 137.98256537982564,19.592415381889065
C 138.14860938148607,17.424537775414965 138.39767538397678,9.087758678401952 138.48069738480697,6.986827337704531
C 138.64674138646743,5.9964164057731315 138.89580738895805,12.539429381534646 138.97882938978827,13.649949790300669
C 139.14487339144873,12.787524366471738 139.39393939393938,3.785220627325892 139.4769613947696,1.812274794730937
C 139.64300539643003,1.4883730088408467 139.89207139892073,10.057495028255264 139.97509339975093,11.706539074960128
C 140.14113740141138,14.736842105263158 140.390203403902,18.61283399295095 140.47322540473223,19.994092976549116
C 140.63926940639269,21.37535196014728 140.88833540888334,19.99409297654912 140.97135740971356,19.994092976549116
C 141.137401411374,19.14249709571347 141.3864674138647,15.736113572370881 141.4694894146949,14.884517691535235
C 141.63553341635534,13.755291708508082 141.88459941884597,13.496367180577709 141.9676214196762,13.218737078386201
C 142.13366542133664,13.06318546084628 142.3827314238273,13.82912950164412 142.46575342465752,13.951207986295705
C 142.63179742631795,13.981727607458602 142.88086342880865,13.493413668852265 142.96388542963885,13.401854805363579
C 143.1299294312993,13.862602634532463 143.37899543378995,16.163388268651424 143.46201743462018,16.715694961308994
C 143.62806143628063,17.811447811447806 143.87712743877125,19.432925748715224 143.96014943960148,19.976371906196466
C 144.1261934412619,19.133636560537145 144.3752594437526,13.04546439049363 144.4582814445828,11.659282887353063
C 144.62432544624326,10.35481520861638 144.8733914487339,12.067852009372475 144.95641344956414,12.14956583377636
C 145.1224574512246,12.43704097505267 145.3715234537152,13.178372418138501 145.45454545454544,13.384133735010929
C 145.62058945620586,13.424498395258631 145.86965545869657,12.557150451887296 145.95267745952677,12.391753795262568
C 146.11872146118722,12.630988245023334 146.36778746367787,14.41490932719003 146.4508094645081,14.819540433575522
C 146.61685346616855,15.52346072813909 146.86591946865917,16.315986374465904 146.9489414694894,16.615275562643983
C 147.11498547114982,16.54931380077579 147.36405147364053,14.789020812412625 147.44707347447073,14.423769862366354
C 147.61311747613118,13.82420698210172 147.86218347862183,13.252210211274539 147.94520547945206,13.017898281056176
C 148.1112494811125,13.583003524523994 148.36031548360313,17.014984149487073 148.44333748443336,17.814401323173254
C 148.60938148609378,17.18136531002028 148.8584474885845,10.652135388977493 148.9414694894147,9.219682202138342
C 149.10751349107514,9.58296414436765 149.3565794935658,18.198357847480654 149.43960149439602,19.994092976549116
C 149.60564549605647,21.789828105617577 149.8547114985471,19.99409297654912 149.93773349937732,19.994092976549116
C 150.10377750103774,19.21141236930711 150.35284350352845,16.08068994033906 150.43586550435865,15.298009333097053
C 150.6019095060191,13.78679583357946 150.85097550850975,11.655344871719143 150.93399750933997,10.926811979443558
C 151.10004151100043,9.891113867722055 151.34910751349105,9.390985882213952 151.43212951432128,9.083820662768032
C 151.5981735159817,9.947230590505443 151.8472395184724,14.936696398684703 151.9302615193026,16.107271545868034
C 152.09630552096306,17.460964420028745 152.3453715234537,17.02286018075492 152.42839352428393,17.205977907732294
C 152.5944375259444,16.841711461594503 152.843503528435,14.469057042156457 152.92652552926523,13.92167286904129
C 153.09256953092566,13.455018016421526 153.34163553341637,14.3253194715183 153.42465753424656,14.406048792013705
C 153.59070153590702,14.30267588162325 153.83976753839767,13.485537637584422 153.9227895392279,13.301435406698564
C 154.08883354088834,14.23277610412113 154.33789954337897,18.878650048240694 154.4209215442092,19.994092976549116
C 154.58696554586962,21.10953590485754 154.83603154836032,19.99409297654912 154.91905354919052,19.994092976549116
C 155.08509755085097,19.036170673597574 155.33416355334163,15.204481461791403 155.41718555417185,14.24655915883986
C 155.5832295558323,13.071061492114126 155.83229555832293,13.158682339968891 155.91531755915315,12.941106976194696
C 156.08136156081358,12.89188178077067 156.33042756330428,13.782857817945539 156.41344956413448,13.951207986295705
C 156.57949356579493,14.793943331955026 156.82855956828558,17.323133872841474 156.9115815691158,17.99751905015063
C 157.07762557077626,17.5190501506291 157.32669157326688,12.233248665997207 157.4097135740971,11.08039458916652
C 157.57575757575754,10.088014649418161 157.82482357824824,11.882765274578139 157.90784557907844,12.043239411660464
C 158.0738895807389,13.079922027290449 158.32295558322954,16.424281804398763 158.40597758405977,17.300490282946424
C 158.57202158572022,17.39401815425207 158.82108758821087,13.387087246736371 158.9041095890411,12.604406639494359
C 159.07015359070152,11.992045208419476 159.3192195931922,13.456002520330005 159.4022415940224,13.626321696497135
C 159.56828559568285,14.19339594778191 159.8173515981735,15.610097072085376 159.90037359900373,16.006852147203023
C 160.06641760066418,16.270699194675803 160.31548360315483,15.342312008978674 160.39850560398506,15.209403981333805
C 160.56454960564548,15.656368755783959 160.81361560813616,18.10876799180893 160.89663760896636,18.68864079390395
C 161.0626816106268,18.183590288853445 161.31174761311746,13.264024258176304 161.3947696139477,12.179100951030776
C 161.56081361560814,11.539173410518439 161.8098796180988,14.404079784196744 161.89290161892902,14.849075550829937
C 162.05894562058944,16.14862071002422 162.30801162308012,19.121822513635376 162.39103362391032,19.976371906196466
C 162.55707762557077,20.833874810482996 162.80614362806142,19.99113946482368 162.88916562889165,19.994092976549116
C 163.0552096305521,19.99704648827456 163.30427563304275,19.99409297654912 163.38729763387298,19.994092976549116
C 163.5533416355334,19.994092976549116 163.80240763802408,19.99409297654912 163.88542963885428,19.994092976549116
C 164.05147364051473,19.994092976549116 164.30053964300538,19.99409297654912 164.3835616438356,19.994092976549116
C 164.54960564549606,19.13462106444563 164.7986716479867,15.69673341603166 164.88169364881693,14.83726150392817
C 165.04773765047736,13.485537637584422 165.29680365296804,12.376001732726882 165.37982565379824,11.88374977848662
C 165.5458696554587,12.171224919762933 165.79493565794934,15.782385256069462 165.87795765877956,16.562112351586034
C 166.04400166044002,16.983480024415694 166.29306766293067,14.770315238151497 166.3760896637609,14.411955815464589
C 166.54213366542132,14.98395258629177 166.791199667912,19.06373678303503 166.8742216687422,19.994092976549116
C 167.04026567040265,20.924449170063202 167.2893316728933,19.99409297654912 167.37235367372352,19.994092976549116
C 167.53839767538398,19.994092976549116 167.78746367787463,19.99409297654912 167.87048567870485,19.994092976549116
C 168.03652968036528,19.994092976549116 168.28559568285596,19.99409297654912 168.36861768368615,19.994092976549116
C 168.5346616853466,19.663299663299664 168.78372768783726,18.340126410301853 168.86674968866748,18.009333097052394
C 169.03279369032794,17.317226849390593 169.28185969281859,16.202768424990648 169.3648816936488,15.841455490578298
C 169.53092569530924,15.70854746293343 169.77999169779991,16.983480024415694 169.8630136986301,17.211884931183175
C 170.02905770029056,16.808238328706164 170.27812370278122,14.05162738496072 170.36114570361144,13.419575875716227
C 170.5271897052719,13.821253470376277 170.77625570776254,18.588221395238936 170.85927770859277,19.62195049914348
C 171.02532171025322,20.717703349282296 171.27438771274387,19.932069230314845 171.35740971357407,19.994092976549116
C 171.52345371523452,20.05611672278339 171.7725197177252,19.99409297654912 171.8555417185554,19.994092976549116
C 172.02158572021585,19.976371906196466 172.2706517227065,19.905487624785867 172.35367372353673,19.88776655443322
C 172.51971772519718,19.33742886959261 172.76878372768783,17.224683481993427 172.85180572851803,16.692066867505464
C 173.01784973017848,16.084627955972987 173.26691573266916,16.317955382282864 173.34993773349936,16.243133085238348
C 173.5159817351598,16.793470770078958 173.76504773765046,19.36893299466399 173.8480697384807,19.994092976549116
C 174.01411374014114,20.61925295843424 174.26317974263182,19.99409297654912 174.34620174346202,19.994092976549116
C 174.51224574512244,19.994092976549116 174.76131174761312,19.99409297654912 174.84433374844332,19.994092976549116
C 175.01037775010377,19.994092976549116 175.25944375259442,19.99409297654912 175.34246575342465,19.994092976549116
C 175.5085097550851,18.922952724122315 175.75757575757578,14.638391714415105 175.84059775840598,13.567251461988304
C 176.0066417600664,12.573887018331463 176.25570776255708,13.956130505838109 176.33872976338728,14.03390631460807
C 176.50477376504773,14.545848347017937 176.75383976753838,16.204737432807608 176.8368617683686,16.638903656447514
C 177.00290577002906,16.60739953137614 177.25197177251974,14.310551912891093 177.33499377334994,13.84488156417981
C 177.50103777501036,13.560359934628941 177.75010377750104,14.750625159981887 177.83312577833124,14.9317738791423
C 177.9991697799917,15.931045346250023 178.24823578248234,19.02238761887885 178.33125778331257,19.840510366826155
C 178.49730178497302,20.5759347864611 178.7463677874637,19.42701872526434 178.8293897882939,19.344320396951975
C 178.99543378995432,19.36991749857247 179.244499792445,19.885797546616264 179.3275217932752,19.994092976549116
C 179.49356579493565,19.08736487683856 179.7426317974263,14.918975328332055 179.82565379825652,13.903951798688642
C 179.99169779991698,13.761198731958968 180.24076380240766,18.26530411325733 180.32378580323785,19.137574576171065
C 180.48982980489828,19.81195975348022 180.73889580738896,18.148148148148145 180.82191780821915,17.950262862543564
C 180.9879618098796,18.07627936282907 181.23702781237026,19.56977179199401 181.32004981320048,19.8936735778841
C 181.48609381486094,20.234311930218357 181.73515981735162,19.97735641010495 181.8181818181818,19.994092976549116
C 181.90120381901204,20.010829542993285 181.81818181818184,19.99409297654912 181.8181818181818,19.994092976549116
" ></path>
  </svg>
