  <svg id="graph" xmlns="http://www.w3.org/2000/svg" class='w-full' width='200' height='30' viewbox="0 0 300.0 20">
  <path fill="none" class='stroke-2 stroke-amber-900 dark:stroke-amber-300' d="M 0.49813200498132,19.994092976549116
C 0.58115400581154,19.994092976549116 0.91324200913242,19.99409297654912 0.99626400996264,19.994092976549116
C 1.16230801162308,19.994092976549116 1.4113740141137399,19.99409297654912 1.49439601494396,19.994092976549116
C 1.6604400166044,19.994092976549116 1.90950601909506,19.99409297654912 1.99252801992528,19.994092976549116
C 2.15857202158572,19.994092976549116 2.4076380240763804,19.99409297654912 2.4906600249066,19.994092976549116
C 2.65670402656704,19.994092976549116 2.9057700290577,19.99409297654912 2.98879202988792,19.994092976549116
C 3.15483603154836,18.98792998208203 3.4039020340390196,14.963278004213677 3.4869240348692396,13.95711500974659
C 3.652968036529679,13.888199736152956 3.90203403902034,18.64335361411385 3.98505603985056,19.5806013349873
C 4.1511000415109995,19.432925748715224 4.400166044001659,14.15598479925965 4.48318804483188,13.071061492114124
C 4.64923204649232,11.724260145312776 4.89829804898298,11.761671293835036 4.9813200498132,11.49979325417922
C 5.14736405147364,12.653631834918384 5.396430053964299,18.578376356154134 5.47945205479452,19.994092976549116
C 5.64549605645496,20.02461259771201 5.8945620589456205,13.068107980388682 5.9775840597758405,11.682910981156596
C 6.143628061436281,10.667887451513183 6.392694063926942,13.533778329099968 6.47571606475716,13.903951798688642
C 6.6417600664176,14.762439206883654 6.89082606890826,16.345521491720323 6.97384806973848,16.83383543032666
C 7.139892071398921,16.89192116092701 7.3889580738895795,14.68269439029673 7.4719800747198,14.252466182290744
C 7.63802407638024,13.603678106602084 7.887090078870901,13.15966684387737 7.97011207970112,12.941106976194696
C 8.136156081361559,13.21479906275228 8.385222083852218,15.402366747395986 8.46824408468244,15.894618701636245
C 8.63428808634288,16.194892393722803 8.883354088833538,14.934727390867742 8.96637608966376,14.74274912871404
C 9.1324200913242,14.35780810049816 9.381486093814859,13.777935298403134 9.46450809464508,13.584972532340954
C 9.63055209630552,13.32900151613602 9.87961809879618,13.269931281627187 9.9626400996264,13.206923031484434
C 10.12868410128684,14.273140764368833 10.3777501037775,18.853052946620195 10.46077210460772,19.98227892964735
C 10.62681610626816,21.01305452182645 10.875882108758821,19.490026975407094 10.95890410958904,19.39157658455904
C 11.12494811124948,16.81906787169945 11.374014113740143,7.0212849745013495 11.45703611457036,4.547226652489812
C 11.6230801162308,2.4925669954909737 11.87214611872146,6.64421997755331 11.95516811955168,7.063618642566011
C 12.12121212121212,8.952881642940122 12.37027812370278,14.41294031937307 12.453300124533,15.88280465473448
C 12.61934412619344,17.487546025557723 12.868410128684102,16.557189832043637 12.95143212951432,16.692066867505464
C 13.117476131174762,16.498119597534803 13.366542133665419,15.047945340343 13.44956413449564,14.71912103491051
C 13.615608136156082,15.26945871975112 13.864674138646741,19.114930986276015 13.94769613947696,19.994092976549116
C 14.113740141137399,20.873254966822216 14.362806143628061,19.99409297654912 14.44582814445828,19.994092976549116
C 14.61187214611872,19.994092976549116 14.860938148609378,19.99409297654912 14.943960149439599,19.994092976549116
C 15.110004151100041,19.994092976549116 15.3590701535907,19.99409297654912 15.44209215442092,19.994092976549116
C 15.608136156081358,18.629570559395123 15.85720215857202,13.171480890779135 15.94022415940224,11.80695847362514
C 16.10626816106268,11.806958473625139 16.355334163553337,18.629570559395123 16.43835616438356,19.994092976549116
C 16.604400166043998,21.358615393703115 16.85346616853466,19.99409297654912 16.93648816936488,19.994092976549116
C 17.102532171025317,19.145450607438914 17.351598173515978,15.750881130998089 17.434620174346197,14.902238761887885
C 17.60066417600664,14.902238761887885 17.849730178497296,19.14545060743891 17.93275217932752,19.994092976549116
C 18.098796180987957,20.84273534565932 18.347862183478615,19.99409297654912 18.430884184308837,19.994092976549116
C 18.596928185969276,19.994092976549116 18.84599418845994,19.99409297654912 18.92901618929016,19.994092976549116
C 19.0950601909506,19.994092976549116 19.34412619344126,19.99409297654912 19.427148194271478,19.994092976549116
C 19.593192195931916,19.994092976549116 19.842258198422574,19.99409297654912 19.925280199252796,19.994092976549116
C 20.091324200913235,18.939689290566484 20.3403902034039,14.722074546635952 20.42341220423412,13.667670860653319
C 20.58945620589456,11.359009195266509 20.838522208385218,7.396380963632427 20.921544209215437,6.142122984228248
C 21.087588210875875,6.942524661822908 21.33665421336654,16.41542126922244 21.41967621419676,18.470080926221275
C 21.585720215857197,18.982022958631145 21.834786218347855,10.75649280327643 21.917808219178077,9.21377517868746
C 22.08385222083852,9.467777187075432 22.332918223329177,18.197373343572174 22.4159402241594,19.994092976549116
C 22.581984225819838,20.37706499694804 22.831050228310502,12.925354913659007 22.914072229140718,11.511607301080986
C 23.080116230801156,10.314450548368677 23.329182233291814,12.594561600409556 23.412204234122036,12.811152460275268
C 23.57824823578248,14.22490007285329 23.827314238273136,18.796936223836813 23.91033623910336,19.994092976549116
C 24.076380240763797,20.412507137653336 24.32544624325446,16.100380018508673 24.408468244084677,15.321637426900585
C 24.574512245745115,14.50843719849568 24.823578248235776,15.149349242916495 24.906600249066,15.114891606119677
C 25.072644250726437,15.893634197727765 25.321710253217095,19.18089274814421 25.404732254047317,19.994092976549116
C 25.570776255707756,19.1917222911375 25.81984225819842,11.916238407466478 25.90286425902864,10.30066749364995
C 26.068908260689085,10.300667493649948 26.317974263179735,18.37852206273259 26.400996264009958,19.994092976549116
C 26.567040265670396,21.609663890365642 26.816106268161054,19.99409297654912 26.899128268991277,19.994092976549116
C 27.065172270651715,18.656152164924094 27.31423827314238,13.304388918424005 27.3972602739726,11.966448106798985
C 27.563304275633044,10.627522791265484 27.812370278123694,11.961525587256581 27.895392278953917,11.960541083348101
C 28.06143628061436,12.36123417409967 28.31050228310502,13.968929056648355 28.39352428393524,14.370606651308405
C 28.559568285595677,15.709531966841906 28.808634288086342,19.056845255675665 28.891656288916558,19.994092976549116
C 29.057700290577,20.931340697422566 29.306766293067653,19.99409297654912 29.389788293897876,19.994092976549116
C 29.555832295558318,19.994092976549116 29.80489829804898,19.99409297654912 29.887920298879198,19.994092976549116
C 30.053964300539636,19.67117569456751 30.3030303030303,18.37950656664107 30.386052303860517,18.05658928465946
C 30.55209630552096,17.607655502392344 30.801162308011616,17.426506783231925 30.88418430884184,17.300490282946424
C 31.05022831050228,16.410498749680038 31.299294312992938,13.480615118042019 31.382316313823157,12.716640085061139
C 31.548360315483595,12.276566837970348 31.79742631797426,14.33614901451159 31.88044831880448,14.66005080040168
C 32.046492320464914,15.872959615649675 32.29555832295558,19.10508594719121 32.3785803237858,19.994092976549116
C 32.54462432544624,20.88113099809006 32.79369032793689,19.984247937464314 32.87671232876712,19.98227892964735
C 33.04275633042756,17.859688502963355 33.29182233291822,9.379171835312187 33.37484433374844,7.2585504164451535
C 33.54088833540888,5.833973260873846 33.78995433789955,10.73877173292378 33.872976338729764,11.434815996219506
C 34.0390203403902,13.198062496308111 34.28808634288085,16.770827180183904 34.37110834371108,17.838029416976784
C 34.53715234537152,19.264575580365054 34.78621834786218,19.63474904995373 34.8692403486924,19.994092976549116
C 35.03528435035284,19.57666331935338 35.28435035284351,16.11022505759348 35.36737235367372,15.33345147380235
C 35.53341635533416,15.33345147380235 35.78248235782481,19.21731939275799 35.86550435865504,19.994092976549116
C 36.031548360315476,20.77086656034024 36.28061436280614,19.99409297654912 36.36363636363636,19.994092976549116
C 36.5296803652968,19.92320869513852 36.77874636778747,19.63967156949613 36.86176836861768,19.56878728808553
C 37.02781237027812,18.91999921239687 37.276878372768785,16.679268316695214 37.359900373599004,16.101364522417153
C 37.52594437525945,15.083387481048298 37.7750103777501,13.900998286963201 37.85803237858032,13.460925039872409
C 38.02407638024076,12.995254691161124 38.27314238273143,13.332939531769943 38.35616438356164,13.307342430149449
C 38.52220838522208,13.303404414515526 38.771274387712744,13.415637860082304 38.85429638854296,13.437296946068876
C 39.02034039020341,13.651918798117629 39.26940639269406,14.402110776379784 39.35242839352428,14.595073542441964
C 39.518472395184716,15.687872880855336 39.76753839767539,19.094256404197925 39.8505603985056,19.994092976549116
C 40.01660440016604,19.68003622974383 40.2656704026567,13.92462638076673 40.34869240348692,12.710733061610254
C 40.51473640514737,11.627778762281686 40.763802407638025,13.3654281607498 40.846824408468244,13.496367180577709
C 41.01286841012868,12.863331167424738 41.26193441261935,9.676492015673302 41.34495641344956,8.912516982692422
C 41.51100041511,9.349636718057772 41.76006641760066,14.91799082442357 41.84308841843088,16.119085592769803
C 42.009132420091326,17.14100064977258 42.258198422581984,15.223187036052535 42.3412204234122,15.04400732470908
C 42.50726442507264,13.287652351979839 42.756330427563306,7.15813101778014 42.83935242839352,5.580955756394353
C 43.00539643005396,5.601630338472444 43.25446243254462,13.570204973713748 43.33748443337484,15.168054817177625
C 43.503528435035285,15.502786146060998 43.75259443752594,8.852462244275111 43.83561643835616,7.589343729694608
C 44.0016604400166,7.161084529505583 44.25072644250727,11.763640301651998 44.333748443337484,12.598499616043476
C 44.49979244499792,13.395947781912696 44.74885844748858,12.411443873432178 44.8318804483188,12.374032724909918
C 44.997924449979244,12.209620572193673 45.2469904524699,11.739027703939987 45.33001245330012,11.612026699745998
C 45.49605645496056,11.649437848268258 45.74512245745123,12.43408746332723 45.82814445828144,12.598499616043476
C 45.99418845994188,12.828873530627916 46.24325446243254,12.92830842538445 46.32627646326276,12.994270187252644
C 46.4923204649232,13.991572646543405 46.74138646741386,17.650973674365485 46.82440846824408,18.582314371788055
C 46.99045246990452,19.320692303148444 47.23951847239519,17.617500541477153 47.3225404732254,17.42453777541497
C 47.48858447488585,17.06716285663654 47.7376504773765,16.602477011833734 47.820672478206724,16.43806485911749
C 47.98671647986717,16.140744678756374 48.23578248235782,15.77352472089314 48.31880448318804,15.640616693248273
C 48.48484848484848,14.890424714986118 48.73391448733915,12.554196940161853 48.81693648816936,11.936912989544568
C 48.98298048982981,12.334652568570696 49.23204649232046,17.012030637761633 49.31506849315068,18.027054167405044
C 49.48111249481113,18.37261503928171 49.73017849730178,14.679740878571288 49.813200498132,14.010278220804537
C 49.979244499792436,12.992301179435684 50.22831050228311,12.267706302794025 50.31133250311332,11.91919191919192
C 50.477376504773765,12.057022466379195 50.726442507264416,14.350916573138795 50.80946450809464,14.83726150392817
C 50.97550850975509,15.29210230964617 51.224574512245745,14.679740878571288 51.307596513075964,14.648236753499912
C 51.473640514736395,15.507708665603401 51.72270651722707,19.10311693937425 51.80572851805728,19.994092976549116
C 51.971772519717724,20.88506901372398 52.220838522208375,19.99409297654912 52.3038605230386,19.994092976549116
C 52.46990452469905,19.994092976549116 52.718970527189704,19.99409297654912 52.80199252801992,19.994092976549116
C 52.968036529680354,19.994092976549116 53.217102532171026,19.99409297654912 53.30012453300124,19.994092976549116
C 53.46616853466168,19.994092976549116 53.715234537152334,19.99409297654912 53.79825653798256,19.994092976549116
C 53.964300539643006,19.994092976549116 54.21336654213366,19.99409297654912 54.29638854296388,19.994092976549116
C 54.46243254462431,19.63081103431981 54.711498547114985,18.17768326540256 54.7945205479452,17.814401323173254
C 54.96056454960564,17.814401323173254 55.20963055209629,19.63081103431981 55.29265255292652,19.994092976549116
C 55.458696554586965,20.357374918778426 55.70776255707762,19.99409297654912 55.79078455790784,19.994092976549116
C 55.95682855956827,19.994092976549116 56.205894562058944,19.99409297654912 56.28891656288916,19.994092976549116
C 56.4549605645496,19.65739263984878 56.70402656704025,18.310591293047434 56.78704856787048,17.973890956347095
C 56.953092569530924,17.973890956347095 57.20215857202158,19.657392639848783 57.2851805728518,19.994092976549116
C 57.45122457451223,19.991139464823675 57.7002905770029,18.295823734420225 57.78331257783312,17.956169885994445
C 57.94935657949356,17.531848701439344 58.19842258198421,17.532833205347824 58.28144458281444,17.4481658692185
C 58.44748858447488,17.164628743576113 58.69655458696554,16.453816921653175 58.77957658779576,16.254947132140114
C 58.94562058945619,16.34059897217792 59.19468659194686,17.67755527989446 59.27770859277708,17.96207690944533
C 59.44375259443752,18.585267883513495 59.69281859692817,19.65542363203182 59.7758405977584,19.994092976549116
C 59.94188459941884,20.332762321066415 60.1909506019095,19.99409297654912 60.27397260273972,19.994092976549116
C 60.44001660440015,19.48707346368165 60.68908260689082,17.458995412211785 60.77210460772104,16.95197589934432
C 60.93814860938148,16.841711461594503 61.18721461187213,18.93575127493256 61.27023661270236,19.33250635005021
C 61.4362806143628,19.839525862917675 61.68534661685346,19.8838285387993 61.76836861768368,19.994092976549116
C 61.93441261934411,19.157264654340675 62.18347862183478,15.25862917675783 62.266500622665,14.311536416799575
C 62.43254462432544,14.103806092110185 62.68161062681609,18.00834859314391 62.76463262764632,18.74771102841278
C 62.93067662930676,19.694803788371036 63.17974263179743,19.786362651859726 63.26276463262764,19.994092976549116
C 63.42880863428808,20.201823301238505 63.67787463677874,19.99409297654912 63.76089663760896,19.994092976549116
C 63.9269406392694,19.994092976549116 64.17600664176005,19.99409297654912 64.25902864259028,19.994092976549116
C 64.42507264425072,19.89662708960955 64.67413864674138,19.50676354185126 64.7571606475716,19.40929765491169
C 64.92320464923203,18.905231653769665 65.1722706517227,17.37629708389942 65.25529265255291,16.96969696969697
C 65.42133665421336,16.164372772559908 65.67040265670401,14.976076555023923 65.75342465753424,14.577352472089315
C 65.91946865919468,15.081418473231338 66.16853466168534,19.09130289247248 66.25155666251555,19.994092976549116
C 66.41760066417599,20.89688306062575 66.66666666666666,19.99409297654912 66.74968866749687,19.994092976549116
C 66.91573266915732,19.994092976549116 67.16479867164797,19.99409297654912 67.2478206724782,19.994092976549116
C 67.41386467413864,19.994092976549116 67.6629306766293,19.99409297654912 67.74595267745951,19.994092976549116
C 67.91199667911995,19.994092976549116 68.16106268161062,19.99409297654912 68.24408468244083,19.994092976549116
C 68.41012868410128,19.994092976549116 68.65919468659193,19.99409297654912 68.74221668742216,19.994092976549116
C 68.9082606890826,19.994092976549116 69.15732669157326,19.99409297654912 69.24034869240347,19.994092976549116
C 69.40639269406391,19.994092976549116 69.65545869655458,19.99409297654912 69.73848069738479,19.994092976549116
C 69.90452469904524,19.994092976549116 70.15359070153589,19.99409297654912 70.23661270236612,19.994092976549116
C 70.40265670402655,19.994092976549116 70.65172270651722,19.99409297654912 70.73474470734743,19.994092976549116
C 70.90078870900787,19.994092976549116 71.14985471149853,19.99409297654912 71.23287671232875,19.994092976549116
C 71.3989207139892,19.994092976549116 71.64798671647985,19.99409297654912 71.73100871731008,19.994092976549116
C 71.89705271897051,19.994092976549116 72.14611872146118,19.99409297654912 72.22914072229139,19.994092976549116
C 72.39518472395183,19.994092976549116 72.64425072644251,19.99409297654912 72.72727272727272,19.994092976549116
C 72.89331672893316,19.994092976549116 73.14238273142381,19.99409297654912 73.22540473225403,19.994092976549116
C 73.39144873391446,19.994092976549116 73.64051473640512,19.99409297654912 73.72353673723535,19.994092976549116
C 73.88958073889579,19.994092976549116 74.13864674138647,19.99409297654912 74.22166874221668,19.994092976549116
C 74.38771274387712,19.994092976549116 74.63677874636777,19.99409297654912 74.719800747198,19.994092976549116
C 74.88584474885842,19.994092976549116 75.13491075134908,19.99409297654912 75.21793275217931,19.994092976549116
C 75.38397675383975,19.994092976549116 75.63304275633043,19.99409297654912 75.71606475716064,19.994092976549116
C 75.88210875882108,19.994092976549116 76.13117476131173,19.99409297654912 76.21419676214195,19.994092976549116
C 76.38024076380238,19.994092976549116 76.62930676629304,19.99409297654912 76.71232876712327,19.994092976549116
C 76.8783727687837,19.994092976549116 77.12743877127438,19.99409297654912 77.2104607721046,19.994092976549116
C 77.37650477376503,19.994092976549116 77.62557077625569,19.99409297654912 77.70859277708591,19.994092976549116
C 77.87463677874634,19.994092976549116 78.123702781237,19.99409297654912 78.20672478206723,19.994092976549116
C 78.37276878372766,19.994092976549116 78.62183478621834,19.99409297654912 78.70485678704856,19.994092976549116
C 78.870900788709,19.994092976549116 79.11996679119964,19.99409297654912 79.20298879202987,19.994092976549116
C 79.3690327936903,19.994092976549116 79.61809879618097,19.99409297654912 79.7011207970112,19.994092976549116
C 79.86716479867164,19.994092976549116 80.1162308011623,19.99409297654912 80.19925280199251,19.994092976549116
C 80.36529680365295,19.994092976549116 80.6143628061436,19.99409297654912 80.69738480697383,19.994092976549116
C 80.86342880863425,19.994092976549116 81.11249481112493,19.99409297654912 81.19551681195516,19.994092976549116
C 81.3615608136156,19.994092976549116 81.61062681610626,19.99409297654912 81.69364881693647,19.994092976549116
C 81.85969281859691,19.994092976549116 82.10875882108756,19.99409297654912 82.19178082191779,19.994092976549116
C 82.35782482357821,19.994092976549116 82.60689082606889,19.99409297654912 82.68991282689912,19.994092976549116
C 82.85595682855956,19.994092976549116 83.10502283105022,19.99409297654912 83.18804483188043,19.994092976549116
C 83.35408883354087,19.994092976549116 83.60315483603152,19.99409297654912 83.68617683686175,19.994092976549116
C 83.85222083852217,19.994092976549116 84.10128684101285,19.99409297654912 84.18430884184308,19.994092976549116
C 84.35035284350352,19.994092976549116 84.59941884599418,19.99409297654912 84.68244084682439,19.994092976549116
C 84.84848484848483,19.994092976549116 85.09755085097548,19.99409297654912 85.1805728518057,19.994092976549116
C 85.34661685346613,19.994092976549116 85.59568285595681,19.99409297654912 85.67870485678704,19.994092976549116
C 85.84474885844747,19.994092976549116 86.09381486093811,19.99409297654912 86.17683686176835,19.994092976549116
C 86.34288086342877,19.994092976549116 86.59194686591945,19.99409297654912 86.67496886674967,19.994092976549116
C 86.84101286841009,19.994092976549116 87.09007887090077,19.99409297654912 87.173100871731,19.994092976549116
C 87.33914487339143,19.994092976549116 87.58821087588207,19.99409297654912 87.67123287671231,19.994092976549116
C 87.83727687837275,19.994092976549116 88.08634288086341,19.99409297654912 88.16936488169364,19.994092976549116
C 88.33540888335408,19.994092976549116 88.58447488584476,19.99409297654912 88.66749688667495,19.994092976549116
C 88.83354088833539,19.994092976549116 89.08260689082603,19.99409297654912 89.16562889165627,19.994092976549116
C 89.3316728933167,18.8934176068679 89.58073889580737,14.49071612814303 89.6637608966376,13.390040758461812
C 89.82980489829804,13.390040758461813 90.07887090078871,18.893417606867903 90.16189290161891,19.994092976549116
C 90.32793690327935,21.094768346230335 90.57700290576999,19.99409297654912 90.66002490660023,19.994092976549116
C 90.82606890826067,19.994092976549116 91.07513491075133,19.99409297654912 91.15815691158156,19.994092976549116
C 91.324200913242,19.994092976549116 91.57326691573267,19.99409297654912 91.65628891656287,19.994092976549116
C 91.82233291822331,19.994092976549116 92.07139892071395,19.99409297654912 92.15442092154419,19.994092976549116
C 92.32046492320463,19.259653060822654 92.56953092569529,16.32189339791679 92.65255292652552,15.587453482190325
C 92.81859692818595,14.771299742059975 93.06766293067663,15.178884360170912 93.15068493150683,15.097170535767027
C 93.31672893316727,14.24360564711442 93.5657949356579,11.237915214523404 93.64881693648815,10.466064150274677
C 93.81486093814858,11.282217890405027 94.06392694063925,18.406088172170048 94.14694894146947,19.994092976549116
C 94.31299294312991,20.606454407623996 94.56205894562059,15.115876110028156 94.64508094645079,14.140232736723965
C 94.81112494811123,14.140232736723965 95.06019095060189,19.018449603244925 95.14321295143212,19.994092976549116
C 95.30925695309254,20.96973634985331 95.55832295558321,19.99409297654912 95.64134495641343,19.994092976549116
C 95.80738895807387,19.994092976549116 96.05645496056455,19.99409297654912 96.13947696139475,19.994092976549116
C 96.30552096305519,19.994092976549116 96.55458696554585,19.99409297654912 96.63760896637608,19.994092976549116
C 96.8036529680365,19.994092976549116 97.05271897052717,19.99409297654912 97.1357409713574,19.994092976549116
C 97.30178497301783,19.994092976549116 97.55085097550851,19.99409297654912 97.63387297633871,19.994092976549116
C 97.79991697799915,19.994092976549116 98.04898298048981,19.99409297654912 98.13200498132004,19.994092976549116
C 98.29804898298046,19.994092976549116 98.54711498547113,19.99409297654912 98.63013698630135,19.994092976549116
C 98.79618098796179,19.994092976549116 99.04524699045247,19.99409297654912 99.12826899128267,19.994092976549116
C 99.2943129929431,19.994092976549116 99.54337899543377,19.99409297654912 99.626400996264,19.994092976549116
C 99.79244499792442,19.994092976549116 100.04151100041508,19.99409297654912 100.12453300124531,19.994092976549116
C 100.29057700290575,19.994092976549116 100.53964300539643,19.99409297654912 100.62266500622663,19.994092976549116
C 100.78870900788706,19.279343138992264 101.03777501037773,16.42034378876484 101.12079701120796,15.705593951207986
C 101.28684101286838,15.052867859885403 101.53590701535904,16.01571268237935 101.61892901618927,16.07773642861362
C 101.78497301784971,16.792486266170474 102.03403902034039,19.34136688522653 102.1170610211706,19.994092976549116
C 102.28310502283104,20.6468190678717 102.53217102532169,19.99409297654912 102.61519302615191,19.994092976549116
C 102.78123702781234,19.994092976549116 103.030303030303,19.99409297654912 103.11332503113323,19.994092976549116
C 103.27936903279367,19.994092976549116 103.52843503528435,19.99409297654912 103.61145703611456,19.994092976549116
C 103.77750103777502,19.994092976549116 104.02656704026565,19.99409297654912 104.10958904109587,19.994092976549116
C 104.2756330427563,19.994092976549116 104.52469904524696,19.99409297654912 104.60772104607719,19.994092976549116
C 104.77376504773763,19.994092976549116 105.0228310502283,19.99409297654912 105.10585305105852,19.994092976549116
C 105.27189705271898,19.994092976549116 105.5209630552096,19.99409297654912 105.60398505603983,19.994092976549116
C 105.77002905770026,19.994092976549116 106.01909506019092,19.99409297654912 106.10211706102115,19.994092976549116
C 106.26816106268159,18.87668104042373 106.51722706517226,14.407033295922185 106.60024906600248,13.289621359796799
C 106.76629306766294,12.24309370508201 107.01535907015356,13.644042766849786 107.09838107098379,13.714927048260382
C 107.26442507264422,14.83233898438577 107.51349107513488,18.94756532183433 107.5965130759651,19.994092976549116
C 107.76255707762554,21.040620631263906 108.01162308011622,19.99409297654912 108.09464508094644,19.994092976549116
C 108.2606890826069,19.994092976549116 108.50975508509752,19.99409297654912 108.59277708592775,19.994092976549116
C 108.75882108758817,19.994092976549116 109.00788709007884,19.99409297654912 109.09090909090907,19.994092976549116
C 109.2569530925695,19.994092976549116 109.50601909506018,19.99409297654912 109.5890410958904,19.994092976549116
C 109.75508509755086,19.994092976549116 110.00415110004148,19.99409297654912 110.08717310087171,19.994092976549116
C 110.25321710253216,19.033217161872134 110.50228310502281,15.189713903164197 110.58530510585304,14.228838088487212
C 110.75134910751348,14.228838088487214 111.00041511000416,19.033217161872134 111.08343711083435,19.994092976549116
C 111.24948111249479,20.9549687912261 111.49854711498544,19.99409297654912 111.58156911581567,19.994092976549116
C 111.74761311747612,19.994092976549116 111.99667911996677,19.99409297654912 112.079701120797,19.994092976549116
C 112.24574512245744,19.994092976549116 112.49481112494811,19.99409297654912 112.57783312577831,19.994092976549116
C 112.74387712743875,19.994092976549116 112.9929431299294,19.99409297654912 113.07596513075963,19.994092976549116
C 113.24200913242008,19.994092976549116 113.49107513491073,19.99409297654912 113.57409713574096,19.994092976549116
C 113.7401411374014,19.994092976549116 113.98920713989207,19.99409297654912 114.07222914072227,19.994092976549116
C 114.23827314238271,19.994092976549116 114.48733914487336,19.99409297654912 114.57036114570359,19.994092976549116
C 114.73640514736404,19.992123968732155 114.98547114985469,19.984247937464314 115.06849315068492,19.98227892964735
C 115.23453715234535,19.98227892964735 115.48360315483603,19.992123968732155 115.56662515566623,19.994092976549116
C 115.73266915732667,19.996061984366076 115.98173515981732,19.99409297654912 116.06475716064755,19.994092976549116
C 116.230801162308,19.946836788942054 116.47986716479865,19.75781203851379 116.56288916562887,19.710555850906726
C 116.72893316728931,19.710555850906726 116.97799916977999,19.946836788942054 117.06102117061019,19.994092976549116
C 117.22706517227063,20.04134916415618 117.47613117476129,19.99409297654912 117.55915317559152,19.994092976549116
C 117.72519717725197,19.994092976549116 117.97426317974261,19.99409297654912 118.05728518057283,19.994092976549116
C 118.22332918223327,19.992123968732155 118.47239518472395,19.984247937464314 118.55541718555415,19.98227892964735
C 118.72146118721459,19.98227892964735 118.97052718970525,19.992123968732155 119.05354919053548,19.994092976549116
C 119.21959319219593,19.996061984366076 119.46865919468657,19.99409297654912 119.55168119551679,19.994092976549116
C 119.71772519717723,19.99310847264064 119.96679119966791,19.98917045700671 120.04981320049811,19.98818595309823
C 120.21585720215855,19.98818595309823 120.46492320464921,19.993108472640635 120.54794520547944,19.994092976549116
C 120.71398920713989,19.94191426939965 120.96305520963053,19.72827692125938 121.04607721046075,19.67511371020143
C 121.21212121212119,19.67511371020143 121.46118721461187,19.94092976549117 121.54420921544207,19.994092976549116
C 121.7102532171025,20.047256187607065 121.95931921959317,19.99409297654912 122.0423412204234,19.994092976549116
C 122.20838522208385,19.852324413727924 122.45745122457448,19.285250162443145 122.54047322540471,19.14348159962195
C 122.70651722706515,19.14348159962195 122.95558322955583,19.852324413727924 123.03860523038603,19.994092976549116
C 123.20464923204646,20.069899777502116 123.45371523453713,19.664284167208145 123.53673723536735,19.598322405339946
C 123.7027812370278,19.458522850335715 123.95184723951844,19.22913343965976 124.03486924034867,19.155295646523715
C 124.20091324200911,19.22125740839191 124.44997924449979,19.854293421544885 124.53300124533,19.994092976549116
C 124.69904524699042,20.13389253155335 124.94811124948109,19.99409297654912 125.03113325031131,19.994092976549116
C 125.19717725197177,19.994092976549116 125.4462432544624,19.99409297654912 125.52926525529263,19.994092976549116
C 125.69530925695307,19.994092976549116 125.94437525944375,19.99409297654912 126.02739726027396,19.994092976549116
C 126.19344126193438,19.994092976549116 126.44250726442505,19.99409297654912 126.52552926525527,19.994092976549116
C 126.69157326691573,19.994092976549116 126.94063926940636,19.99409297654912 127.02366127023659,19.994092976549116
C 127.18970527189703,19.225195424025834 127.4387712743877,16.1496052139327 127.52179327521792,15.380707661409415
C 127.68783727687834,14.732904089629235 127.936903279369,15.986177565124933 128.01992528019923,16.107271545868034
C 128.18596928185968,16.13089963967157 128.43503528435033,15.61994211117018 128.51805728518056,15.52247622423061
C 128.684101286841,14.936696398684704 128.93316728933166,13.080906531198929 129.0161892901619,12.592592592592593
C 129.1822332918223,12.244078208990489 129.43129929431302,13.29159036761376 129.51432129514322,13.431389922617994
C 129.68036529680367,13.983696615275562 129.9294312992943,15.493925610884679 130.01245330012452,15.906432748538013
C 130.17849730178497,17.000216590859868 130.42756330427562,19.3128162718806 130.51058530510585,19.994092976549116
C 130.67662930676627,20.029535117254415 130.92569530925698,16.76492015673302 131.00871731008718,16.119085592769803
C 131.17476131174763,15.539212790674776 131.42382731423825,16.448894402110778 131.50684931506848,16.51485616397897
C 131.67289331672893,15.932029850158502 131.92195931921958,13.270915785535669 132.0049813200498,12.622127709847009
C 132.17102532171023,12.051115442928308 132.42009132420094,13.011006753696812 132.50311332503114,13.088782562466774
C 132.6691573266916,13.662748341110914 132.9182233291822,15.569732411837672 133.00124533001244,16.065922381711854
C 133.1672893316729,15.994053596392774 133.41635533416354,13.225628605745568 133.49937733499377,12.657569850552308
C 133.6654213366542,11.649437848268258 133.9144873391449,10.457203615098353 133.9975093399751,10.017130368007562
C 134.16355334163555,10.14708488392699 134.41261934412617,12.867269183058658 134.4956413449564,13.437296946068876
C 134.66168534661685,13.810423927382994 134.9107513491075,12.452793037588359 134.99377334993773,12.255892255892256
C 135.15981735159815,12.573887018331462 135.40888335408886,14.830369976568809 135.49190535491906,15.345265520704118
C 135.6579493565795,15.274381239293518 135.90701535907013,12.416366392974581 135.99003735990036,11.830586567428673
C 136.1560813615608,11.404296375056608 136.40514736405146,12.62803473329789 136.48816936488168,12.787524366471734
C 136.6542133665421,13.169511882962174 136.90327936903282,13.900013783054717 136.986301369863,14.122511666371315
C 137.15234537152347,14.10971311556107 137.4014113740141,12.946029495737095 137.48443337484431,12.710733061610254
C 137.65047737650477,13.072045996022602 137.89954337899542,15.693779904306218 137.98256537982564,16.290389272845413
C 138.14860938148607,16.879122610116763 138.39767538397678,16.251009116506193 138.48069738480697,16.243133085238348
C 138.64674138646743,15.79026128733731 138.89580738895805,14.018154252072383 138.97882938978827,13.573158485439189
C 139.14487339144873,13.549530391635656 139.39393939393938,15.679996849587491 139.4769613947696,16.101364522417153
C 139.64300539643003,16.282513241577565 139.89207139892073,14.900269754070926 139.97509339975093,14.66005080040168
C 140.14113740141138,14.410971311556109 140.390203403902,14.615748124520055 140.47322540473223,14.60688758934373
C 140.63926940639269,14.504499182861757 140.88833540888334,14.139248232815483 140.97135740971356,14.045720361509835
C 141.137401411374,13.802547896115145 141.3864674138647,13.297497391064644 141.4694894146949,13.147852796975604
C 141.63553341635534,13.150806308701045 141.88459941884597,13.910843326048003 141.9676214196762,14.063441431862485
C 142.13366542133664,15.03022426999035 142.3827314238273,18.13436509342942 142.46575342465752,18.948549825742806
C 142.63179742631795,19.061767775218065 142.88086342880865,15.443715911552168 142.96388542963885,14.74274912871404
C 143.1299294312993,13.974836080099239 143.37899543378995,14.408017799830665 143.46201743462018,14.34107153405399
C 143.62806143628063,14.768346230334535 143.87712743877125,16.812176344340088 143.96014943960148,17.306397306397304
C 144.1261934412619,18.24856754681316 144.3752594437526,19.546143698190484 144.4582814445828,19.994092976549116
C 144.62432544624326,20.44204225490775 144.8733914487339,19.99409297654912 144.95641344956414,19.994092976549116
C 145.1224574512246,19.994092976549116 145.3715234537152,19.99409297654912 145.45454545454544,19.994092976549116
C 145.62058945620586,19.421111701813455 145.86965545869657,17.129186602870814 145.95267745952677,16.556205328135153
C 146.11872146118722,16.556205328135153 146.36778746367787,19.421111701813455 146.4508094645081,19.994092976549116
C 146.61685346616855,20.567074251284776 146.86591946865917,19.99409297654912 146.9489414694894,19.994092976549116
C 147.11498547114982,19.532360643471755 147.36405147364053,17.685431311162308 147.44707347447073,17.223698978084943
C 147.61311747613118,16.637919152539038 147.86218347862183,16.603461515742215 147.94520547945206,16.479414023273673
C 148.1112494811125,16.941146356351034 148.36031548360313,19.40831315100321 148.44333748443336,19.994092976549116
C 148.60938148609378,20.57987280209502 148.8584474885845,19.99409297654912 148.9414694894147,19.994092976549116
C 149.10751349107514,19.994092976549116 149.3565794935658,19.99409297654912 149.43960149439602,19.994092976549116
C 149.60564549605647,18.937720282749524 149.8547114985471,14.712229507551143 149.93773349937732,13.655856813751551
C 150.10377750103774,12.62606572548093 150.35284350352845,13.788764841396421 150.43586550435865,13.815346446925394
C 150.6019095060191,14.870734636816508 150.85097550850975,18.959379368736094 150.93399750933997,19.98818595309823
C 151.10004151100043,19.96849587492862 151.34910751349105,14.745702640439482 151.43212951432128,13.697205977907734
C 151.5981735159817,12.878098726051944 151.8472395184724,14.844153031287533 151.9302615193026,15.073542441963495
C 152.09630552096306,15.185775887530275 152.3453715234537,14.487762616417585 152.42839352428393,14.370606651308405
C 152.5944375259444,14.521235749305923 152.843503528435,15.70953196684191 152.92652552926523,15.97731702994861
C 153.09256953092566,16.914564750822063 153.34163553341637,19.324630318782365 153.42465753424656,19.994092976549116
C 153.59070153590702,19.2370094709276 153.83976753839767,12.861362159607774 153.9227895392279,11.434815996219506
C 154.08883354088834,11.434815996219506 154.33789954337897,18.56754681316085 154.4209215442092,19.994092976549116
C 154.58696554586962,21.42063913993739 154.83603154836032,19.99409297654912 154.91905354919052,19.994092976549116
C 155.08509755085097,19.994092976549116 155.33416355334163,19.99409297654912 155.41718555417185,19.994092976549116
C 155.5832295558323,19.994092976549116 155.83229555832293,19.99409297654912 155.91531755915315,19.994092976549116
C 156.08136156081358,19.994092976549116 156.33042756330428,19.99409297654912 156.41344956413448,19.994092976549116
C 156.57949356579493,19.994092976549116 156.82855956828558,19.99409297654912 156.9115815691158,19.994092976549116
C 157.07762557077626,19.994092976549116 157.32669157326688,19.99409297654912 157.4097135740971,19.994092976549116
C 157.57575757575754,19.994092976549116 157.82482357824824,19.99409297654912 157.90784557907844,19.994092976549116
C 158.0738895807389,19.994092976549116 158.32295558322954,19.99409297654912 158.40597758405977,19.994092976549116
C 158.57202158572022,19.23405595920216 158.82108758821087,16.193907889814323 158.9041095890411,15.433870872467365
C 159.07015359070152,14.437552917085084 159.3192195931922,14.252466182290744 159.4022415940224,14.01618524425542
C 159.56828559568285,13.76907476322681 159.8173515981735,13.962037529288992 159.90037359900373,13.951207986295705
C 160.06641760066418,14.216039537676963 160.31548360315483,15.329513458168428 160.39850560398506,15.605174552542975
C 160.56454960564548,15.55791836493591 160.81361560813616,13.990588142634929 160.89663760896636,13.667670860653319
C 161.0626816106268,12.551243428436413 161.31174761311746,9.700120109476837 161.3947696139477,8.906609959241539
C 161.56081361560814,8.776655443322111 161.8098796180988,12.224388130820879 161.89290161892902,12.887943765136749
C 162.05894562058944,13.05826294130388 162.30801162308012,10.421761474393055 162.39103362391032,9.928525016244315
C 162.55707762557077,9.662708960954575 162.80614362806142,11.06562703053931 162.88916562889165,11.29304743339831
C 163.0552096305521,12.910587355031799 163.30427563304275,18.243645027270755 163.38729763387298,19.633764546045246
C 163.5533416355334,21.083938803237046 163.80240763802408,19.93403823813181 163.88542963885428,19.994092976549116
C 164.05147364051473,19.066690294760473 164.30053964300538,15.056805875519325 164.3835616438356,14.069348455313369
C 164.54960564549606,12.830842538444882 164.7986716479867,12.81410597200071 164.88169364881693,12.563057475338178
C 165.04773765047736,13.550514895544138 165.29680365296804,18.75558705968063 165.37982565379824,19.994092976549116
C 165.5458696554587,21.16565262764093 165.79493565794934,19.65936164766574 165.87795765877956,19.592415381889065
C 166.04400166044002,17.424537775414965 166.29306766293067,9.087758678401952 166.3760896637609,6.986827337704531
C 166.54213366542132,5.9964164057731315 166.791199667912,12.539429381534646 166.8742216687422,13.649949790300669
C 167.04026567040265,12.787524366471738 167.2893316728933,3.785220627325892 167.37235367372352,1.812274794730937
C 167.53839767538398,1.4883730088408467 167.78746367787463,10.057495028255264 167.87048567870485,11.706539074960128
C 168.03652968036528,14.736842105263158 168.28559568285596,18.61283399295095 168.36861768368615,19.994092976549116
C 168.5346616853466,21.37535196014728 168.78372768783726,19.99409297654912 168.86674968866748,19.994092976549116
C 169.03279369032794,19.14249709571347 169.28185969281859,15.736113572370881 169.3648816936488,14.884517691535235
C 169.53092569530924,13.755291708508082 169.77999169779991,13.496367180577709 169.8630136986301,13.218737078386201
C 170.02905770029056,13.06318546084628 170.27812370278122,13.82912950164412 170.36114570361144,13.951207986295705
C 170.5271897052719,13.981727607458602 170.77625570776254,13.493413668852265 170.85927770859277,13.401854805363579
C 171.02532171025322,13.862602634532463 171.27438771274387,16.163388268651424 171.35740971357407,16.715694961308994
C 171.52345371523452,17.811447811447806 171.7725197177252,19.432925748715224 171.8555417185554,19.976371906196466
C 172.02158572021585,19.133636560537145 172.2706517227065,13.04546439049363 172.35367372353673,11.659282887353063
C 172.51971772519718,10.35481520861638 172.76878372768783,12.067852009372475 172.85180572851803,12.14956583377636
C 173.01784973017848,12.43704097505267 173.26691573266916,13.178372418138501 173.34993773349936,13.384133735010929
C 173.5159817351598,13.424498395258631 173.76504773765046,12.557150451887296 173.8480697384807,12.391753795262568
C 174.01411374014114,12.630988245023334 174.26317974263182,14.41490932719003 174.34620174346202,14.819540433575522
C 174.51224574512244,15.52346072813909 174.76131174761312,16.315986374465904 174.84433374844332,16.615275562643983
C 175.01037775010377,16.54931380077579 175.25944375259442,14.789020812412625 175.34246575342465,14.423769862366354
C 175.5085097550851,13.82420698210172 175.75757575757578,13.252210211274539 175.84059775840598,13.017898281056176
C 176.0066417600664,13.583003524523994 176.25570776255708,17.014984149487073 176.33872976338728,17.814401323173254
C 176.50477376504773,17.18136531002028 176.75383976753838,10.652135388977493 176.8368617683686,9.219682202138342
C 177.00290577002906,9.58296414436765 177.25197177251974,18.198357847480654 177.33499377334994,19.994092976549116
C 177.50103777501036,21.789828105617577 177.75010377750104,19.99409297654912 177.83312577833124,19.994092976549116
C 177.9991697799917,19.21141236930711 178.24823578248234,16.08068994033906 178.33125778331257,15.298009333097053
C 178.49730178497302,13.78679583357946 178.7463677874637,11.655344871719143 178.8293897882939,10.926811979443558
C 178.99543378995432,9.891113867722055 179.244499792445,9.390985882213952 179.3275217932752,9.083820662768032
C 179.49356579493565,9.947230590505443 179.7426317974263,14.936696398684703 179.82565379825652,16.107271545868034
C 179.99169779991698,17.460964420028745 180.24076380240766,17.02286018075492 180.32378580323785,17.205977907732294
C 180.48982980489828,16.841711461594503 180.73889580738896,14.469057042156457 180.82191780821915,13.92167286904129
C 180.9879618098796,13.455018016421526 181.23702781237026,14.3253194715183 181.32004981320048,14.406048792013705
C 181.48609381486094,15.403351251304466 181.73515981735162,18.988914485990506 181.8181818181818,19.90548762478587
C 181.90120381901204,20.82206076358123 181.81818181818184,19.905487624785867 181.8181818181818,19.90548762478587
" ></path>
  </svg>
