  <svg id="graph" xmlns="http://www.w3.org/2000/svg" class='w-full' width='200' height='30' viewbox="0 0 300.0 20">
  <path fill="none" class='stroke-2 stroke-amber-900 dark:stroke-amber-300' d="M 0.49813200498132,19.994092976549116
C 0.58115400581154,19.728276921259376 0.91324200913242,19.94092976549117 0.99626400996264,19.994092976549116
C 1.16230801162308,20.047256187607065 1.4113740141137399,19.99409297654912 1.49439601494396,19.994092976549116
C 1.6604400166044,19.852324413727924 1.90950601909506,19.285250162443145 1.99252801992528,19.14348159962195
C 2.15857202158572,19.14348159962195 2.4076380240763804,19.852324413727924 2.4906600249066,19.994092976549116
C 2.65670402656704,20.069899777502116 2.9057700290577,19.664284167208145 2.98879202988792,19.598322405339946
C 3.15483603154836,19.458522850335715 3.4039020340390196,19.22913343965976 3.4869240348692396,19.155295646523715
C 3.652968036529679,19.22125740839191 3.90203403902034,19.854293421544885 3.98505603985056,19.994092976549116
C 4.1511000415109995,20.13389253155335 4.400166044001659,19.99409297654912 4.48318804483188,19.994092976549116
C 4.64923204649232,19.994092976549116 4.89829804898298,19.99409297654912 4.9813200498132,19.994092976549116
C 5.14736405147364,19.994092976549116 5.396430053964299,19.99409297654912 5.47945205479452,19.994092976549116
C 5.64549605645496,19.994092976549116 5.8945620589456205,19.99409297654912 5.9775840597758405,19.994092976549116
C 6.143628061436281,19.994092976549116 6.392694063926942,19.99409297654912 6.47571606475716,19.994092976549116
C 6.6417600664176,19.225195424025834 6.89082606890826,16.1496052139327 6.97384806973848,15.380707661409415
C 7.139892071398921,14.732904089629235 7.3889580738895795,15.986177565124933 7.4719800747198,16.107271545868034
C 7.63802407638024,16.13089963967157 7.887090078870901,15.61994211117018 7.97011207970112,15.52247622423061
C 8.136156081361559,14.936696398684704 8.385222083852218,13.080906531198929 8.46824408468244,12.592592592592593
C 8.63428808634288,12.244078208990489 8.883354088833538,13.29159036761376 8.96637608966376,13.431389922617994
C 9.1324200913242,13.983696615275562 9.381486093814859,15.493925610884679 9.46450809464508,15.906432748538013
C 9.63055209630552,17.000216590859868 9.87961809879618,19.3128162718806 9.9626400996264,19.994092976549116
C 10.12868410128684,20.029535117254415 10.3777501037775,16.76492015673302 10.46077210460772,16.119085592769803
C 10.62681610626816,15.539212790674776 10.875882108758821,16.448894402110778 10.95890410958904,16.51485616397897
C 11.12494811124948,15.932029850158502 11.374014113740143,13.270915785535669 11.45703611457036,12.622127709847009
C 11.6230801162308,12.051115442928308 11.87214611872146,13.011006753696812 11.95516811955168,13.088782562466774
C 12.12121212121212,13.662748341110914 12.37027812370278,15.569732411837672 12.453300124533,16.065922381711854
C 12.61934412619344,15.994053596392774 12.868410128684102,13.225628605745568 12.95143212951432,12.657569850552308
C 13.117476131174762,11.655344871719143 13.366542133665419,10.48673873235277 13.44956413449564,10.05257250871286
C 13.615608136156082,10.183511528540768 13.864674138646741,12.878098726051944 13.94769613947696,13.44320396951976
C 14.113740141137399,13.810423927382994 14.362806143628061,12.453777541496839 14.44582814445828,12.255892255892256
C 14.61187214611872,12.572902514422983 14.860938148609378,14.830369976568809 14.943960149439599,15.345265520704118
C 15.110004151100041,15.274381239293518 15.3590701535907,12.416366392974581 15.44209215442092,11.830586567428673
C 15.608136156081358,11.404296375056608 15.85720215857202,12.62803473329789 15.94022415940224,12.787524366471734
C 16.10626816106268,13.169511882962174 16.355334163553337,13.900013783054717 16.43835616438356,14.122511666371315
C 16.604400166043998,14.10971311556107 16.85346616853466,12.946029495737095 16.93648816936488,12.710733061610254
C 17.102532171025317,13.072045996022602 17.351598173515978,15.693779904306218 17.434620174346197,16.290389272845413
C 17.60066417600664,16.879122610116763 17.849730178497296,16.251009116506193 17.93275217932752,16.243133085238348
C 18.098796180987957,15.79026128733731 18.347862183478615,14.018154252072383 18.430884184308837,13.573158485439189
C 18.596928185969276,13.549530391635656 18.84599418845994,15.679996849587491 18.92901618929016,16.101364522417153
C 19.0950601909506,16.282513241577565 19.34412619344126,14.900269754070926 19.427148194271478,14.66005080040168
C 19.593192195931916,14.410971311556109 19.842258198422574,14.615748124520055 19.925280199252796,14.60688758934373
C 20.091324200913235,14.504499182861757 20.3403902034039,14.139248232815483 20.42341220423412,14.045720361509835
C 20.58945620589456,13.802547896115145 20.838522208385218,13.297497391064644 20.921544209215437,13.147852796975604
C 21.087588210875875,13.150806308701045 21.33665421336654,13.910843326048003 21.41967621419676,14.063441431862485
C 21.585720215857197,15.03022426999035 21.834786218347855,18.13436509342942 21.917808219178077,18.948549825742806
C 22.08385222083852,19.061767775218065 22.332918223329177,15.443715911552168 22.4159402241594,14.74274912871404
C 22.581984225819838,13.974836080099239 22.831050228310502,14.408017799830665 22.914072229140718,14.34107153405399
C 23.080116230801156,14.768346230334535 23.329182233291814,16.812176344340088 23.412204234122036,17.306397306397304
C 23.57824823578248,18.24856754681316 23.827314238273136,19.546143698190484 23.91033623910336,19.994092976549116
C 24.076380240763797,20.44204225490775 24.32544624325446,19.99409297654912 24.408468244084677,19.994092976549116
C 24.574512245745115,19.994092976549116 24.823578248235776,19.99409297654912 24.906600249066,19.994092976549116
C 25.072644250726437,19.421111701813455 25.321710253217095,17.129186602870814 25.404732254047317,16.556205328135153
C 25.570776255707756,16.565065863311478 25.81984225819842,19.46541437769508 25.90286425902864,20.047256187607065
C 26.068908260689085,20.620237462342725 26.317974263179735,20.002953511725444 26.400996264009958,19.994092976549116
C 26.567040265670396,19.52350010829543 26.816106268161054,17.685431311162308 26.899128268991277,17.223698978084943
C 27.065172270651715,16.637919152539038 27.31423827314238,16.603461515742215 27.3972602739726,16.479414023273673
C 27.563304275633044,16.941146356351034 27.812370278123694,19.40831315100321 27.895392278953917,19.994092976549116
C 28.06143628061436,20.57987280209502 28.31050228310502,19.99409297654912 28.39352428393524,19.994092976549116
C 28.559568285595677,19.994092976549116 28.808634288086342,19.99409297654912 28.891656288916558,19.994092976549116
C 29.057700290577,18.937720282749524 29.306766293067653,14.712229507551143 29.389788293897876,13.655856813751551
C 29.555832295558318,12.62606572548093 29.80489829804898,13.788764841396421 29.887920298879198,13.815346446925394
C 30.053964300539636,14.870734636816508 30.3030303030303,18.959379368736094 30.386052303860517,19.98818595309823
C 30.55209630552096,19.96849587492862 30.801162308011616,14.745702640439482 30.88418430884184,13.697205977907734
C 31.05022831050228,12.878098726051944 31.299294312992938,14.844153031287533 31.382316313823157,15.073542441963495
C 31.548360315483595,15.185775887530275 31.79742631797426,14.487762616417585 31.88044831880448,14.370606651308405
C 32.046492320464914,14.521235749305923 32.29555832295558,15.70953196684191 32.3785803237858,15.97731702994861
C 32.54462432544624,16.914564750822063 32.79369032793689,19.324630318782365 32.87671232876712,19.994092976549116
C 33.04275633042756,19.2370094709276 33.29182233291822,12.861362159607774 33.37484433374844,11.434815996219506
C 33.54088833540888,11.451552562663673 33.78995433789955,18.651229645381694 33.872976338729764,20.09451237521413
C 34.0390203403902,21.5210585386024 34.28808634288085,20.010829542993285 34.37110834371108,19.994092976549116
C 34.53715234537152,19.97735641010495 34.78621834786218,19.99409297654912 34.8692403486924,19.994092976549116
C 35.03528435035284,19.994092976549116 35.28435035284351,19.99409297654912 35.36737235367372,19.994092976549116
C 35.53341635533416,19.994092976549116 35.78248235782481,19.99409297654912 35.86550435865504,19.994092976549116
C 36.031548360315476,19.994092976549116 36.28061436280614,19.99409297654912 36.36363636363636,19.994092976549116
C 36.5296803652968,19.994092976549116 36.77874636778747,19.99409297654912 36.86176836861768,19.994092976549116
C 37.02781237027812,19.994092976549116 37.276878372768785,19.99409297654912 37.359900373599004,19.994092976549116
C 37.52594437525945,19.994092976549116 37.7750103777501,19.99409297654912 37.85803237858032,19.994092976549116
C 38.02407638024076,19.23405595920216 38.27314238273143,16.193907889814323 38.35616438356164,15.433870872467365
C 38.52220838522208,14.437552917085084 38.771274387712744,14.252466182290744 38.85429638854296,14.01618524425542
C 39.02034039020341,13.76907476322681 39.26940639269406,13.962037529288992 39.35242839352428,13.951207986295705
C 39.518472395184716,14.216039537676963 39.76753839767539,15.329513458168428 39.8505603985056,15.605174552542975
C 40.01660440016604,15.55791836493591 40.2656704026567,13.990588142634929 40.34869240348692,13.667670860653319
C 40.51473640514737,12.551243428436413 40.763802407638025,9.700120109476837 40.846824408468244,8.906609959241539
C 41.01286841012868,8.776655443322111 41.26193441261935,12.224388130820879 41.34495641344956,12.887943765136749
C 41.51100041511,13.05826294130388 41.76006641760066,10.421761474393055 41.84308841843088,9.928525016244315
C 42.009132420091326,9.662708960954575 42.258198422581984,11.06562703053931 42.3412204234122,11.29304743339831
C 42.50726442507264,12.910587355031799 42.756330427563306,18.243645027270755 42.83935242839352,19.633764546045246
C 43.00539643005396,21.083938803237046 43.25446243254462,19.93403823813181 43.33748443337484,19.994092976549116
C 43.503528435035285,19.066690294760473 43.75259443752594,15.056805875519325 43.83561643835616,14.069348455313369
C 44.0016604400166,12.830842538444882 44.25072644250727,12.81410597200071 44.333748443337484,12.563057475338178
C 44.49979244499792,13.550514895544138 44.74885844748858,18.75558705968063 44.8318804483188,19.994092976549116
C 44.997924449979244,21.16565262764093 45.2469904524699,19.65936164766574 45.33001245330012,19.592415381889065
C 45.49605645496056,17.424537775414965 45.74512245745123,9.087758678401952 45.82814445828144,6.986827337704531
C 45.99418845994188,5.9964164057731315 46.24325446243254,12.539429381534646 46.32627646326276,13.649949790300669
C 46.4923204649232,12.787524366471738 46.74138646741386,3.785220627325892 46.82440846824408,1.812274794730937
C 46.99045246990452,1.4883730088408467 47.23951847239519,10.057495028255264 47.3225404732254,11.706539074960128
C 47.48858447488585,14.736842105263158 47.7376504773765,18.61283399295095 47.820672478206724,19.994092976549116
C 47.98671647986717,21.37535196014728 48.23578248235782,19.99409297654912 48.31880448318804,19.994092976549116
C 48.48484848484848,19.14249709571347 48.73391448733915,15.736113572370881 48.81693648816936,14.884517691535235
C 48.98298048982981,13.755291708508082 49.23204649232046,13.496367180577709 49.31506849315068,13.218737078386201
C 49.48111249481113,13.06318546084628 49.73017849730178,13.82912950164412 49.813200498132,13.951207986295705
C 49.979244499792436,13.981727607458602 50.22831050228311,13.493413668852265 50.31133250311332,13.401854805363579
C 50.477376504773765,13.862602634532463 50.726442507264416,16.163388268651424 50.80946450809464,16.715694961308994
C 50.97550850975509,17.811447811447806 51.224574512245745,19.432925748715224 51.307596513075964,19.976371906196466
C 51.473640514736395,19.133636560537145 51.72270651722707,13.04546439049363 51.80572851805728,11.659282887353063
C 51.971772519717724,10.35481520861638 52.220838522208375,12.067852009372475 52.3038605230386,12.14956583377636
C 52.46990452469905,12.43704097505267 52.718970527189704,13.178372418138501 52.80199252801992,13.384133735010929
C 52.968036529680354,13.424498395258631 53.217102532171026,12.557150451887296 53.30012453300124,12.391753795262568
C 53.46616853466168,12.630988245023334 53.715234537152334,14.41490932719003 53.79825653798256,14.819540433575522
C 53.964300539643006,15.52346072813909 54.21336654213366,16.315986374465904 54.29638854296388,16.615275562643983
C 54.46243254462431,16.54931380077579 54.711498547114985,14.789020812412625 54.7945205479452,14.423769862366354
C 54.96056454960564,13.82420698210172 55.20963055209629,13.252210211274539 55.29265255292652,13.017898281056176
C 55.458696554586965,13.583003524523994 55.70776255707762,17.014984149487073 55.79078455790784,17.814401323173254
C 55.95682855956827,17.18136531002028 56.205894562058944,10.652135388977493 56.28891656288916,9.219682202138342
C 56.4549605645496,9.58296414436765 56.70402656704025,18.198357847480654 56.78704856787048,19.994092976549116
C 56.953092569530924,21.789828105617577 57.20215857202158,19.99409297654912 57.2851805728518,19.994092976549116
C 57.45122457451223,19.21141236930711 57.7002905770029,16.08068994033906 57.78331257783312,15.298009333097053
C 57.94935657949356,13.78679583357946 58.19842258198421,11.655344871719143 58.28144458281444,10.926811979443558
C 58.44748858447488,9.891113867722055 58.69655458696554,9.390985882213952 58.77957658779576,9.083820662768032
C 58.94562058945619,9.947230590505443 59.19468659194686,14.936696398684703 59.27770859277708,16.107271545868034
C 59.44375259443752,17.460964420028745 59.69281859692817,17.02286018075492 59.7758405977584,17.205977907732294
C 59.94188459941884,16.841711461594503 60.1909506019095,14.469057042156457 60.27397260273972,13.92167286904129
C 60.44001660440015,13.455018016421526 60.68908260689082,14.3253194715183 60.77210460772104,14.406048792013705
C 60.93814860938148,14.30267588162325 61.18721461187213,13.485537637584422 61.27023661270236,13.301435406698564
C 61.4362806143628,14.23277610412113 61.68534661685346,18.878650048240694 61.76836861768368,19.994092976549116
C 61.93441261934411,21.10953590485754 62.18347862183478,19.99409297654912 62.266500622665,19.994092976549116
C 62.43254462432544,19.036170673597574 62.68161062681609,15.204481461791403 62.76463262764632,14.24655915883986
C 62.93067662930676,13.071061492114126 63.17974263179743,13.158682339968891 63.26276463262764,12.941106976194696
C 63.42880863428808,12.89188178077067 63.67787463677874,13.782857817945539 63.76089663760896,13.951207986295705
C 63.9269406392694,14.793943331955026 64.17600664176005,17.323133872841474 64.25902864259028,17.99751905015063
C 64.42507264425072,17.5190501506291 64.67413864674138,12.233248665997207 64.7571606475716,11.08039458916652
C 64.92320464923203,10.088014649418161 65.1722706517227,11.882765274578139 65.25529265255291,12.043239411660464
C 65.42133665421336,13.079922027290449 65.67040265670401,16.424281804398763 65.75342465753424,17.300490282946424
C 65.91946865919468,17.39401815425207 66.16853466168534,13.387087246736371 66.25155666251555,12.604406639494359
C 66.41760066417599,11.992045208419476 66.66666666666666,13.456002520330005 66.74968866749687,13.626321696497135
C 66.91573266915732,14.19339594778191 67.16479867164797,15.610097072085376 67.2478206724782,16.006852147203023
C 67.41386467413864,16.270699194675803 67.6629306766293,15.342312008978674 67.74595267745951,15.209403981333805
C 67.91199667911995,15.656368755783959 68.16106268161062,18.10876799180893 68.24408468244083,18.68864079390395
C 68.41012868410128,18.183590288853445 68.65919468659193,13.264024258176304 68.74221668742216,12.179100951030776
C 68.9082606890826,11.539173410518439 69.15732669157326,14.404079784196744 69.24034869240347,14.849075550829937
C 69.40639269406391,16.14862071002422 69.65545869655458,19.121822513635376 69.73848069738479,19.976371906196466
C 69.90452469904524,20.833874810482996 70.15359070153589,19.99113946482368 70.23661270236612,19.994092976549116
C 70.40265670402655,19.99704648827456 70.65172270651722,19.99409297654912 70.73474470734743,19.994092976549116
C 70.90078870900787,19.994092976549116 71.14985471149853,19.99409297654912 71.23287671232875,19.994092976549116
C 71.3989207139892,19.994092976549116 71.64798671647985,19.99409297654912 71.73100871731008,19.994092976549116
C 71.89705271897051,19.13462106444563 72.14611872146118,15.69673341603166 72.22914072229139,14.83726150392817
C 72.39518472395183,13.485537637584422 72.64425072644251,12.376001732726882 72.72727272727272,11.88374977848662
C 72.89331672893316,12.171224919762933 73.14238273142381,15.782385256069462 73.22540473225403,16.562112351586034
C 73.39144873391446,16.983480024415694 73.64051473640512,14.770315238151497 73.72353673723535,14.411955815464589
C 73.88958073889579,14.98395258629177 74.13864674138647,19.06373678303503 74.22166874221668,19.994092976549116
C 74.38771274387712,20.924449170063202 74.63677874636777,19.99409297654912 74.719800747198,19.994092976549116
C 74.88584474885842,19.994092976549116 75.13491075134908,19.99409297654912 75.21793275217931,19.994092976549116
C 75.38397675383975,19.994092976549116 75.63304275633043,19.99409297654912 75.71606475716064,19.994092976549116
C 75.88210875882108,19.663299663299664 76.13117476131173,18.340126410301853 76.21419676214195,18.009333097052394
C 76.38024076380238,17.317226849390593 76.62930676629304,16.202768424990648 76.71232876712327,15.841455490578298
C 76.8783727687837,15.70854746293343 77.12743877127438,16.983480024415694 77.2104607721046,17.211884931183175
C 77.37650477376503,16.808238328706164 77.62557077625569,14.05162738496072 77.70859277708591,13.419575875716227
C 77.87463677874634,13.821253470376277 78.123702781237,18.588221395238936 78.20672478206723,19.62195049914348
C 78.37276878372766,20.717703349282296 78.62183478621834,19.932069230314845 78.70485678704856,19.994092976549116
C 78.870900788709,20.05611672278339 79.11996679119964,19.99409297654912 79.20298879202987,19.994092976549116
C 79.3690327936903,19.976371906196466 79.61809879618097,19.905487624785867 79.7011207970112,19.88776655443322
C 79.86716479867164,19.33742886959261 80.1162308011623,17.224683481993427 80.19925280199251,16.692066867505464
C 80.36529680365295,16.084627955972987 80.6143628061436,16.317955382282864 80.69738480697383,16.243133085238348
C 80.86342880863425,16.793470770078958 81.11249481112493,19.36893299466399 81.19551681195516,19.994092976549116
C 81.3615608136156,20.61925295843424 81.61062681610626,19.99409297654912 81.69364881693647,19.994092976549116
C 81.85969281859691,19.994092976549116 82.10875882108756,19.99409297654912 82.19178082191779,19.994092976549116
C 82.35782482357821,19.994092976549116 82.60689082606889,19.99409297654912 82.68991282689912,19.994092976549116
C 82.85595682855956,18.922952724122315 83.10502283105022,14.638391714415105 83.18804483188043,13.567251461988304
C 83.35408883354087,12.573887018331463 83.60315483603152,13.956130505838109 83.68617683686175,14.03390631460807
C 83.85222083852217,14.545848347017937 84.10128684101285,16.204737432807608 84.18430884184308,16.638903656447514
C 84.35035284350352,16.60739953137614 84.59941884599418,14.310551912891093 84.68244084682439,13.84488156417981
C 84.84848484848483,13.560359934628941 85.09755085097548,14.750625159981887 85.1805728518057,14.9317738791423
C 85.34661685346613,15.931045346250023 85.59568285595681,19.02238761887885 85.67870485678704,19.840510366826155
C 85.84474885844747,20.5759347864611 86.09381486093811,19.42701872526434 86.17683686176835,19.344320396951975
C 86.34288086342877,19.36991749857247 86.59194686591945,19.885797546616264 86.67496886674967,19.994092976549116
C 86.84101286841009,19.08736487683856 87.09007887090077,14.918975328332055 87.173100871731,13.903951798688642
C 87.33914487339143,13.761198731958968 87.58821087588207,18.26530411325733 87.67123287671231,19.137574576171065
C 87.83727687837275,19.81195975348022 88.08634288086341,18.148148148148145 88.16936488169364,17.950262862543564
C 88.33540888335408,17.647035658731564 88.58447488584476,17.42355327150649 88.66749688667495,17.31821135329907
C 88.83354088833539,17.658849705633326 89.08260689082603,19.54811270600744 89.16562889165627,19.994092976549116
C 89.3316728933167,20.14472207454664 89.58073889580737,18.51733711382834 89.6637608966376,18.221985941284185
C 89.82980489829804,18.221985941284185 90.07887090078871,19.69874180400496 90.16189290161891,19.994092976549116
C 90.32793690327935,19.060783271309585 90.57700290576999,13.850788587630694 90.66002490660023,12.622127709847009
C 90.82606890826067,11.91623840746648 91.07513491075133,15.23598558686278 91.15815691158156,15.758757162265935
C 91.324200913242,16.96772796188001 91.57326691573267,19.189753283320538 91.65628891656287,19.875952507531455
C 91.82233291822331,20.34162285624274 92.07139892071395,18.773308130033275 92.15442092154419,18.55277925453364
C 92.32046492320463,17.2916297477701 92.56953092569529,13.349676098214111 92.65255292652552,12.309055466950204
C 92.81859692818595,10.556638509854883 93.06766293067663,8.750073837793137 93.15068493150683,8.038277511961724
C 93.31672893316727,9.319117096894876 93.5657949356579,18.001457065784553 93.64881693648815,19.994092976549116
C 93.81486093814858,21.986728887313685 94.06392694063925,19.99409297654912 94.14694894146947,19.994092976549116
C 94.31299294312991,19.994092976549116 94.56205894562059,19.99409297654912 94.64508094645079,19.994092976549116
C 94.81112494811123,19.994092976549116 95.06019095060189,19.99409297654912 95.14321295143212,19.994092976549116
C 95.30925695309254,19.994092976549116 95.55832295558321,19.99409297654912 95.64134495641343,19.994092976549116
C 95.80738895807387,19.994092976549116 96.05645496056455,19.99409297654912 96.13947696139475,19.994092976549116
C 96.30552096305519,19.994092976549116 96.55458696554585,19.99409297654912 96.63760896637608,19.994092976549116
C 96.8036529680365,19.994092976549116 97.05271897052717,19.99409297654912 97.1357409713574,19.994092976549116
C 97.30178497301783,19.06570579085199 97.55085097550851,15.35215704806348 97.63387297633871,14.423769862366354
C 97.79991697799915,14.421800854549394 98.04898298048981,19.055860751767185 98.13200498132004,19.98227892964735
C 98.29804898298046,19.92714671077244 98.54711498547113,15.074526945871975 98.63013698630135,14.0929765491169
C 98.79618098796179,14.09494555693386 99.04524699045247,19.010573571977083 99.12826899128267,19.994092976549116
C 99.2943129929431,20.97761238112115 99.54337899543377,19.99409297654912 99.626400996264,19.994092976549116
C 99.79244499792442,19.994092976549116 100.04151100041508,19.99409297654912 100.12453300124531,19.994092976549116
C 100.29057700290575,19.994092976549116 100.53964300539643,19.99409297654912 100.62266500622663,19.994092976549116
C 100.78870900788706,19.994092976549116 101.03777501037773,19.99409297654912 101.12079701120796,19.994092976549116
C 101.28684101286838,19.994092976549116 101.53590701535904,19.99409297654912 101.61892901618927,19.994092976549116
C 101.78497301784971,19.994092976549116 102.03403902034039,19.99409297654912 102.1170610211706,19.994092976549116
C 102.28310502283104,19.994092976549116 102.53217102532169,19.99409297654912 102.61519302615191,19.994092976549116
C 102.78123702781234,19.994092976549116 103.030303030303,19.99409297654912 103.11332503113323,19.994092976549116
C 103.27936903279367,19.994092976549116 103.52843503528435,19.99409297654912 103.61145703611456,19.994092976549116
C 103.77750103777502,19.994092976549116 104.02656704026565,19.99409297654912 104.10958904109587,19.994092976549116
C 104.2756330427563,19.994092976549116 104.52469904524696,19.99409297654912 104.60772104607719,19.994092976549116
C 104.77376504773763,19.994092976549116 105.0228310502283,19.99409297654912 105.10585305105852,19.994092976549116
C 105.27189705271898,19.994092976549116 105.5209630552096,19.99409297654912 105.60398505603983,19.994092976549116
C 105.77002905770026,19.994092976549116 106.01909506019092,19.99409297654912 106.10211706102115,19.994092976549116
C 106.26816106268159,19.994092976549116 106.51722706517226,19.99409297654912 106.60024906600248,19.994092976549116
C 106.76629306766294,19.994092976549116 107.01535907015356,19.99409297654912 107.09838107098379,19.994092976549116
C 107.26442507264422,19.994092976549116 107.51349107513488,19.99409297654912 107.5965130759651,19.994092976549116
C 107.76255707762554,19.994092976549116 108.01162308011622,19.99409297654912 108.09464508094644,19.994092976549116
C 108.2606890826069,19.994092976549116 108.50975508509752,19.99409297654912 108.59277708592775,19.994092976549116
C 108.75882108758817,19.994092976549116 109.00788709007884,19.99409297654912 109.09090909090907,19.994092976549116
C 109.2569530925695,19.994092976549116 109.50601909506018,19.99409297654912 109.5890410958904,19.994092976549116
C 109.75508509755086,19.994092976549116 110.00415110004148,19.99409297654912 110.08717310087171,19.994092976549116
C 110.25321710253216,19.994092976549116 110.50228310502281,19.99409297654912 110.58530510585304,19.994092976549116
C 110.75134910751348,19.994092976549116 111.00041511000416,19.99409297654912 111.08343711083435,19.994092976549116
C 111.24948111249479,19.994092976549116 111.49854711498544,19.99409297654912 111.58156911581567,19.994092976549116
C 111.74761311747612,19.994092976549116 111.99667911996677,19.99409297654912 112.079701120797,19.994092976549116
C 112.24574512245744,19.994092976549116 112.49481112494811,19.99409297654912 112.57783312577831,19.994092976549116
C 112.74387712743875,19.994092976549116 112.9929431299294,19.99409297654912 113.07596513075963,19.994092976549116
C 113.24200913242008,19.994092976549116 113.49107513491073,19.99409297654912 113.57409713574096,19.994092976549116
C 113.7401411374014,19.994092976549116 113.98920713989207,19.99409297654912 114.07222914072227,19.994092976549116
C 114.23827314238271,19.994092976549116 114.48733914487336,19.99409297654912 114.57036114570359,19.994092976549116
C 114.73640514736404,19.994092976549116 114.98547114985469,19.99409297654912 115.06849315068492,19.994092976549116
C 115.23453715234535,19.994092976549116 115.48360315483603,19.99409297654912 115.56662515566623,19.994092976549116
C 115.73266915732667,19.994092976549116 115.98173515981732,19.99409297654912 116.06475716064755,19.994092976549116
C 116.230801162308,19.994092976549116 116.47986716479865,19.99409297654912 116.56288916562887,19.994092976549116
C 116.72893316728931,19.994092976549116 116.97799916977999,19.99409297654912 117.06102117061019,19.994092976549116
C 117.22706517227063,19.994092976549116 117.47613117476129,19.99409297654912 117.55915317559152,19.994092976549116
C 117.72519717725197,19.994092976549116 117.97426317974261,19.99409297654912 118.05728518057283,19.994092976549116
C 118.22332918223327,19.994092976549116 118.47239518472395,19.99409297654912 118.55541718555415,19.994092976549116
C 118.72146118721459,19.994092976549116 118.97052718970525,19.99409297654912 119.05354919053548,19.994092976549116
C 119.21959319219593,19.994092976549116 119.46865919468657,19.99409297654912 119.55168119551679,19.994092976549116
C 119.71772519717723,19.994092976549116 119.96679119966791,19.99409297654912 120.04981320049811,19.994092976549116
C 120.21585720215855,19.994092976549116 120.46492320464921,19.99409297654912 120.54794520547944,19.994092976549116
C 120.71398920713989,19.994092976549116 120.96305520963053,19.99409297654912 121.04607721046075,19.994092976549116
C 121.21212121212119,19.994092976549116 121.46118721461187,19.99409297654912 121.54420921544207,19.994092976549116
C 121.7102532171025,19.994092976549116 121.95931921959317,19.99409297654912 122.0423412204234,19.994092976549116
C 122.20838522208385,19.994092976549116 122.45745122457448,19.99409297654912 122.54047322540471,19.994092976549116
C 122.70651722706515,19.994092976549116 122.95558322955583,19.99409297654912 123.03860523038603,19.994092976549116
C 123.20464923204646,19.994092976549116 123.45371523453713,19.99409297654912 123.53673723536735,19.994092976549116
C 123.7027812370278,19.994092976549116 123.95184723951844,19.99409297654912 124.03486924034867,19.994092976549116
C 124.20091324200911,19.994092976549116 124.44997924449979,19.99409297654912 124.53300124533,19.994092976549116
C 124.69904524699042,19.994092976549116 124.94811124948109,19.99409297654912 125.03113325031131,19.994092976549116
C 125.19717725197177,19.994092976549116 125.4462432544624,19.99409297654912 125.52926525529263,19.994092976549116
C 125.69530925695307,19.994092976549116 125.94437525944375,19.99409297654912 126.02739726027396,19.994092976549116
C 126.19344126193438,19.994092976549116 126.44250726442505,19.99409297654912 126.52552926525527,19.994092976549116
C 126.69157326691573,19.994092976549116 126.94063926940636,19.99409297654912 127.02366127023659,19.994092976549116
C 127.18970527189703,19.994092976549116 127.4387712743877,19.99409297654912 127.52179327521792,19.994092976549116
C 127.68783727687834,19.994092976549116 127.936903279369,19.99409297654912 128.01992528019923,19.994092976549116
C 128.18596928185968,19.994092976549116 128.43503528435033,19.99409297654912 128.51805728518056,19.994092976549116
C 128.684101286841,19.994092976549116 128.93316728933166,19.99409297654912 129.0161892901619,19.994092976549116
C 129.1822332918223,19.994092976549116 129.43129929431302,19.99409297654912 129.51432129514322,19.994092976549116
C 129.68036529680367,19.994092976549116 129.9294312992943,19.99409297654912 130.01245330012452,19.994092976549116
C 130.17849730178497,19.994092976549116 130.42756330427562,19.99409297654912 130.51058530510585,19.994092976549116
C 130.67662930676627,19.994092976549116 130.92569530925698,19.99409297654912 131.00871731008718,19.994092976549116
C 131.17476131174763,19.994092976549116 131.42382731423825,19.99409297654912 131.50684931506848,19.994092976549116
C 131.67289331672893,19.994092976549116 131.92195931921958,19.99409297654912 132.0049813200498,19.994092976549116
C 132.17102532171023,19.994092976549116 132.42009132420094,19.99409297654912 132.50311332503114,19.994092976549116
C 132.6691573266916,19.994092976549116 132.9182233291822,19.99409297654912 133.00124533001244,19.994092976549116
C 133.1672893316729,19.994092976549116 133.41635533416354,19.99409297654912 133.49937733499377,19.994092976549116
C 133.6654213366542,19.994092976549116 133.9144873391449,19.99409297654912 133.9975093399751,19.994092976549116
C 134.16355334163555,19.994092976549116 134.41261934412617,19.99409297654912 134.4956413449564,19.994092976549116
C 134.66168534661685,19.994092976549116 134.9107513491075,19.99409297654912 134.99377334993773,19.994092976549116
C 135.15981735159815,19.994092976549116 135.40888335408886,19.99409297654912 135.49190535491906,19.994092976549116
C 135.6579493565795,19.994092976549116 135.90701535907013,19.99409297654912 135.99003735990036,19.994092976549116
C 136.1560813615608,19.994092976549116 136.40514736405146,19.99409297654912 136.48816936488168,19.994092976549116
C 136.6542133665421,19.994092976549116 136.90327936903282,19.99409297654912 136.986301369863,19.994092976549116
C 137.15234537152347,19.994092976549116 137.4014113740141,19.99409297654912 137.48443337484431,19.994092976549116
C 137.65047737650477,19.994092976549116 137.89954337899542,19.99409297654912 137.98256537982564,19.994092976549116
C 138.14860938148607,19.994092976549116 138.39767538397678,19.99409297654912 138.48069738480697,19.994092976549116
C 138.64674138646743,19.994092976549116 138.89580738895805,19.99409297654912 138.97882938978827,19.994092976549116
C 139.14487339144873,19.994092976549116 139.39393939393938,19.99409297654912 139.4769613947696,19.994092976549116
C 139.64300539643003,19.994092976549116 139.89207139892073,19.99409297654912 139.97509339975093,19.994092976549116
C 140.14113740141138,19.994092976549116 140.390203403902,19.99409297654912 140.47322540473223,19.994092976549116
C 140.63926940639269,19.994092976549116 140.88833540888334,19.99409297654912 140.97135740971356,19.994092976549116
C 141.137401411374,19.994092976549116 141.3864674138647,19.99409297654912 141.4694894146949,19.994092976549116
C 141.63553341635534,19.994092976549116 141.88459941884597,19.99409297654912 141.9676214196762,19.994092976549116
C 142.13366542133664,19.994092976549116 142.3827314238273,19.99409297654912 142.46575342465752,19.994092976549116
C 142.63179742631795,19.994092976549116 142.88086342880865,19.99409297654912 142.96388542963885,19.994092976549116
C 143.1299294312993,19.994092976549116 143.37899543378995,19.99409297654912 143.46201743462018,19.994092976549116
C 143.62806143628063,19.994092976549116 143.87712743877125,19.99409297654912 143.96014943960148,19.994092976549116
C 144.1261934412619,19.994092976549116 144.3752594437526,19.99409297654912 144.4582814445828,19.994092976549116
C 144.62432544624326,19.994092976549116 144.8733914487339,19.99409297654912 144.95641344956414,19.994092976549116
C 145.1224574512246,19.994092976549116 145.3715234537152,19.99409297654912 145.45454545454544,19.994092976549116
C 145.62058945620586,19.994092976549116 145.86965545869657,19.99409297654912 145.95267745952677,19.994092976549116
C 146.11872146118722,19.994092976549116 146.36778746367787,19.99409297654912 146.4508094645081,19.994092976549116
C 146.61685346616855,19.994092976549116 146.86591946865917,19.99409297654912 146.9489414694894,19.994092976549116
C 147.11498547114982,19.994092976549116 147.36405147364053,19.99409297654912 147.44707347447073,19.994092976549116
C 147.61311747613118,19.994092976549116 147.86218347862183,19.99409297654912 147.94520547945206,19.994092976549116
C 148.1112494811125,19.994092976549116 148.36031548360313,19.99409297654912 148.44333748443336,19.994092976549116
C 148.60938148609378,19.994092976549116 148.8584474885845,19.99409297654912 148.9414694894147,19.994092976549116
C 149.10751349107514,19.994092976549116 149.3565794935658,19.99409297654912 149.43960149439602,19.994092976549116
C 149.60564549605647,19.994092976549116 149.8547114985471,19.99409297654912 149.93773349937732,19.994092976549116
C 150.10377750103774,19.994092976549116 150.35284350352845,19.99409297654912 150.43586550435865,19.994092976549116
C 150.6019095060191,19.994092976549116 150.85097550850975,19.99409297654912 150.93399750933997,19.994092976549116
C 151.10004151100043,19.994092976549116 151.34910751349105,19.99409297654912 151.43212951432128,19.994092976549116
C 151.5981735159817,19.994092976549116 151.8472395184724,19.99409297654912 151.9302615193026,19.994092976549116
C 152.09630552096306,19.994092976549116 152.3453715234537,19.99409297654912 152.42839352428393,19.994092976549116
C 152.5944375259444,19.994092976549116 152.843503528435,19.99409297654912 152.92652552926523,19.994092976549116
C 153.09256953092566,19.994092976549116 153.34163553341637,19.99409297654912 153.42465753424656,19.994092976549116
C 153.59070153590702,19.994092976549116 153.83976753839767,19.99409297654912 153.9227895392279,19.994092976549116
C 154.08883354088834,19.994092976549116 154.33789954337897,19.99409297654912 154.4209215442092,19.994092976549116
C 154.58696554586962,19.994092976549116 154.83603154836032,19.99409297654912 154.91905354919052,19.994092976549116
C 155.08509755085097,19.994092976549116 155.33416355334163,19.99409297654912 155.41718555417185,19.994092976549116
C 155.5832295558323,19.994092976549116 155.83229555832293,19.99409297654912 155.91531755915315,19.994092976549116
C 156.08136156081358,19.994092976549116 156.33042756330428,19.99409297654912 156.41344956413448,19.994092976549116
C 156.57949356579493,19.994092976549116 156.82855956828558,19.99409297654912 156.9115815691158,19.994092976549116
C 157.07762557077626,19.994092976549116 157.32669157326688,19.99409297654912 157.4097135740971,19.994092976549116
C 157.57575757575754,19.994092976549116 157.82482357824824,19.99409297654912 157.90784557907844,19.994092976549116
C 158.0738895807389,19.994092976549116 158.32295558322954,19.99409297654912 158.40597758405977,19.994092976549116
C 158.57202158572022,19.994092976549116 158.82108758821087,19.99409297654912 158.9041095890411,19.994092976549116
C 159.07015359070152,19.994092976549116 159.3192195931922,19.99409297654912 159.4022415940224,19.994092976549116
C 159.56828559568285,19.994092976549116 159.8173515981735,19.99409297654912 159.90037359900373,19.994092976549116
C 160.06641760066418,19.994092976549116 160.31548360315483,19.99409297654912 160.39850560398506,19.994092976549116
C 160.56454960564548,19.994092976549116 160.81361560813616,19.99409297654912 160.89663760896636,19.994092976549116
C 161.0626816106268,19.994092976549116 161.31174761311746,19.99409297654912 161.3947696139477,19.994092976549116
C 161.56081361560814,19.994092976549116 161.8098796180988,19.99409297654912 161.89290161892902,19.994092976549116
C 162.05894562058944,19.994092976549116 162.30801162308012,19.99409297654912 162.39103362391032,19.994092976549116
C 162.55707762557077,19.994092976549116 162.80614362806142,19.99409297654912 162.88916562889165,19.994092976549116
C 163.0552096305521,19.994092976549116 163.30427563304275,19.99409297654912 163.38729763387298,19.994092976549116
C 163.5533416355334,19.994092976549116 163.80240763802408,19.99409297654912 163.88542963885428,19.994092976549116
C 164.05147364051473,19.994092976549116 164.30053964300538,19.99409297654912 164.3835616438356,19.994092976549116
C 164.54960564549606,19.994092976549116 164.7986716479867,19.99409297654912 164.88169364881693,19.994092976549116
C 165.04773765047736,19.994092976549116 165.29680365296804,19.99409297654912 165.37982565379824,19.994092976549116
C 165.5458696554587,19.994092976549116 165.79493565794934,19.99409297654912 165.87795765877956,19.994092976549116
C 166.04400166044002,19.994092976549116 166.29306766293067,19.99409297654912 166.3760896637609,19.994092976549116
C 166.54213366542132,19.994092976549116 166.791199667912,19.99409297654912 166.8742216687422,19.994092976549116
C 167.04026567040265,19.994092976549116 167.2893316728933,19.99409297654912 167.37235367372352,19.994092976549116
C 167.53839767538398,19.994092976549116 167.78746367787463,19.99409297654912 167.87048567870485,19.994092976549116
C 168.03652968036528,19.994092976549116 168.28559568285596,19.99409297654912 168.36861768368615,19.994092976549116
C 168.5346616853466,19.994092976549116 168.78372768783726,19.99409297654912 168.86674968866748,19.994092976549116
C 169.03279369032794,19.994092976549116 169.28185969281859,19.99409297654912 169.3648816936488,19.994092976549116
C 169.53092569530924,19.994092976549116 169.77999169779991,19.99409297654912 169.8630136986301,19.994092976549116
C 170.02905770029056,19.994092976549116 170.27812370278122,19.99409297654912 170.36114570361144,19.994092976549116
C 170.5271897052719,19.994092976549116 170.77625570776254,19.99409297654912 170.85927770859277,19.994092976549116
C 171.02532171025322,19.994092976549116 171.27438771274387,19.99409297654912 171.35740971357407,19.994092976549116
C 171.52345371523452,19.994092976549116 171.7725197177252,19.99409297654912 171.8555417185554,19.994092976549116
C 172.02158572021585,19.994092976549116 172.2706517227065,19.99409297654912 172.35367372353673,19.994092976549116
C 172.51971772519718,19.994092976549116 172.76878372768783,19.99409297654912 172.85180572851803,19.994092976549116
C 173.01784973017848,19.994092976549116 173.26691573266916,19.99409297654912 173.34993773349936,19.994092976549116
C 173.5159817351598,19.994092976549116 173.76504773765046,19.99409297654912 173.8480697384807,19.994092976549116
C 174.01411374014114,19.994092976549116 174.26317974263182,19.99409297654912 174.34620174346202,19.994092976549116
C 174.51224574512244,19.994092976549116 174.76131174761312,19.99409297654912 174.84433374844332,19.994092976549116
C 175.01037775010377,19.994092976549116 175.25944375259442,19.99409297654912 175.34246575342465,19.994092976549116
C 175.5085097550851,19.994092976549116 175.75757575757578,19.99409297654912 175.84059775840598,19.994092976549116
C 176.0066417600664,19.994092976549116 176.25570776255708,19.99409297654912 176.33872976338728,19.994092976549116
C 176.50477376504773,19.994092976549116 176.75383976753838,19.99409297654912 176.8368617683686,19.994092976549116
C 177.00290577002906,19.994092976549116 177.25197177251974,19.99409297654912 177.33499377334994,19.994092976549116
C 177.50103777501036,20.00295351172544 177.75010377750104,20.038395652430744 177.83312577833124,20.047256187607065
C 177.9991697799917,20.047256187607065 178.24823578248234,20.002953511725444 178.33125778331257,19.994092976549116
C 178.49730178497302,19.987201449189754 178.7463677874637,20.00393801563392 178.8293897882939,20.00590702345088
C 178.99543378995432,19.96554236320318 179.244499792445,19.794238683127574 179.3275217932752,19.75190501506291
C 179.49356579493565,19.75387402287987 179.7426317974263,19.97341839447102 179.82565379825652,20.017721070352646
C 179.99169779991698,20.058085730600347 180.24076380240766,19.99803099218304 180.32378580323785,19.994092976549116
C 180.48982980489828,19.990154960915195 180.73889580738896,19.99409297654912 180.82191780821915,19.994092976549116
C 180.9879618098796,19.994092976549116 181.23702781237026,19.99409297654912 181.32004981320048,19.994092976549116
C 181.48609381486094,19.949790300667495 181.73515981735162,19.772579597141 181.8181818181818,19.728276921259376
C 181.90120381901204,19.68397424537775 181.81818181818184,19.728276921259376 181.8181818181818,19.728276921259376
" ></path>
  </svg>
