  <svg id="graph" xmlns="http://www.w3.org/2000/svg" class='w-full' width='200' height='30' viewbox="0 0 300.0 20">
  <path fill="none" class='stroke-2 stroke-amber-900 dark:stroke-amber-300' d="M 0.49813200498132,19.994092976549116
C 0.58115400581154,15.702640439482543 0.91324200913242,14.934727390867742 0.99626400996264,14.74274912871404
C 1.16230801162308,14.35780810049816 1.4113740141137399,13.777935298403134 1.49439601494396,13.584972532340954
C 1.6604400166044,13.32900151613602 1.90950601909506,13.269931281627187 1.99252801992528,13.206923031484434
C 2.15857202158572,14.273140764368833 2.4076380240763804,18.853052946620195 2.4906600249066,19.98227892964735
C 2.65670402656704,21.01305452182645 2.9057700290577,19.490026975407094 2.98879202988792,19.39157658455904
C 3.15483603154836,16.81906787169945 3.4039020340390196,7.0212849745013495 3.4869240348692396,4.547226652489812
C 3.652968036529679,2.4925669954909737 3.90203403902034,6.64421997755331 3.98505603985056,7.063618642566011
C 4.1511000415109995,8.952881642940122 4.400166044001659,14.41294031937307 4.48318804483188,15.88280465473448
C 4.64923204649232,17.487546025557723 4.89829804898298,16.557189832043637 4.9813200498132,16.692066867505464
C 5.14736405147364,16.498119597534803 5.396430053964299,15.047945340343 5.47945205479452,14.71912103491051
C 5.64549605645496,15.26945871975112 5.8945620589456205,19.114930986276015 5.9775840597758405,19.994092976549116
C 6.143628061436281,20.873254966822216 6.392694063926942,19.99409297654912 6.47571606475716,19.994092976549116
C 6.6417600664176,19.994092976549116 6.89082606890826,19.99409297654912 6.97384806973848,19.994092976549116
C 7.139892071398921,19.994092976549116 7.3889580738895795,19.99409297654912 7.4719800747198,19.994092976549116
C 7.63802407638024,18.629570559395123 7.887090078870901,13.171480890779135 7.97011207970112,11.80695847362514
C 8.136156081361559,13.171480890779137 8.385222083852218,25.4521826451651 8.46824408468244,28.18122747947309
C 8.63428808634288,29.545749896627086 8.883354088833538,21.358615393703108 8.96637608966376,19.994092976549116
C 9.1324200913242,17.780928190284914 9.381486093814859,15.750881130998089 9.46450809464508,14.902238761887885
C 9.63055209630552,14.902238761887885 9.87961809879618,19.14545060743891 9.9626400996264,19.994092976549116
C 10.12868410128684,20.84273534565932 10.3777501037775,19.99409297654912 10.46077210460772,19.994092976549116
C 10.62681610626816,19.994092976549116 10.875882108758821,19.99409297654912 10.95890410958904,19.994092976549116
C 11.12494811124948,19.994092976549116 11.374014113740143,19.99409297654912 11.45703611457036,19.994092976549116
C 11.6230801162308,19.994092976549116 11.87214611872146,19.99409297654912 11.95516811955168,19.994092976549116
C 12.12121212121212,18.939689290566484 12.37027812370278,14.722074546635952 12.453300124533,13.667670860653319
C 12.61934412619344,11.359009195266509 12.868410128684102,7.396380963632427 12.95143212951432,6.142122984228248
C 13.117476131174762,6.942524661822908 13.366542133665419,16.41542126922244 13.44956413449564,18.470080926221275
C 13.615608136156082,18.982022958631145 13.864674138646741,10.75649280327643 13.94769613947696,9.21377517868746
C 14.113740141137399,9.467777187075432 14.362806143628061,18.197373343572174 14.44582814445828,19.994092976549116
C 14.61187214611872,20.37706499694804 14.860938148609378,12.925354913659007 14.943960149439599,11.511607301080986
C 15.110004151100041,10.314450548368677 15.3590701535907,12.594561600409556 15.44209215442092,12.811152460275268
C 15.608136156081358,14.22490007285329 15.85720215857202,18.796936223836813 15.94022415940224,19.994092976549116
C 16.10626816106268,20.412507137653336 16.355334163553337,16.100380018508673 16.43835616438356,15.321637426900585
C 16.604400166043998,14.50843719849568 16.85346616853466,15.149349242916495 16.93648816936488,15.114891606119677
C 17.102532171025317,15.893634197727765 17.351598173515978,19.18089274814421 17.434620174346197,19.994092976549116
C 17.60066417600664,19.1917222911375 17.849730178497296,11.916238407466478 17.93275217932752,10.30066749364995
C 18.098796180987957,10.300667493649948 18.347862183478615,18.37852206273259 18.430884184308837,19.994092976549116
C 18.596928185969276,21.609663890365642 18.84599418845994,19.99409297654912 18.92901618929016,19.994092976549116
C 19.0950601909506,18.656152164924094 19.34412619344126,13.304388918424005 19.427148194271478,11.966448106798985
C 19.593192195931916,10.627522791265484 19.842258198422574,11.961525587256581 19.925280199252796,11.960541083348101
C 20.091324200913235,12.36123417409967 20.3403902034039,13.968929056648355 20.42341220423412,14.370606651308405
C 20.58945620589456,15.709531966841906 20.838522208385218,19.056845255675665 20.921544209215437,19.994092976549116
C 21.087588210875875,20.931340697422566 21.33665421336654,19.99409297654912 21.41967621419676,19.994092976549116
C 21.585720215857197,19.994092976549116 21.834786218347855,19.99409297654912 21.917808219178077,19.994092976549116
C 22.08385222083852,19.67117569456751 22.332918223329177,18.37950656664107 22.4159402241594,18.05658928465946
C 22.581984225819838,17.607655502392344 22.831050228310502,17.426506783231925 22.914072229140718,17.300490282946424
C 23.080116230801156,16.410498749680038 23.329182233291814,13.480615118042019 23.412204234122036,12.716640085061139
C 23.57824823578248,12.276566837970348 23.827314238273136,14.33614901451159 23.91033623910336,14.66005080040168
C 24.076380240763797,15.872959615649675 24.32544624325446,19.10508594719121 24.408468244084677,19.994092976549116
C 24.574512245745115,20.88113099809006 24.823578248235776,19.984247937464314 24.906600249066,19.98227892964735
C 25.072644250726437,17.859688502963355 25.321710253217095,9.379171835312187 25.404732254047317,7.2585504164451535
C 25.570776255707756,5.833973260873846 25.81984225819842,10.73877173292378 25.90286425902864,11.434815996219506
C 26.068908260689085,13.201016008033553 26.317974263179735,16.785594738811113 26.400996264009958,17.855750487329434
C 26.567040265670396,19.282296650717704 26.816106268161054,19.63770256167917 26.899128268991277,19.994092976549116
C 27.065172270651715,19.57370980762794 27.31423827314238,16.11022505759348 27.3972602739726,15.33345147380235
C 27.563304275633044,15.33345147380235 27.812370278123694,19.21731939275799 27.895392278953917,19.994092976549116
C 28.06143628061436,20.77086656034024 28.31050228310502,19.99409297654912 28.39352428393524,19.994092976549116
C 28.559568285595677,19.92320869513852 28.808634288086342,19.63967156949613 28.891656288916558,19.56878728808553
C 29.057700290577,18.91999921239687 29.306766293067653,16.679268316695214 29.389788293897876,16.101364522417153
C 29.555832295558318,15.083387481048298 29.80489829804898,13.900998286963201 29.887920298879198,13.460925039872409
C 30.053964300539636,12.995254691161124 30.3030303030303,13.332939531769943 30.386052303860517,13.307342430149449
C 30.55209630552096,13.303404414515526 30.801162308011616,13.415637860082304 30.88418430884184,13.437296946068876
C 31.05022831050228,13.651918798117629 31.299294312992938,14.402110776379784 31.382316313823157,14.595073542441964
C 31.548360315483595,15.687872880855336 31.79742631797426,19.094256404197925 31.88044831880448,19.994092976549116
C 32.046492320464914,19.68003622974383 32.29555832295558,13.92462638076673 32.3785803237858,12.710733061610254
C 32.54462432544624,11.627778762281686 32.79369032793689,13.3654281607498 32.87671232876712,13.496367180577709
C 33.04275633042756,12.863331167424738 33.29182233291822,9.676492015673302 33.37484433374844,8.912516982692422
C 33.54088833540888,9.349636718057772 33.78995433789955,14.91799082442357 33.872976338729764,16.119085592769803
C 34.0390203403902,17.14100064977258 34.28808634288085,15.223187036052535 34.37110834371108,15.04400732470908
C 34.53715234537152,13.287652351979839 34.78621834786218,7.15813101778014 34.8692403486924,5.580955756394353
C 35.03528435035284,5.601630338472444 35.28435035284351,13.570204973713748 35.36737235367372,15.168054817177625
C 35.53341635533416,15.502786146060998 35.78248235782481,8.852462244275111 35.86550435865504,7.589343729694608
C 36.031548360315476,7.161084529505583 36.28061436280614,11.763640301651998 36.36363636363636,12.598499616043476
C 36.5296803652968,13.395947781912696 36.77874636778747,12.411443873432178 36.86176836861768,12.374032724909918
C 37.02781237027812,12.209620572193673 37.276878372768785,11.739027703939987 37.359900373599004,11.612026699745998
C 37.52594437525945,11.649437848268258 37.7750103777501,12.43408746332723 37.85803237858032,12.598499616043476
C 38.02407638024076,12.828873530627916 38.27314238273143,12.92830842538445 38.35616438356164,12.994270187252644
C 38.52220838522208,13.991572646543405 38.771274387712744,17.650973674365485 38.85429638854296,18.582314371788055
C 39.02034039020341,19.320692303148444 39.26940639269406,17.617500541477153 39.35242839352428,17.42453777541497
C 39.518472395184716,17.06716285663654 39.76753839767539,16.602477011833734 39.8505603985056,16.43806485911749
C 40.01660440016604,16.140744678756374 40.2656704026567,15.77352472089314 40.34869240348692,15.640616693248273
C 40.51473640514737,14.890424714986118 40.763802407638025,12.554196940161853 40.846824408468244,11.936912989544568
C 41.01286841012868,12.334652568570696 41.26193441261935,17.012030637761633 41.34495641344956,18.027054167405044
C 41.51100041511,18.37261503928171 41.76006641760066,14.679740878571288 41.84308841843088,14.010278220804537
C 42.009132420091326,12.992301179435684 42.258198422581984,12.267706302794025 42.3412204234122,11.91919191919192
C 42.50726442507264,12.057022466379195 42.756330427563306,14.350916573138795 42.83935242839352,14.83726150392817
C 43.00539643005396,15.29210230964617 43.25446243254462,14.679740878571288 43.33748443337484,14.648236753499912
C 43.503528435035285,15.507708665603401 43.75259443752594,19.10311693937425 43.83561643835616,19.994092976549116
C 44.0016604400166,20.88506901372398 44.25072644250727,19.99409297654912 44.333748443337484,19.994092976549116
C 44.49979244499792,19.994092976549116 44.74885844748858,19.99409297654912 44.8318804483188,19.994092976549116
C 44.997924449979244,19.994092976549116 45.2469904524699,19.99409297654912 45.33001245330012,19.994092976549116
C 45.49605645496056,19.994092976549116 45.74512245745123,19.99409297654912 45.82814445828144,19.994092976549116
C 45.99418845994188,19.994092976549116 46.24325446243254,19.99409297654912 46.32627646326276,19.994092976549116
C 46.4923204649232,19.63081103431981 46.74138646741386,18.17768326540256 46.82440846824408,17.814401323173254
C 46.99045246990452,17.814401323173254 47.23951847239519,19.63081103431981 47.3225404732254,19.994092976549116
C 47.48858447488585,20.357374918778426 47.7376504773765,19.99409297654912 47.820672478206724,19.994092976549116
C 47.98671647986717,19.99803099218304 48.23578248235782,20.013783054718726 48.31880448318804,20.017721070352646
C 48.48484848484848,20.544430661389722 48.73391448733915,22.631578947368414 48.81693648816936,23.154350522771573
C 48.98298048982981,23.15041250713765 49.23204649232046,20.520802567586195 49.31506849315068,19.994092976549116
C 49.48111249481113,19.12772953708626 49.73017849730178,18.295823734420225 49.813200498132,17.956169885994445
C 49.979244499792436,17.531848701439344 50.22831050228311,17.532833205347824 50.31133250311332,17.4481658692185
C 50.477376504773765,17.164628743576113 50.726442507264416,16.453816921653175 50.80946450809464,16.254947132140114
C 50.97550850975509,16.34059897217792 51.224574512245745,17.67755527989446 51.307596513075964,17.96207690944533
C 51.473640514736395,18.585267883513495 51.72270651722707,19.65542363203182 51.80572851805728,19.994092976549116
C 51.971772519717724,20.332762321066415 52.220838522208375,19.99409297654912 52.3038605230386,19.994092976549116
C 52.46990452469905,19.48707346368165 52.718970527189704,17.458995412211785 52.80199252801992,16.95197589934432
C 52.968036529680354,16.841711461594503 53.217102532171026,18.93575127493256 53.30012453300124,19.33250635005021
C 53.46616853466168,19.839525862917675 53.715234537152334,19.8838285387993 53.79825653798256,19.994092976549116
C 53.964300539643006,19.157264654340675 54.21336654213366,15.25862917675783 54.29638854296388,14.311536416799575
C 54.46243254462431,14.103806092110185 54.711498547114985,18.00834859314391 54.7945205479452,18.74771102841278
C 54.96056454960564,19.694803788371036 55.20963055209629,19.786362651859726 55.29265255292652,19.994092976549116
C 55.458696554586965,20.201823301238505 55.70776255707762,19.99409297654912 55.79078455790784,19.994092976549116
C 55.95682855956827,19.994092976549116 56.205894562058944,19.99409297654912 56.28891656288916,19.994092976549116
C 56.4549605645496,19.89662708960955 56.70402656704025,19.50676354185126 56.78704856787048,19.40929765491169
C 56.953092569530924,18.905231653769665 57.20215857202158,17.37629708389942 57.2851805728518,16.96969696969697
C 57.45122457451223,16.164372772559908 57.7002905770029,14.976076555023923 57.78331257783312,14.577352472089315
C 57.94935657949356,15.081418473231338 58.19842258198421,19.09130289247248 58.28144458281444,19.994092976549116
C 58.44748858447488,20.89688306062575 58.69655458696554,19.99409297654912 58.77957658779576,19.994092976549116
C 58.94562058945619,19.994092976549116 59.19468659194686,19.99409297654912 59.27770859277708,19.994092976549116
C 59.44375259443752,19.994092976549116 59.69281859692817,19.99409297654912 59.7758405977584,19.994092976549116
C 59.94188459941884,19.994092976549116 60.1909506019095,19.99409297654912 60.27397260273972,19.994092976549116
C 60.44001660440015,19.994092976549116 60.68908260689082,19.99409297654912 60.77210460772104,19.994092976549116
C 60.93814860938148,19.994092976549116 61.18721461187213,19.99409297654912 61.27023661270236,19.994092976549116
C 61.4362806143628,19.994092976549116 61.68534661685346,19.99409297654912 61.76836861768368,19.994092976549116
C 61.93441261934411,19.994092976549116 62.18347862183478,19.99409297654912 62.266500622665,19.994092976549116
C 62.43254462432544,19.994092976549116 62.68161062681609,19.99409297654912 62.76463262764632,19.994092976549116
C 62.93067662930676,19.994092976549116 63.17974263179743,19.99409297654912 63.26276463262764,19.994092976549116
C 63.42880863428808,19.994092976549116 63.67787463677874,19.99409297654912 63.76089663760896,19.994092976549116
C 63.9269406392694,19.994092976549116 64.17600664176005,19.99409297654912 64.25902864259028,19.994092976549116
C 64.42507264425072,19.994092976549116 64.67413864674138,19.99409297654912 64.7571606475716,19.994092976549116
C 64.92320464923203,19.994092976549116 65.1722706517227,19.99409297654912 65.25529265255291,19.994092976549116
C 65.42133665421336,19.994092976549116 65.67040265670401,19.99409297654912 65.75342465753424,19.994092976549116
C 65.91946865919468,19.994092976549116 66.16853466168534,19.99409297654912 66.25155666251555,19.994092976549116
C 66.41760066417599,19.994092976549116 66.66666666666666,19.99409297654912 66.74968866749687,19.994092976549116
C 66.91573266915732,19.994092976549116 67.16479867164797,19.99409297654912 67.2478206724782,19.994092976549116
C 67.41386467413864,19.994092976549116 67.6629306766293,19.99409297654912 67.74595267745951,19.994092976549116
C 67.91199667911995,19.994092976549116 68.16106268161062,19.99409297654912 68.24408468244083,19.994092976549116
C 68.41012868410128,19.994092976549116 68.65919468659193,19.99409297654912 68.74221668742216,19.994092976549116
C 68.9082606890826,19.994092976549116 69.15732669157326,19.99409297654912 69.24034869240347,19.994092976549116
C 69.40639269406391,19.994092976549116 69.65545869655458,19.99409297654912 69.73848069738479,19.994092976549116
C 69.90452469904524,19.994092976549116 70.15359070153589,19.99409297654912 70.23661270236612,19.994092976549116
C 70.40265670402655,19.994092976549116 70.65172270651722,19.99409297654912 70.73474470734743,19.994092976549116
C 70.90078870900787,19.994092976549116 71.14985471149853,19.99409297654912 71.23287671232875,19.994092976549116
C 71.3989207139892,19.994092976549116 71.64798671647985,19.99409297654912 71.73100871731008,19.994092976549116
C 71.89705271897051,19.994092976549116 72.14611872146118,19.99409297654912 72.22914072229139,19.994092976549116
C 72.39518472395183,19.994092976549116 72.64425072644251,19.99409297654912 72.72727272727272,19.994092976549116
C 72.89331672893316,19.994092976549116 73.14238273142381,19.99409297654912 73.22540473225403,19.994092976549116
C 73.39144873391446,19.994092976549116 73.64051473640512,19.99409297654912 73.72353673723535,19.994092976549116
C 73.88958073889579,19.994092976549116 74.13864674138647,19.99409297654912 74.22166874221668,19.994092976549116
C 74.38771274387712,19.994092976549116 74.63677874636777,19.99409297654912 74.719800747198,19.994092976549116
C 74.88584474885842,19.994092976549116 75.13491075134908,19.99409297654912 75.21793275217931,19.994092976549116
C 75.38397675383975,19.994092976549116 75.63304275633043,19.99409297654912 75.71606475716064,19.994092976549116
C 75.88210875882108,19.994092976549116 76.13117476131173,19.99409297654912 76.21419676214195,19.994092976549116
C 76.38024076380238,19.994092976549116 76.62930676629304,19.99409297654912 76.71232876712327,19.994092976549116
C 76.8783727687837,19.994092976549116 77.12743877127438,19.99409297654912 77.2104607721046,19.994092976549116
C 77.37650477376503,19.994092976549116 77.62557077625569,19.99409297654912 77.70859277708591,19.994092976549116
C 77.87463677874634,19.994092976549116 78.123702781237,19.99409297654912 78.20672478206723,19.994092976549116
C 78.37276878372766,19.994092976549116 78.62183478621834,19.99409297654912 78.70485678704856,19.994092976549116
C 78.870900788709,19.994092976549116 79.11996679119964,19.99409297654912 79.20298879202987,19.994092976549116
C 79.3690327936903,19.994092976549116 79.61809879618097,19.99409297654912 79.7011207970112,19.994092976549116
C 79.86716479867164,19.994092976549116 80.1162308011623,19.99409297654912 80.19925280199251,19.994092976549116
C 80.36529680365295,19.994092976549116 80.6143628061436,19.99409297654912 80.69738480697383,19.994092976549116
C 80.86342880863425,19.994092976549116 81.11249481112493,19.99409297654912 81.19551681195516,19.994092976549116
C 81.3615608136156,18.8934176068679 81.61062681610626,14.49071612814303 81.69364881693647,13.390040758461812
C 81.85969281859691,13.390040758461813 82.10875882108756,18.893417606867903 82.19178082191779,19.994092976549116
C 82.35782482357821,21.094768346230335 82.60689082606889,19.99409297654912 82.68991282689912,19.994092976549116
C 82.85595682855956,19.994092976549116 83.10502283105022,19.99409297654912 83.18804483188043,19.994092976549116
C 83.35408883354087,19.994092976549116 83.60315483603152,19.99409297654912 83.68617683686175,19.994092976549116
C 83.85222083852217,19.994092976549116 84.10128684101285,19.99409297654912 84.18430884184308,19.994092976549116
C 84.35035284350352,19.259653060822654 84.59941884599418,16.32189339791679 84.68244084682439,15.587453482190325
C 84.84848484848483,14.771299742059975 85.09755085097548,15.178884360170912 85.1805728518057,15.097170535767027
C 85.34661685346613,14.24360564711442 85.59568285595681,11.237915214523404 85.67870485678704,10.466064150274677
C 85.84474885844747,11.291078425581352 86.09381486093811,18.450390848051672 86.17683686176835,20.047256187607065
C 86.34288086342877,20.659617618681946 86.59194686591945,15.12473664520448 86.67496886674967,14.140232736723965
C 86.84101286841009,14.13137220154764 87.09007887090077,19.018449603244925 87.173100871731,19.994092976549116
C 87.33914487339143,20.96973634985331 87.58821087588207,19.99409297654912 87.67123287671231,19.994092976549116
C 87.83727687837275,19.994092976549116 88.08634288086341,19.99409297654912 88.16936488169364,19.994092976549116
C 88.33540888335408,19.994092976549116 88.58447488584476,19.99409297654912 88.66749688667495,19.994092976549116
C 88.83354088833539,19.994092976549116 89.08260689082603,19.99409297654912 89.16562889165627,19.994092976549116
C 89.3316728933167,19.994092976549116 89.58073889580737,19.99409297654912 89.6637608966376,19.994092976549116
C 89.82980489829804,19.994092976549116 90.07887090078871,19.99409297654912 90.16189290161891,19.994092976549116
C 90.32793690327935,19.994092976549116 90.57700290576999,19.99409297654912 90.66002490660023,19.994092976549116
C 90.82606890826067,19.994092976549116 91.07513491075133,19.99409297654912 91.15815691158156,19.994092976549116
C 91.324200913242,19.994092976549116 91.57326691573267,19.99409297654912 91.65628891656287,19.994092976549116
C 91.82233291822331,19.994092976549116 92.07139892071395,19.99409297654912 92.15442092154419,19.994092976549116
C 92.32046492320463,19.994092976549116 92.56953092569529,19.99409297654912 92.65255292652552,19.994092976549116
C 92.81859692818595,19.279343138992264 93.06766293067663,16.42034378876484 93.15068493150683,15.705593951207986
C 93.31672893316727,15.052867859885403 93.5657949356579,16.01571268237935 93.64881693648815,16.07773642861362
C 93.81486093814858,16.792486266170474 94.06392694063925,19.34136688522653 94.14694894146947,19.994092976549116
C 94.31299294312991,20.6468190678717 94.56205894562059,19.99409297654912 94.64508094645079,19.994092976549116
C 94.81112494811123,19.994092976549116 95.06019095060189,19.99409297654912 95.14321295143212,19.994092976549116
C 95.30925695309254,19.994092976549116 95.55832295558321,19.99409297654912 95.64134495641343,19.994092976549116
C 95.80738895807387,19.994092976549116 96.05645496056455,19.99409297654912 96.13947696139475,19.994092976549116
C 96.30552096305519,19.994092976549116 96.55458696554585,19.99409297654912 96.63760896637608,19.994092976549116
C 96.8036529680365,19.994092976549116 97.05271897052717,19.99409297654912 97.1357409713574,19.994092976549116
C 97.30178497301783,19.994092976549116 97.55085097550851,19.99409297654912 97.63387297633871,19.994092976549116
C 97.79991697799915,19.994092976549116 98.04898298048981,19.99409297654912 98.13200498132004,19.994092976549116
C 98.29804898298046,18.87668104042373 98.54711498547113,14.407033295922185 98.63013698630135,13.289621359796799
C 98.79618098796179,12.24309370508201 99.04524699045247,13.644042766849786 99.12826899128267,13.714927048260382
C 99.2943129929431,14.83233898438577 99.54337899543377,18.94756532183433 99.626400996264,19.994092976549116
C 99.79244499792442,21.040620631263906 100.04151100041508,19.99409297654912 100.12453300124531,19.994092976549116
C 100.29057700290575,19.994092976549116 100.53964300539643,19.99409297654912 100.62266500622663,19.994092976549116
C 100.78870900788706,19.994092976549116 101.03777501037773,19.99409297654912 101.12079701120796,19.994092976549116
C 101.28684101286838,19.994092976549116 101.53590701535904,19.99409297654912 101.61892901618927,19.994092976549116
C 101.78497301784971,19.994092976549116 102.03403902034039,19.99409297654912 102.1170610211706,19.994092976549116
C 102.28310502283104,19.033217161872134 102.53217102532169,15.189713903164197 102.61519302615191,14.228838088487212
C 102.78123702781234,14.228838088487214 103.030303030303,19.033217161872134 103.11332503113323,19.994092976549116
C 103.27936903279367,20.9549687912261 103.52843503528435,19.99409297654912 103.61145703611456,19.994092976549116
C 103.77750103777502,19.994092976549116 104.02656704026565,19.99409297654912 104.10958904109587,19.994092976549116
C 104.2756330427563,19.994092976549116 104.52469904524696,19.99409297654912 104.60772104607719,19.994092976549116
C 104.77376504773763,19.994092976549116 105.0228310502283,19.99409297654912 105.10585305105852,19.994092976549116
C 105.27189705271898,19.9950774804576 105.5209630552096,19.99901549609152 105.60398505603983,20.0
C 105.77002905770026,20.0 106.01909506019092,19.9950774804576 106.10211706102115,19.994092976549116
C 106.26816106268159,19.993108472640635 106.51722706517226,19.99409297654912 106.60024906600248,19.994092976549116
C 106.76629306766294,19.992123968732155 107.01535907015356,19.984247937464314 107.09838107098379,19.98227892964735
C 107.26442507264422,19.98227892964735 107.51349107513488,19.992123968732155 107.5965130759651,19.994092976549116
C 107.76255707762554,19.996061984366076 108.01162308011622,19.99409297654912 108.09464508094644,19.994092976549116
C 108.2606890826069,19.946836788942054 108.50975508509752,19.75781203851379 108.59277708592775,19.710555850906726
C 108.75882108758817,19.710555850906726 109.00788709007884,19.946836788942054 109.09090909090907,19.994092976549116
C 109.2569530925695,20.04134916415618 109.50601909506018,19.99409297654912 109.5890410958904,19.994092976549116
C 109.75508509755086,19.994092976549116 110.00415110004148,19.99409297654912 110.08717310087171,19.994092976549116
C 110.25321710253216,19.992123968732155 110.50228310502281,19.984247937464314 110.58530510585304,19.98227892964735
C 110.75134910751348,19.98227892964735 111.00041511000416,19.992123968732155 111.08343711083435,19.994092976549116
C 111.24948111249479,19.996061984366076 111.49854711498544,19.99409297654912 111.58156911581567,19.994092976549116
C 111.74761311747612,20.075806800953 111.99667911996677,20.402662098568527 112.079701120797,20.48437592297241
C 112.24574512245744,20.67536968121763 112.49481112494811,21.0307755921791 112.57783312577831,21.140055526020436
C 112.74387712743875,21.005178490558606 112.9929431299294,19.919270679504596 113.07596513075963,19.67511371020143
C 113.24200913242008,19.48411995195621 113.49107513491073,19.94092976549117 113.57409713574096,19.994092976549116
C 113.7401411374014,20.047256187607065 113.98920713989207,19.99409297654912 114.07222914072227,19.994092976549116
C 114.23827314238271,19.852324413727924 114.48733914487336,19.285250162443145 114.57036114570359,19.14348159962195
C 114.73640514736404,19.14348159962195 114.98547114985469,19.852324413727924 115.06849315068492,19.994092976549116
C 115.23453715234535,20.069899777502116 115.48360315483603,19.664284167208145 115.56662515566623,19.598322405339946
C 115.73266915732667,19.458522850335715 115.98173515981732,19.22913343965976 116.06475716064755,19.155295646523715
C 116.230801162308,19.22125740839191 116.47986716479865,19.854293421544885 116.56288916562887,19.994092976549116
C 116.72893316728931,20.13389253155335 116.97799916977999,19.99409297654912 117.06102117061019,19.994092976549116
C 117.22706517227063,19.994092976549116 117.47613117476129,19.99409297654912 117.55915317559152,19.994092976549116
C 117.72519717725197,19.994092976549116 117.97426317974261,19.99409297654912 118.05728518057283,19.994092976549116
C 118.22332918223327,19.994092976549116 118.47239518472395,19.99409297654912 118.55541718555415,19.994092976549116
C 118.72146118721459,19.994092976549116 118.97052718970525,19.99409297654912 119.05354919053548,19.994092976549116
C 119.21959319219593,19.225195424025834 119.46865919468657,16.1496052139327 119.55168119551679,15.380707661409415
C 119.71772519717723,14.732904089629235 119.96679119966791,15.986177565124933 120.04981320049811,16.107271545868034
C 120.21585720215855,16.13089963967157 120.46492320464921,15.61994211117018 120.54794520547944,15.52247622423061
C 120.71398920713989,14.936696398684704 120.96305520963053,13.080906531198929 121.04607721046075,12.592592592592593
C 121.21212121212119,12.244078208990489 121.46118721461187,13.29159036761376 121.54420921544207,13.431389922617994
C 121.7102532171025,13.983696615275562 121.95931921959317,15.493925610884679 122.0423412204234,15.906432748538013
C 122.20838522208385,17.000216590859868 122.45745122457448,19.3128162718806 122.54047322540471,19.994092976549116
C 122.70651722706515,20.029535117254415 122.95558322955583,16.76492015673302 123.03860523038603,16.119085592769803
C 123.20464923204646,15.539212790674776 123.45371523453713,16.448894402110778 123.53673723536735,16.51485616397897
C 123.7027812370278,15.932029850158502 123.95184723951844,13.270915785535669 124.03486924034867,12.622127709847009
C 124.20091324200911,12.051115442928308 124.44997924449979,13.011006753696812 124.53300124533,13.088782562466774
C 124.69904524699042,13.662748341110914 124.94811124948109,15.569732411837672 125.03113325031131,16.065922381711854
C 125.19717725197177,15.994053596392774 125.4462432544624,13.225628605745568 125.52926525529263,12.657569850552308
C 125.69530925695307,11.655344871719143 125.94437525944375,10.48673873235277 126.02739726027396,10.05257250871286
C 126.19344126193438,10.183511528540768 126.44250726442505,12.878098726051944 126.52552926525527,13.44320396951976
C 126.69157326691573,13.810423927382994 126.94063926940636,12.453777541496839 127.02366127023659,12.255892255892256
C 127.18970527189703,12.572902514422983 127.4387712743877,14.830369976568809 127.52179327521792,15.345265520704118
C 127.68783727687834,15.274381239293518 127.936903279369,12.416366392974581 128.01992528019923,11.830586567428673
C 128.18596928185968,11.404296375056608 128.43503528435033,12.62803473329789 128.51805728518056,12.787524366471734
C 128.684101286841,13.169511882962174 128.93316728933166,13.900013783054717 129.0161892901619,14.122511666371315
C 129.1822332918223,14.10971311556107 129.43129929431302,12.946029495737095 129.51432129514322,12.710733061610254
C 129.68036529680367,13.072045996022602 129.9294312992943,15.693779904306218 130.01245330012452,16.290389272845413
C 130.17849730178497,16.879122610116763 130.42756330427562,16.251009116506193 130.51058530510585,16.243133085238348
C 130.67662930676627,15.79026128733731 130.92569530925698,14.018154252072383 131.00871731008718,13.573158485439189
C 131.17476131174763,13.549530391635656 131.42382731423825,15.679996849587491 131.50684931506848,16.101364522417153
C 131.67289331672893,16.282513241577565 131.92195931921958,14.900269754070926 132.0049813200498,14.66005080040168
C 132.17102532171023,14.410971311556109 132.42009132420094,14.615748124520055 132.50311332503114,14.60688758934373
C 132.6691573266916,14.504499182861757 132.9182233291822,14.139248232815483 133.00124533001244,14.045720361509835
C 133.1672893316729,13.802547896115145 133.41635533416354,13.297497391064644 133.49937733499377,13.147852796975604
C 133.6654213366542,13.150806308701045 133.9144873391449,13.910843326048003 133.9975093399751,14.063441431862485
C 134.16355334163555,15.03022426999035 134.41261934412617,18.13436509342942 134.4956413449564,18.948549825742806
C 134.66168534661685,19.061767775218065 134.9107513491075,15.443715911552168 134.99377334993773,14.74274912871404
C 135.15981735159815,13.974836080099239 135.40888335408886,14.408017799830665 135.49190535491906,14.34107153405399
C 135.6579493565795,14.768346230334535 135.90701535907013,16.812176344340088 135.99003735990036,17.306397306397304
C 136.1560813615608,18.24856754681316 136.40514736405146,19.546143698190484 136.48816936488168,19.994092976549116
C 136.6542133665421,20.44204225490775 136.90327936903282,19.99409297654912 136.986301369863,19.994092976549116
C 137.15234537152347,19.994092976549116 137.4014113740141,19.99409297654912 137.48443337484431,19.994092976549116
C 137.65047737650477,19.421111701813455 137.89954337899542,17.129186602870814 137.98256537982564,16.556205328135153
C 138.14860938148607,16.565065863311478 138.39767538397678,19.46541437769508 138.48069738480697,20.047256187607065
C 138.64674138646743,20.620237462342725 138.89580738895805,20.002953511725444 138.97882938978827,19.994092976549116
C 139.14487339144873,19.52350010829543 139.39393939393938,17.685431311162308 139.4769613947696,17.223698978084943
C 139.64300539643003,16.637919152539038 139.89207139892073,16.603461515742215 139.97509339975093,16.479414023273673
C 140.14113740141138,16.941146356351034 140.390203403902,19.40831315100321 140.47322540473223,19.994092976549116
C 140.63926940639269,20.57987280209502 140.88833540888334,19.99409297654912 140.97135740971356,19.994092976549116
C 141.137401411374,19.994092976549116 141.3864674138647,19.99409297654912 141.4694894146949,19.994092976549116
C 141.63553341635534,18.937720282749524 141.88459941884597,14.712229507551143 141.9676214196762,13.655856813751551
C 142.13366542133664,12.62606572548093 142.3827314238273,13.788764841396421 142.46575342465752,13.815346446925394
C 142.63179742631795,14.870734636816508 142.88086342880865,18.959379368736094 142.96388542963885,19.98818595309823
C 143.1299294312993,19.96849587492862 143.37899543378995,14.745702640439482 143.46201743462018,13.697205977907734
C 143.62806143628063,12.878098726051944 143.87712743877125,14.844153031287533 143.96014943960148,15.073542441963495
C 144.1261934412619,15.185775887530275 144.3752594437526,14.487762616417585 144.4582814445828,14.370606651308405
C 144.62432544624326,14.521235749305923 144.8733914487339,15.70953196684191 144.95641344956414,15.97731702994861
C 145.1224574512246,16.914564750822063 145.3715234537152,19.324630318782365 145.45454545454544,19.994092976549116
C 145.62058945620586,19.2370094709276 145.86965545869657,12.861362159607774 145.95267745952677,11.434815996219506
C 146.11872146118722,11.451552562663673 146.36778746367787,18.651229645381694 146.4508094645081,20.09451237521413
C 146.61685346616855,21.5210585386024 146.86591946865917,20.010829542993285 146.9489414694894,19.994092976549116
C 147.11498547114982,19.97735641010495 147.36405147364053,19.99409297654912 147.44707347447073,19.994092976549116
C 147.61311747613118,19.994092976549116 147.86218347862183,19.99409297654912 147.94520547945206,19.994092976549116
C 148.1112494811125,19.994092976549116 148.36031548360313,19.99409297654912 148.44333748443336,19.994092976549116
C 148.60938148609378,19.994092976549116 148.8584474885845,19.99409297654912 148.9414694894147,19.994092976549116
C 149.10751349107514,19.994092976549116 149.3565794935658,19.99409297654912 149.43960149439602,19.994092976549116
C 149.60564549605647,19.994092976549116 149.8547114985471,19.99409297654912 149.93773349937732,19.994092976549116
C 150.10377750103774,19.994092976549116 150.35284350352845,19.99409297654912 150.43586550435865,19.994092976549116
C 150.6019095060191,19.23405595920216 150.85097550850975,16.193907889814323 150.93399750933997,15.433870872467365
C 151.10004151100043,14.437552917085084 151.34910751349105,14.252466182290744 151.43212951432128,14.01618524425542
C 151.5981735159817,13.76907476322681 151.8472395184724,13.962037529288992 151.9302615193026,13.951207986295705
C 152.09630552096306,14.216039537676963 152.3453715234537,15.329513458168428 152.42839352428393,15.605174552542975
C 152.5944375259444,15.55791836493591 152.843503528435,13.990588142634929 152.92652552926523,13.667670860653319
C 153.09256953092566,12.551243428436413 153.34163553341637,9.700120109476837 153.42465753424656,8.906609959241539
C 153.59070153590702,8.776655443322111 153.83976753839767,12.224388130820879 153.9227895392279,12.887943765136749
C 154.08883354088834,13.05826294130388 154.33789954337897,10.421761474393055 154.4209215442092,9.928525016244315
C 154.58696554586962,9.662708960954575 154.83603154836032,11.06562703053931 154.91905354919052,11.29304743339831
C 155.08509755085097,12.910587355031799 155.33416355334163,18.243645027270755 155.41718555417185,19.633764546045246
C 155.5832295558323,21.083938803237046 155.83229555832293,19.93403823813181 155.91531755915315,19.994092976549116
C 156.08136156081358,19.066690294760473 156.33042756330428,15.056805875519325 156.41344956413448,14.069348455313369
C 156.57949356579493,12.830842538444882 156.82855956828558,12.81410597200071 156.9115815691158,12.563057475338178
C 157.07762557077626,13.550514895544138 157.32669157326688,18.75558705968063 157.4097135740971,19.994092976549116
C 157.57575757575754,21.16565262764093 157.82482357824824,19.65936164766574 157.90784557907844,19.592415381889065
C 158.0738895807389,17.424537775414965 158.32295558322954,9.087758678401952 158.40597758405977,6.986827337704531
C 158.57202158572022,5.9964164057731315 158.82108758821087,12.539429381534646 158.9041095890411,13.649949790300669
C 159.07015359070152,12.787524366471738 159.3192195931922,3.785220627325892 159.4022415940224,1.812274794730937
C 159.56828559568285,1.4883730088408467 159.8173515981735,10.057495028255264 159.90037359900373,11.706539074960128
C 160.06641760066418,14.736842105263158 160.31548360315483,18.61283399295095 160.39850560398506,19.994092976549116
C 160.56454960564548,21.37535196014728 160.81361560813616,19.99409297654912 160.89663760896636,19.994092976549116
C 161.0626816106268,19.14249709571347 161.31174761311746,15.736113572370881 161.3947696139477,14.884517691535235
C 161.56081361560814,13.755291708508082 161.8098796180988,13.496367180577709 161.89290161892902,13.218737078386201
C 162.05894562058944,13.06318546084628 162.30801162308012,13.82912950164412 162.39103362391032,13.951207986295705
C 162.55707762557077,13.981727607458602 162.80614362806142,13.493413668852265 162.88916562889165,13.401854805363579
C 163.0552096305521,13.862602634532463 163.30427563304275,16.163388268651424 163.38729763387298,16.715694961308994
C 163.5533416355334,17.811447811447806 163.80240763802408,19.432925748715224 163.88542963885428,19.976371906196466
C 164.05147364051473,19.133636560537145 164.30053964300538,13.04546439049363 164.3835616438356,11.659282887353063
C 164.54960564549606,10.35481520861638 164.7986716479867,12.067852009372475 164.88169364881693,12.14956583377636
C 165.04773765047736,12.43704097505267 165.29680365296804,13.178372418138501 165.37982565379824,13.384133735010929
C 165.5458696554587,13.424498395258631 165.79493565794934,12.557150451887296 165.87795765877956,12.391753795262568
C 166.04400166044002,12.630988245023334 166.29306766293067,14.41490932719003 166.3760896637609,14.819540433575522
C 166.54213366542132,15.52346072813909 166.791199667912,16.315986374465904 166.8742216687422,16.615275562643983
C 167.04026567040265,16.54931380077579 167.2893316728933,14.789020812412625 167.37235367372352,14.423769862366354
C 167.53839767538398,13.82420698210172 167.78746367787463,13.252210211274539 167.87048567870485,13.017898281056176
C 168.03652968036528,13.583003524523994 168.28559568285596,17.014984149487073 168.36861768368615,17.814401323173254
C 168.5346616853466,17.18136531002028 168.78372768783726,10.652135388977493 168.86674968866748,9.219682202138342
C 169.03279369032794,9.58296414436765 169.28185969281859,18.198357847480654 169.3648816936488,19.994092976549116
C 169.53092569530924,21.789828105617577 169.77999169779991,19.99409297654912 169.8630136986301,19.994092976549116
C 170.02905770029056,19.21141236930711 170.27812370278122,16.08068994033906 170.36114570361144,15.298009333097053
C 170.5271897052719,13.78679583357946 170.77625570776254,11.655344871719143 170.85927770859277,10.926811979443558
C 171.02532171025322,9.891113867722055 171.27438771274387,9.390985882213952 171.35740971357407,9.083820662768032
C 171.52345371523452,9.947230590505443 171.7725197177252,14.936696398684703 171.8555417185554,16.107271545868034
C 172.02158572021585,17.460964420028745 172.2706517227065,17.02286018075492 172.35367372353673,17.205977907732294
C 172.51971772519718,16.841711461594503 172.76878372768783,14.469057042156457 172.85180572851803,13.92167286904129
C 173.01784973017848,13.455018016421526 173.26691573266916,14.3253194715183 173.34993773349936,14.406048792013705
C 173.5159817351598,14.30267588162325 173.76504773765046,13.485537637584422 173.8480697384807,13.301435406698564
C 174.01411374014114,14.23277610412113 174.26317974263182,18.878650048240694 174.34620174346202,19.994092976549116
C 174.51224574512244,21.10953590485754 174.76131174761312,19.99409297654912 174.84433374844332,19.994092976549116
C 175.01037775010377,19.036170673597574 175.25944375259442,15.204481461791403 175.34246575342465,14.24655915883986
C 175.5085097550851,13.071061492114126 175.75757575757578,13.158682339968891 175.84059775840598,12.941106976194696
C 176.0066417600664,12.89188178077067 176.25570776255708,13.782857817945539 176.33872976338728,13.951207986295705
C 176.50477376504773,14.793943331955026 176.75383976753838,17.323133872841474 176.8368617683686,17.99751905015063
C 177.00290577002906,17.5190501506291 177.25197177251974,12.233248665997207 177.33499377334994,11.08039458916652
C 177.50103777501036,10.088014649418161 177.75010377750104,11.882765274578139 177.83312577833124,12.043239411660464
C 177.9991697799917,13.079922027290449 178.24823578248234,16.424281804398763 178.33125778331257,17.300490282946424
C 178.49730178497302,17.39401815425207 178.7463677874637,13.387087246736371 178.8293897882939,12.604406639494359
C 178.99543378995432,11.992045208419476 179.244499792445,13.456002520330005 179.3275217932752,13.626321696497135
C 179.49356579493565,14.19339594778191 179.7426317974263,15.610097072085376 179.82565379825652,16.006852147203023
C 179.99169779991698,16.270699194675803 180.24076380240766,15.342312008978674 180.32378580323785,15.209403981333805
C 180.48982980489828,15.656368755783959 180.73889580738896,18.10876799180893 180.82191780821915,18.68864079390395
C 180.9879618098796,18.183590288853445 181.23702781237026,13.264024258176304 181.32004981320048,12.179100951030776
C 181.48609381486094,11.54015791442692 181.73515981735162,14.409002303739145 181.8181818181818,14.85498257428082
C 181.90120381901204,15.300962844822495 181.81818181818184,14.85498257428082 181.8181818181818,14.85498257428082
" ></path>
  </svg>
