  <svg id="graph" xmlns="http://www.w3.org/2000/svg" class='w-full' width='200' height='30' viewbox="0 0 300.0 20">
  <path fill="none" class='stroke-2 stroke-amber-900 dark:stroke-amber-300' d="M 0.49813200498132,19.994092976549116
C 0.58115400581154,19.994092976549116 0.91324200913242,19.99409297654912 0.99626400996264,19.994092976549116
C 1.16230801162308,18.939689290566484 1.4113740141137399,14.722074546635952 1.49439601494396,13.667670860653319
C 1.6604400166044,11.359009195266509 1.90950601909506,7.396380963632427 1.99252801992528,6.142122984228248
C 2.15857202158572,6.942524661822908 2.4076380240763804,16.41542126922244 2.4906600249066,18.470080926221275
C 2.65670402656704,18.982022958631145 2.9057700290577,10.75649280327643 2.98879202988792,9.21377517868746
C 3.15483603154836,9.467777187075432 3.4039020340390196,18.197373343572174 3.4869240348692396,19.994092976549116
C 3.652968036529679,20.37706499694804 3.90203403902034,12.925354913659007 3.98505603985056,11.511607301080986
C 4.1511000415109995,10.314450548368677 4.400166044001659,12.594561600409556 4.48318804483188,12.811152460275268
C 4.64923204649232,14.22490007285329 4.89829804898298,18.796936223836813 4.9813200498132,19.994092976549116
C 5.14736405147364,20.412507137653336 5.396430053964299,16.100380018508673 5.47945205479452,15.321637426900585
C 5.64549605645496,14.50843719849568 5.8945620589456205,15.149349242916495 5.9775840597758405,15.114891606119677
C 6.143628061436281,15.893634197727765 6.392694063926942,19.18089274814421 6.47571606475716,19.994092976549116
C 6.6417600664176,19.1917222911375 6.89082606890826,11.916238407466478 6.97384806973848,10.30066749364995
C 7.139892071398921,10.300667493649948 7.3889580738895795,18.37852206273259 7.4719800747198,19.994092976549116
C 7.63802407638024,21.609663890365642 7.887090078870901,19.99409297654912 7.97011207970112,19.994092976549116
C 8.136156081361559,18.656152164924094 8.385222083852218,13.304388918424005 8.46824408468244,11.966448106798985
C 8.63428808634288,10.627522791265484 8.883354088833538,11.961525587256581 8.96637608966376,11.960541083348101
C 9.1324200913242,12.36123417409967 9.381486093814859,13.968929056648355 9.46450809464508,14.370606651308405
C 9.63055209630552,15.709531966841906 9.87961809879618,19.056845255675665 9.9626400996264,19.994092976549116
C 10.12868410128684,20.931340697422566 10.3777501037775,19.99409297654912 10.46077210460772,19.994092976549116
C 10.62681610626816,19.994092976549116 10.875882108758821,19.99409297654912 10.95890410958904,19.994092976549116
C 11.12494811124948,19.67117569456751 11.374014113740143,18.37950656664107 11.45703611457036,18.05658928465946
C 11.6230801162308,17.607655502392344 11.87214611872146,17.426506783231925 11.95516811955168,17.300490282946424
C 12.12121212121212,16.410498749680038 12.37027812370278,13.480615118042019 12.453300124533,12.716640085061139
C 12.61934412619344,12.276566837970348 12.868410128684102,14.33614901451159 12.95143212951432,14.66005080040168
C 13.117476131174762,15.872959615649675 13.366542133665419,19.10508594719121 13.44956413449564,19.994092976549116
C 13.615608136156082,20.88113099809006 13.864674138646741,19.984247937464314 13.94769613947696,19.98227892964735
C 14.113740141137399,17.859688502963355 14.362806143628061,9.379171835312187 14.44582814445828,7.2585504164451535
C 14.61187214611872,5.833973260873846 14.860938148609378,10.73877173292378 14.943960149439599,11.434815996219506
C 15.110004151100041,13.201016008033553 15.3590701535907,16.785594738811113 15.44209215442092,17.855750487329434
C 15.608136156081358,19.282296650717704 15.85720215857202,19.63770256167917 15.94022415940224,19.994092976549116
C 16.10626816106268,19.57370980762794 16.355334163553337,16.11022505759348 16.43835616438356,15.33345147380235
C 16.604400166043998,15.33345147380235 16.85346616853466,19.21731939275799 16.93648816936488,19.994092976549116
C 17.102532171025317,20.77086656034024 17.351598173515978,19.99409297654912 17.434620174346197,19.994092976549116
C 17.60066417600664,19.92320869513852 17.849730178497296,19.63967156949613 17.93275217932752,19.56878728808553
C 18.098796180987957,18.91999921239687 18.347862183478615,16.679268316695214 18.430884184308837,16.101364522417153
C 18.596928185969276,15.083387481048298 18.84599418845994,13.900998286963201 18.92901618929016,13.460925039872409
C 19.0950601909506,12.995254691161124 19.34412619344126,13.332939531769943 19.427148194271478,13.307342430149449
C 19.593192195931916,13.303404414515526 19.842258198422574,13.415637860082304 19.925280199252796,13.437296946068876
C 20.091324200913235,13.651918798117629 20.3403902034039,14.402110776379784 20.42341220423412,14.595073542441964
C 20.58945620589456,15.687872880855336 20.838522208385218,19.094256404197925 20.921544209215437,19.994092976549116
C 21.087588210875875,19.68003622974383 21.33665421336654,13.92462638076673 21.41967621419676,12.710733061610254
C 21.585720215857197,11.627778762281686 21.834786218347855,13.3654281607498 21.917808219178077,13.496367180577709
C 22.08385222083852,12.863331167424738 22.332918223329177,9.676492015673302 22.4159402241594,8.912516982692422
C 22.581984225819838,9.349636718057772 22.831050228310502,14.91799082442357 22.914072229140718,16.119085592769803
C 23.080116230801156,17.14100064977258 23.329182233291814,15.223187036052535 23.412204234122036,15.04400732470908
C 23.57824823578248,13.287652351979839 23.827314238273136,7.15813101778014 23.91033623910336,5.580955756394353
C 24.076380240763797,5.601630338472444 24.32544624325446,13.570204973713748 24.408468244084677,15.168054817177625
C 24.574512245745115,15.502786146060998 24.823578248235776,8.852462244275111 24.906600249066,7.589343729694608
C 25.072644250726437,7.161084529505583 25.321710253217095,11.763640301651998 25.404732254047317,12.598499616043476
C 25.570776255707756,13.395947781912696 25.81984225819842,12.411443873432178 25.90286425902864,12.374032724909918
C 26.068908260689085,12.209620572193673 26.317974263179735,11.739027703939987 26.400996264009958,11.612026699745998
C 26.567040265670396,11.649437848268258 26.816106268161054,12.43408746332723 26.899128268991277,12.598499616043476
C 27.065172270651715,12.828873530627916 27.31423827314238,12.92830842538445 27.3972602739726,12.994270187252644
C 27.563304275633044,13.991572646543405 27.812370278123694,17.650973674365485 27.895392278953917,18.582314371788055
C 28.06143628061436,19.320692303148444 28.31050228310502,17.617500541477153 28.39352428393524,17.42453777541497
C 28.559568285595677,17.06716285663654 28.808634288086342,16.602477011833734 28.891656288916558,16.43806485911749
C 29.057700290577,16.140744678756374 29.306766293067653,15.77352472089314 29.389788293897876,15.640616693248273
C 29.555832295558318,14.890424714986118 29.80489829804898,12.554196940161853 29.887920298879198,11.936912989544568
C 30.053964300539636,12.334652568570696 30.3030303030303,17.012030637761633 30.386052303860517,18.027054167405044
C 30.55209630552096,18.37261503928171 30.801162308011616,14.679740878571288 30.88418430884184,14.010278220804537
C 31.05022831050228,12.992301179435684 31.299294312992938,12.267706302794025 31.382316313823157,11.91919191919192
C 31.548360315483595,12.057022466379195 31.79742631797426,14.350916573138795 31.88044831880448,14.83726150392817
C 32.046492320464914,15.29210230964617 32.29555832295558,14.679740878571288 32.3785803237858,14.648236753499912
C 32.54462432544624,15.507708665603401 32.79369032793689,19.10311693937425 32.87671232876712,19.994092976549116
C 33.04275633042756,20.88506901372398 33.29182233291822,19.99409297654912 33.37484433374844,19.994092976549116
C 33.54088833540888,19.994092976549116 33.78995433789955,19.99409297654912 33.872976338729764,19.994092976549116
C 34.0390203403902,19.994092976549116 34.28808634288085,19.99409297654912 34.37110834371108,19.994092976549116
C 34.53715234537152,19.994092976549116 34.78621834786218,19.99409297654912 34.8692403486924,19.994092976549116
C 35.03528435035284,19.994092976549116 35.28435035284351,19.99409297654912 35.36737235367372,19.994092976549116
C 35.53341635533416,19.63081103431981 35.78248235782481,18.17768326540256 35.86550435865504,17.814401323173254
C 36.031548360315476,17.814401323173254 36.28061436280614,19.63081103431981 36.36363636363636,19.994092976549116
C 36.5296803652968,20.357374918778426 36.77874636778747,19.99409297654912 36.86176836861768,19.994092976549116
C 37.02781237027812,19.99803099218304 37.276878372768785,20.013783054718726 37.359900373599004,20.017721070352646
C 37.52594437525945,20.544430661389722 37.7750103777501,22.631578947368414 37.85803237858032,23.154350522771573
C 38.02407638024076,23.15041250713765 38.27314238273143,20.520802567586195 38.35616438356164,19.994092976549116
C 38.52220838522208,19.12772953708626 38.771274387712744,18.295823734420225 38.85429638854296,17.956169885994445
C 39.02034039020341,17.531848701439344 39.26940639269406,17.532833205347824 39.35242839352428,17.4481658692185
C 39.518472395184716,17.164628743576113 39.76753839767539,16.453816921653175 39.8505603985056,16.254947132140114
C 40.01660440016604,16.34059897217792 40.2656704026567,17.67755527989446 40.34869240348692,17.96207690944533
C 40.51473640514737,18.585267883513495 40.763802407638025,19.65542363203182 40.846824408468244,19.994092976549116
C 41.01286841012868,20.332762321066415 41.26193441261935,19.99409297654912 41.34495641344956,19.994092976549116
C 41.51100041511,19.48707346368165 41.76006641760066,17.458995412211785 41.84308841843088,16.95197589934432
C 42.009132420091326,16.841711461594503 42.258198422581984,18.93575127493256 42.3412204234122,19.33250635005021
C 42.50726442507264,19.839525862917675 42.756330427563306,19.8838285387993 42.83935242839352,19.994092976549116
C 43.00539643005396,19.157264654340675 43.25446243254462,15.25862917675783 43.33748443337484,14.311536416799575
C 43.503528435035285,14.103806092110185 43.75259443752594,18.00834859314391 43.83561643835616,18.74771102841278
C 44.0016604400166,19.694803788371036 44.25072644250727,19.786362651859726 44.333748443337484,19.994092976549116
C 44.49979244499792,20.201823301238505 44.74885844748858,19.99409297654912 44.8318804483188,19.994092976549116
C 44.997924449979244,19.994092976549116 45.2469904524699,19.99409297654912 45.33001245330012,19.994092976549116
C 45.49605645496056,19.89662708960955 45.74512245745123,19.50676354185126 45.82814445828144,19.40929765491169
C 45.99418845994188,18.905231653769665 46.24325446243254,17.37629708389942 46.32627646326276,16.96969696969697
C 46.4923204649232,16.164372772559908 46.74138646741386,14.976076555023923 46.82440846824408,14.577352472089315
C 46.99045246990452,15.081418473231338 47.23951847239519,19.09130289247248 47.3225404732254,19.994092976549116
C 47.48858447488585,20.89688306062575 47.7376504773765,19.99409297654912 47.820672478206724,19.994092976549116
C 47.98671647986717,19.994092976549116 48.23578248235782,19.99409297654912 48.31880448318804,19.994092976549116
C 48.48484848484848,19.994092976549116 48.73391448733915,19.99409297654912 48.81693648816936,19.994092976549116
C 48.98298048982981,19.994092976549116 49.23204649232046,19.99409297654912 49.31506849315068,19.994092976549116
C 49.48111249481113,19.994092976549116 49.73017849730178,19.99409297654912 49.813200498132,19.994092976549116
C 49.979244499792436,19.994092976549116 50.22831050228311,19.99409297654912 50.31133250311332,19.994092976549116
C 50.477376504773765,19.994092976549116 50.726442507264416,19.99409297654912 50.80946450809464,19.994092976549116
C 50.97550850975509,19.994092976549116 51.224574512245745,19.99409297654912 51.307596513075964,19.994092976549116
C 51.473640514736395,19.994092976549116 51.72270651722707,19.99409297654912 51.80572851805728,19.994092976549116
C 51.971772519717724,19.994092976549116 52.220838522208375,19.99409297654912 52.3038605230386,19.994092976549116
C 52.46990452469905,19.994092976549116 52.718970527189704,19.99409297654912 52.80199252801992,19.994092976549116
C 52.968036529680354,19.994092976549116 53.217102532171026,19.99409297654912 53.30012453300124,19.994092976549116
C 53.46616853466168,19.994092976549116 53.715234537152334,19.99409297654912 53.79825653798256,19.994092976549116
C 53.964300539643006,19.994092976549116 54.21336654213366,19.99409297654912 54.29638854296388,19.994092976549116
C 54.46243254462431,19.994092976549116 54.711498547114985,19.99409297654912 54.7945205479452,19.994092976549116
C 54.96056454960564,19.994092976549116 55.20963055209629,19.99409297654912 55.29265255292652,19.994092976549116
C 55.458696554586965,19.994092976549116 55.70776255707762,19.99409297654912 55.79078455790784,19.994092976549116
C 55.95682855956827,19.994092976549116 56.205894562058944,19.99409297654912 56.28891656288916,19.994092976549116
C 56.4549605645496,19.994092976549116 56.70402656704025,19.99409297654912 56.78704856787048,19.994092976549116
C 56.953092569530924,19.994092976549116 57.20215857202158,19.99409297654912 57.2851805728518,19.994092976549116
C 57.45122457451223,19.994092976549116 57.7002905770029,19.99409297654912 57.78331257783312,19.994092976549116
C 57.94935657949356,19.994092976549116 58.19842258198421,19.99409297654912 58.28144458281444,19.994092976549116
C 58.44748858447488,19.994092976549116 58.69655458696554,19.99409297654912 58.77957658779576,19.994092976549116
C 58.94562058945619,19.994092976549116 59.19468659194686,19.99409297654912 59.27770859277708,19.994092976549116
C 59.44375259443752,19.994092976549116 59.69281859692817,19.99409297654912 59.7758405977584,19.994092976549116
C 59.94188459941884,19.994092976549116 60.1909506019095,19.99409297654912 60.27397260273972,19.994092976549116
C 60.44001660440015,19.994092976549116 60.68908260689082,19.99409297654912 60.77210460772104,19.994092976549116
C 60.93814860938148,19.994092976549116 61.18721461187213,19.99409297654912 61.27023661270236,19.994092976549116
C 61.4362806143628,19.994092976549116 61.68534661685346,19.99409297654912 61.76836861768368,19.994092976549116
C 61.93441261934411,19.994092976549116 62.18347862183478,19.99409297654912 62.266500622665,19.994092976549116
C 62.43254462432544,19.994092976549116 62.68161062681609,19.99409297654912 62.76463262764632,19.994092976549116
C 62.93067662930676,19.994092976549116 63.17974263179743,19.99409297654912 63.26276463262764,19.994092976549116
C 63.42880863428808,19.994092976549116 63.67787463677874,19.99409297654912 63.76089663760896,19.994092976549116
C 63.9269406392694,19.994092976549116 64.17600664176005,19.99409297654912 64.25902864259028,19.994092976549116
C 64.42507264425072,19.994092976549116 64.67413864674138,19.99409297654912 64.7571606475716,19.994092976549116
C 64.92320464923203,19.994092976549116 65.1722706517227,19.99409297654912 65.25529265255291,19.994092976549116
C 65.42133665421336,19.994092976549116 65.67040265670401,19.99409297654912 65.75342465753424,19.994092976549116
C 65.91946865919468,19.994092976549116 66.16853466168534,19.99409297654912 66.25155666251555,19.994092976549116
C 66.41760066417599,19.994092976549116 66.66666666666666,19.99409297654912 66.74968866749687,19.994092976549116
C 66.91573266915732,19.994092976549116 67.16479867164797,19.99409297654912 67.2478206724782,19.994092976549116
C 67.41386467413864,19.994092976549116 67.6629306766293,19.99409297654912 67.74595267745951,19.994092976549116
C 67.91199667911995,19.994092976549116 68.16106268161062,19.99409297654912 68.24408468244083,19.994092976549116
C 68.41012868410128,19.994092976549116 68.65919468659193,19.99409297654912 68.74221668742216,19.994092976549116
C 68.9082606890826,19.994092976549116 69.15732669157326,19.99409297654912 69.24034869240347,19.994092976549116
C 69.40639269406391,19.994092976549116 69.65545869655458,19.99409297654912 69.73848069738479,19.994092976549116
C 69.90452469904524,19.994092976549116 70.15359070153589,19.99409297654912 70.23661270236612,19.994092976549116
C 70.40265670402655,18.8934176068679 70.65172270651722,14.49071612814303 70.73474470734743,13.390040758461812
C 70.90078870900787,13.390040758461813 71.14985471149853,18.893417606867903 71.23287671232875,19.994092976549116
C 71.3989207139892,21.094768346230335 71.64798671647985,19.99409297654912 71.73100871731008,19.994092976549116
C 71.89705271897051,19.994092976549116 72.14611872146118,19.99409297654912 72.22914072229139,19.994092976549116
C 72.39518472395183,19.994092976549116 72.64425072644251,19.99409297654912 72.72727272727272,19.994092976549116
C 72.89331672893316,19.994092976549116 73.14238273142381,19.99409297654912 73.22540473225403,19.994092976549116
C 73.39144873391446,19.259653060822654 73.64051473640512,16.32189339791679 73.72353673723535,15.587453482190325
C 73.88958073889579,14.771299742059975 74.13864674138647,15.178884360170912 74.22166874221668,15.097170535767027
C 74.38771274387712,14.24360564711442 74.63677874636777,11.237915214523404 74.719800747198,10.466064150274677
C 74.88584474885842,11.291078425581352 75.13491075134908,18.450390848051672 75.21793275217931,20.047256187607065
C 75.38397675383975,20.659617618681946 75.63304275633043,15.12473664520448 75.71606475716064,14.140232736723965
C 75.88210875882108,14.13137220154764 76.13117476131173,19.018449603244925 76.21419676214195,19.994092976549116
C 76.38024076380238,20.96973634985331 76.62930676629304,19.99409297654912 76.71232876712327,19.994092976549116
C 76.8783727687837,19.994092976549116 77.12743877127438,19.99409297654912 77.2104607721046,19.994092976549116
C 77.37650477376503,19.994092976549116 77.62557077625569,19.99409297654912 77.70859277708591,19.994092976549116
C 77.87463677874634,19.994092976549116 78.123702781237,19.99409297654912 78.20672478206723,19.994092976549116
C 78.37276878372766,19.994092976549116 78.62183478621834,19.99409297654912 78.70485678704856,19.994092976549116
C 78.870900788709,19.994092976549116 79.11996679119964,19.99409297654912 79.20298879202987,19.994092976549116
C 79.3690327936903,19.994092976549116 79.61809879618097,19.99409297654912 79.7011207970112,19.994092976549116
C 79.86716479867164,19.994092976549116 80.1162308011623,19.99409297654912 80.19925280199251,19.994092976549116
C 80.36529680365295,19.994092976549116 80.6143628061436,19.99409297654912 80.69738480697383,19.994092976549116
C 80.86342880863425,19.994092976549116 81.11249481112493,19.99409297654912 81.19551681195516,19.994092976549116
C 81.3615608136156,19.994092976549116 81.61062681610626,19.99409297654912 81.69364881693647,19.994092976549116
C 81.85969281859691,19.279343138992264 82.10875882108756,16.42034378876484 82.19178082191779,15.705593951207986
C 82.35782482357821,15.052867859885403 82.60689082606889,16.01571268237935 82.68991282689912,16.07773642861362
C 82.85595682855956,16.792486266170474 83.10502283105022,19.34136688522653 83.18804483188043,19.994092976549116
C 83.35408883354087,20.6468190678717 83.60315483603152,19.99409297654912 83.68617683686175,19.994092976549116
C 83.85222083852217,19.994092976549116 84.10128684101285,19.99409297654912 84.18430884184308,19.994092976549116
C 84.35035284350352,19.994092976549116 84.59941884599418,19.99409297654912 84.68244084682439,19.994092976549116
C 84.84848484848483,19.994092976549116 85.09755085097548,19.99409297654912 85.1805728518057,19.994092976549116
C 85.34661685346613,19.994092976549116 85.59568285595681,19.99409297654912 85.67870485678704,19.994092976549116
C 85.84474885844747,19.994092976549116 86.09381486093811,19.99409297654912 86.17683686176835,19.994092976549116
C 86.34288086342877,19.994092976549116 86.59194686591945,19.99409297654912 86.67496886674967,19.994092976549116
C 86.84101286841009,19.994092976549116 87.09007887090077,19.99409297654912 87.173100871731,19.994092976549116
C 87.33914487339143,18.87668104042373 87.58821087588207,14.407033295922185 87.67123287671231,13.289621359796799
C 87.83727687837275,12.24309370508201 88.08634288086341,13.644042766849786 88.16936488169364,13.714927048260382
C 88.33540888335408,14.83233898438577 88.58447488584476,18.94756532183433 88.66749688667495,19.994092976549116
C 88.83354088833539,21.040620631263906 89.08260689082603,19.99409297654912 89.16562889165627,19.994092976549116
C 89.3316728933167,19.994092976549116 89.58073889580737,19.99409297654912 89.6637608966376,19.994092976549116
C 89.82980489829804,19.994092976549116 90.07887090078871,19.99409297654912 90.16189290161891,19.994092976549116
C 90.32793690327935,19.994092976549116 90.57700290576999,19.99409297654912 90.66002490660023,19.994092976549116
C 90.82606890826067,19.994092976549116 91.07513491075133,19.99409297654912 91.15815691158156,19.994092976549116
C 91.324200913242,19.033217161872134 91.57326691573267,15.189713903164197 91.65628891656287,14.228838088487212
C 91.82233291822331,14.228838088487214 92.07139892071395,19.033217161872134 92.15442092154419,19.994092976549116
C 92.32046492320463,20.9549687912261 92.56953092569529,19.99409297654912 92.65255292652552,19.994092976549116
C 92.81859692818595,19.994092976549116 93.06766293067663,19.99409297654912 93.15068493150683,19.994092976549116
C 93.31672893316727,19.994092976549116 93.5657949356579,19.99409297654912 93.64881693648815,19.994092976549116
C 93.81486093814858,19.994092976549116 94.06392694063925,19.99409297654912 94.14694894146947,19.994092976549116
C 94.31299294312991,19.9950774804576 94.56205894562059,19.99901549609152 94.64508094645079,20.0
C 94.81112494811123,20.0 95.06019095060189,19.9950774804576 95.14321295143212,19.994092976549116
C 95.30925695309254,19.993108472640635 95.55832295558321,19.99409297654912 95.64134495641343,19.994092976549116
C 95.80738895807387,19.992123968732155 96.05645496056455,19.984247937464314 96.13947696139475,19.98227892964735
C 96.30552096305519,19.98227892964735 96.55458696554585,19.992123968732155 96.63760896637608,19.994092976549116
C 96.8036529680365,19.996061984366076 97.05271897052717,19.99409297654912 97.1357409713574,19.994092976549116
C 97.30178497301783,19.946836788942054 97.55085097550851,19.75781203851379 97.63387297633871,19.710555850906726
C 97.79991697799915,19.710555850906726 98.04898298048981,19.946836788942054 98.13200498132004,19.994092976549116
C 98.29804898298046,20.04134916415618 98.54711498547113,19.99409297654912 98.63013698630135,19.994092976549116
C 98.79618098796179,19.994092976549116 99.04524699045247,19.99409297654912 99.12826899128267,19.994092976549116
C 99.2943129929431,19.992123968732155 99.54337899543377,19.984247937464314 99.626400996264,19.98227892964735
C 99.79244499792442,19.98227892964735 100.04151100041508,19.992123968732155 100.12453300124531,19.994092976549116
C 100.29057700290575,19.996061984366076 100.53964300539643,19.99409297654912 100.62266500622663,19.994092976549116
C 100.78870900788706,20.075806800953 101.03777501037773,20.402662098568527 101.12079701120796,20.48437592297241
C 101.28684101286838,20.67536968121763 101.53590701535904,21.0307755921791 101.61892901618927,21.140055526020436
C 101.78497301784971,21.005178490558606 102.03403902034039,19.919270679504596 102.1170610211706,19.67511371020143
C 102.28310502283104,19.48411995195621 102.53217102532169,19.94092976549117 102.61519302615191,19.994092976549116
C 102.78123702781234,20.047256187607065 103.030303030303,19.99409297654912 103.11332503113323,19.994092976549116
C 103.27936903279367,19.852324413727924 103.52843503528435,19.285250162443145 103.61145703611456,19.14348159962195
C 103.77750103777502,19.14348159962195 104.02656704026565,19.852324413727924 104.10958904109587,19.994092976549116
C 104.2756330427563,20.069899777502116 104.52469904524696,19.664284167208145 104.60772104607719,19.598322405339946
C 104.77376504773763,19.458522850335715 105.0228310502283,19.22913343965976 105.10585305105852,19.155295646523715
C 105.27189705271898,19.22125740839191 105.5209630552096,19.854293421544885 105.60398505603983,19.994092976549116
C 105.77002905770026,20.13389253155335 106.01909506019092,19.99409297654912 106.10211706102115,19.994092976549116
C 106.26816106268159,19.994092976549116 106.51722706517226,19.99409297654912 106.60024906600248,19.994092976549116
C 106.76629306766294,19.994092976549116 107.01535907015356,19.99409297654912 107.09838107098379,19.994092976549116
C 107.26442507264422,19.994092976549116 107.51349107513488,19.99409297654912 107.5965130759651,19.994092976549116
C 107.76255707762554,19.994092976549116 108.01162308011622,19.99409297654912 108.09464508094644,19.994092976549116
C 108.2606890826069,19.225195424025834 108.50975508509752,16.1496052139327 108.59277708592775,15.380707661409415
C 108.75882108758817,14.732904089629235 109.00788709007884,15.986177565124933 109.09090909090907,16.107271545868034
C 109.2569530925695,16.13089963967157 109.50601909506018,15.61994211117018 109.5890410958904,15.52247622423061
C 109.75508509755086,14.936696398684704 110.00415110004148,13.080906531198929 110.08717310087171,12.592592592592593
C 110.25321710253216,12.244078208990489 110.50228310502281,13.29159036761376 110.58530510585304,13.431389922617994
C 110.75134910751348,13.983696615275562 111.00041511000416,15.493925610884679 111.08343711083435,15.906432748538013
C 111.24948111249479,17.000216590859868 111.49854711498544,19.3128162718806 111.58156911581567,19.994092976549116
C 111.74761311747612,20.029535117254415 111.99667911996677,16.76492015673302 112.079701120797,16.119085592769803
C 112.24574512245744,15.539212790674776 112.49481112494811,16.448894402110778 112.57783312577831,16.51485616397897
C 112.74387712743875,15.932029850158502 112.9929431299294,13.270915785535669 113.07596513075963,12.622127709847009
C 113.24200913242008,12.051115442928308 113.49107513491073,13.011006753696812 113.57409713574096,13.088782562466774
C 113.7401411374014,13.662748341110914 113.98920713989207,15.569732411837672 114.07222914072227,16.065922381711854
C 114.23827314238271,15.994053596392774 114.48733914487336,13.225628605745568 114.57036114570359,12.657569850552308
C 114.73640514736404,11.655344871719143 114.98547114985469,10.48673873235277 115.06849315068492,10.05257250871286
C 115.23453715234535,10.183511528540768 115.48360315483603,12.878098726051944 115.56662515566623,13.44320396951976
C 115.73266915732667,13.810423927382994 115.98173515981732,12.453777541496839 116.06475716064755,12.255892255892256
C 116.230801162308,12.572902514422983 116.47986716479865,14.830369976568809 116.56288916562887,15.345265520704118
C 116.72893316728931,15.274381239293518 116.97799916977999,12.416366392974581 117.06102117061019,11.830586567428673
C 117.22706517227063,11.404296375056608 117.47613117476129,12.62803473329789 117.55915317559152,12.787524366471734
C 117.72519717725197,13.169511882962174 117.97426317974261,13.900013783054717 118.05728518057283,14.122511666371315
C 118.22332918223327,14.10971311556107 118.47239518472395,12.946029495737095 118.55541718555415,12.710733061610254
C 118.72146118721459,13.072045996022602 118.97052718970525,15.693779904306218 119.05354919053548,16.290389272845413
C 119.21959319219593,16.879122610116763 119.46865919468657,16.251009116506193 119.55168119551679,16.243133085238348
C 119.71772519717723,15.79026128733731 119.96679119966791,14.018154252072383 120.04981320049811,13.573158485439189
C 120.21585720215855,13.549530391635656 120.46492320464921,15.679996849587491 120.54794520547944,16.101364522417153
C 120.71398920713989,16.282513241577565 120.96305520963053,14.900269754070926 121.04607721046075,14.66005080040168
C 121.21212121212119,14.410971311556109 121.46118721461187,14.615748124520055 121.54420921544207,14.60688758934373
C 121.7102532171025,14.504499182861757 121.95931921959317,14.139248232815483 122.0423412204234,14.045720361509835
C 122.20838522208385,13.802547896115145 122.45745122457448,13.297497391064644 122.54047322540471,13.147852796975604
C 122.70651722706515,13.150806308701045 122.95558322955583,13.910843326048003 123.03860523038603,14.063441431862485
C 123.20464923204646,15.03022426999035 123.45371523453713,18.13436509342942 123.53673723536735,18.948549825742806
C 123.7027812370278,19.061767775218065 123.95184723951844,15.443715911552168 124.03486924034867,14.74274912871404
C 124.20091324200911,13.974836080099239 124.44997924449979,14.408017799830665 124.53300124533,14.34107153405399
C 124.69904524699042,14.768346230334535 124.94811124948109,16.812176344340088 125.03113325031131,17.306397306397304
C 125.19717725197177,18.24856754681316 125.4462432544624,19.546143698190484 125.52926525529263,19.994092976549116
C 125.69530925695307,20.44204225490775 125.94437525944375,19.99409297654912 126.02739726027396,19.994092976549116
C 126.19344126193438,19.994092976549116 126.44250726442505,19.99409297654912 126.52552926525527,19.994092976549116
C 126.69157326691573,19.421111701813455 126.94063926940636,17.129186602870814 127.02366127023659,16.556205328135153
C 127.18970527189703,16.565065863311478 127.4387712743877,19.46541437769508 127.52179327521792,20.047256187607065
C 127.68783727687834,20.620237462342725 127.936903279369,20.002953511725444 128.01992528019923,19.994092976549116
C 128.18596928185968,19.52350010829543 128.43503528435033,17.685431311162308 128.51805728518056,17.223698978084943
C 128.684101286841,16.637919152539038 128.93316728933166,16.603461515742215 129.0161892901619,16.479414023273673
C 129.1822332918223,16.941146356351034 129.43129929431302,19.40831315100321 129.51432129514322,19.994092976549116
C 129.68036529680367,20.57987280209502 129.9294312992943,19.99409297654912 130.01245330012452,19.994092976549116
C 130.17849730178497,19.994092976549116 130.42756330427562,19.99409297654912 130.51058530510585,19.994092976549116
C 130.67662930676627,18.937720282749524 130.92569530925698,14.712229507551143 131.00871731008718,13.655856813751551
C 131.17476131174763,12.62606572548093 131.42382731423825,13.788764841396421 131.50684931506848,13.815346446925394
C 131.67289331672893,14.870734636816508 131.92195931921958,18.959379368736094 132.0049813200498,19.98818595309823
C 132.17102532171023,19.96849587492862 132.42009132420094,14.745702640439482 132.50311332503114,13.697205977907734
C 132.6691573266916,12.878098726051944 132.9182233291822,14.844153031287533 133.00124533001244,15.073542441963495
C 133.1672893316729,15.185775887530275 133.41635533416354,14.487762616417585 133.49937733499377,14.370606651308405
C 133.6654213366542,14.521235749305923 133.9144873391449,15.70953196684191 133.9975093399751,15.97731702994861
C 134.16355334163555,16.914564750822063 134.41261934412617,19.324630318782365 134.4956413449564,19.994092976549116
C 134.66168534661685,19.2370094709276 134.9107513491075,12.861362159607774 134.99377334993773,11.434815996219506
C 135.15981735159815,11.451552562663673 135.40888335408886,18.651229645381694 135.49190535491906,20.09451237521413
C 135.6579493565795,21.5210585386024 135.90701535907013,20.010829542993285 135.99003735990036,19.994092976549116
C 136.1560813615608,19.97735641010495 136.40514736405146,19.99409297654912 136.48816936488168,19.994092976549116
C 136.6542133665421,19.994092976549116 136.90327936903282,19.99409297654912 136.986301369863,19.994092976549116
C 137.15234537152347,19.994092976549116 137.4014113740141,19.99409297654912 137.48443337484431,19.994092976549116
C 137.65047737650477,19.994092976549116 137.89954337899542,19.99409297654912 137.98256537982564,19.994092976549116
C 138.14860938148607,19.994092976549116 138.39767538397678,19.99409297654912 138.48069738480697,19.994092976549116
C 138.64674138646743,19.994092976549116 138.89580738895805,19.99409297654912 138.97882938978827,19.994092976549116
C 139.14487339144873,19.994092976549116 139.39393939393938,19.99409297654912 139.4769613947696,19.994092976549116
C 139.64300539643003,19.23405595920216 139.89207139892073,16.193907889814323 139.97509339975093,15.433870872467365
C 140.14113740141138,14.437552917085084 140.390203403902,14.252466182290744 140.47322540473223,14.01618524425542
C 140.63926940639269,13.76907476322681 140.88833540888334,13.962037529288992 140.97135740971356,13.951207986295705
C 141.137401411374,14.216039537676963 141.3864674138647,15.329513458168428 141.4694894146949,15.605174552542975
C 141.63553341635534,15.55791836493591 141.88459941884597,13.990588142634929 141.9676214196762,13.667670860653319
C 142.13366542133664,12.551243428436413 142.3827314238273,9.700120109476837 142.46575342465752,8.906609959241539
C 142.63179742631795,8.776655443322111 142.88086342880865,12.224388130820879 142.96388542963885,12.887943765136749
C 143.1299294312993,13.05826294130388 143.37899543378995,10.421761474393055 143.46201743462018,9.928525016244315
C 143.62806143628063,9.662708960954575 143.87712743877125,11.06562703053931 143.96014943960148,11.29304743339831
C 144.1261934412619,12.910587355031799 144.3752594437526,18.243645027270755 144.4582814445828,19.633764546045246
C 144.62432544624326,21.083938803237046 144.8733914487339,19.93403823813181 144.95641344956414,19.994092976549116
C 145.1224574512246,19.066690294760473 145.3715234537152,15.056805875519325 145.45454545454544,14.069348455313369
C 145.62058945620586,12.830842538444882 145.86965545869657,12.81410597200071 145.95267745952677,12.563057475338178
C 146.11872146118722,13.550514895544138 146.36778746367787,18.75558705968063 146.4508094645081,19.994092976549116
C 146.61685346616855,21.16565262764093 146.86591946865917,19.65936164766574 146.9489414694894,19.592415381889065
C 147.11498547114982,17.424537775414965 147.36405147364053,9.087758678401952 147.44707347447073,6.986827337704531
C 147.61311747613118,5.9964164057731315 147.86218347862183,12.539429381534646 147.94520547945206,13.649949790300669
C 148.1112494811125,12.787524366471738 148.36031548360313,3.785220627325892 148.44333748443336,1.812274794730937
C 148.60938148609378,1.4883730088408467 148.8584474885845,10.057495028255264 148.9414694894147,11.706539074960128
C 149.10751349107514,14.736842105263158 149.3565794935658,18.61283399295095 149.43960149439602,19.994092976549116
C 149.60564549605647,21.37535196014728 149.8547114985471,19.99409297654912 149.93773349937732,19.994092976549116
C 150.10377750103774,19.14249709571347 150.35284350352845,15.736113572370881 150.43586550435865,14.884517691535235
C 150.6019095060191,13.755291708508082 150.85097550850975,13.496367180577709 150.93399750933997,13.218737078386201
C 151.10004151100043,13.06318546084628 151.34910751349105,13.82912950164412 151.43212951432128,13.951207986295705
C 151.5981735159817,13.981727607458602 151.8472395184724,13.493413668852265 151.9302615193026,13.401854805363579
C 152.09630552096306,13.862602634532463 152.3453715234537,16.163388268651424 152.42839352428393,16.715694961308994
C 152.5944375259444,17.811447811447806 152.843503528435,19.432925748715224 152.92652552926523,19.976371906196466
C 153.09256953092566,19.133636560537145 153.34163553341637,13.04546439049363 153.42465753424656,11.659282887353063
C 153.59070153590702,10.35481520861638 153.83976753839767,12.067852009372475 153.9227895392279,12.14956583377636
C 154.08883354088834,12.43704097505267 154.33789954337897,13.178372418138501 154.4209215442092,13.384133735010929
C 154.58696554586962,13.424498395258631 154.83603154836032,12.557150451887296 154.91905354919052,12.391753795262568
C 155.08509755085097,12.630988245023334 155.33416355334163,14.41490932719003 155.41718555417185,14.819540433575522
C 155.5832295558323,15.52346072813909 155.83229555832293,16.315986374465904 155.91531755915315,16.615275562643983
C 156.08136156081358,16.54931380077579 156.33042756330428,14.789020812412625 156.41344956413448,14.423769862366354
C 156.57949356579493,13.82420698210172 156.82855956828558,13.252210211274539 156.9115815691158,13.017898281056176
C 157.07762557077626,13.583003524523994 157.32669157326688,17.014984149487073 157.4097135740971,17.814401323173254
C 157.57575757575754,17.18136531002028 157.82482357824824,10.652135388977493 157.90784557907844,9.219682202138342
C 158.0738895807389,9.58296414436765 158.32295558322954,18.198357847480654 158.40597758405977,19.994092976549116
C 158.57202158572022,21.789828105617577 158.82108758821087,19.99409297654912 158.9041095890411,19.994092976549116
C 159.07015359070152,19.21141236930711 159.3192195931922,16.08068994033906 159.4022415940224,15.298009333097053
C 159.56828559568285,13.78679583357946 159.8173515981735,11.655344871719143 159.90037359900373,10.926811979443558
C 160.06641760066418,9.891113867722055 160.31548360315483,9.390985882213952 160.39850560398506,9.083820662768032
C 160.56454960564548,9.947230590505443 160.81361560813616,14.936696398684703 160.89663760896636,16.107271545868034
C 161.0626816106268,17.460964420028745 161.31174761311746,17.02286018075492 161.3947696139477,17.205977907732294
C 161.56081361560814,16.841711461594503 161.8098796180988,14.469057042156457 161.89290161892902,13.92167286904129
C 162.05894562058944,13.455018016421526 162.30801162308012,14.3253194715183 162.39103362391032,14.406048792013705
C 162.55707762557077,14.30267588162325 162.80614362806142,13.485537637584422 162.88916562889165,13.301435406698564
C 163.0552096305521,14.23277610412113 163.30427563304275,18.878650048240694 163.38729763387298,19.994092976549116
C 163.5533416355334,21.10953590485754 163.80240763802408,19.99409297654912 163.88542963885428,19.994092976549116
C 164.05147364051473,19.036170673597574 164.30053964300538,15.204481461791403 164.3835616438356,14.24655915883986
C 164.54960564549606,13.071061492114126 164.7986716479867,13.158682339968891 164.88169364881693,12.941106976194696
C 165.04773765047736,12.89188178077067 165.29680365296804,13.782857817945539 165.37982565379824,13.951207986295705
C 165.5458696554587,14.793943331955026 165.79493565794934,17.323133872841474 165.87795765877956,17.99751905015063
C 166.04400166044002,17.5190501506291 166.29306766293067,12.233248665997207 166.3760896637609,11.08039458916652
C 166.54213366542132,10.088014649418161 166.791199667912,11.882765274578139 166.8742216687422,12.043239411660464
C 167.04026567040265,13.079922027290449 167.2893316728933,16.424281804398763 167.37235367372352,17.300490282946424
C 167.53839767538398,17.39401815425207 167.78746367787463,13.387087246736371 167.87048567870485,12.604406639494359
C 168.03652968036528,11.992045208419476 168.28559568285596,13.456002520330005 168.36861768368615,13.626321696497135
C 168.5346616853466,14.19339594778191 168.78372768783726,15.610097072085376 168.86674968866748,16.006852147203023
C 169.03279369032794,16.270699194675803 169.28185969281859,15.342312008978674 169.3648816936488,15.209403981333805
C 169.53092569530924,15.656368755783959 169.77999169779991,18.10876799180893 169.8630136986301,18.68864079390395
C 170.02905770029056,18.183590288853445 170.27812370278122,13.264024258176304 170.36114570361144,12.179100951030776
C 170.5271897052719,11.539173410518439 170.77625570776254,14.404079784196744 170.85927770859277,14.849075550829937
C 171.02532171025322,16.14862071002422 171.27438771274387,19.121822513635376 171.35740971357407,19.976371906196466
C 171.52345371523452,20.833874810482996 171.7725197177252,19.99113946482368 171.8555417185554,19.994092976549116
C 172.02158572021585,19.99704648827456 172.2706517227065,19.99409297654912 172.35367372353673,19.994092976549116
C 172.51971772519718,19.994092976549116 172.76878372768783,19.99409297654912 172.85180572851803,19.994092976549116
C 173.01784973017848,19.994092976549116 173.26691573266916,19.99409297654912 173.34993773349936,19.994092976549116
C 173.5159817351598,19.13462106444563 173.76504773765046,15.69673341603166 173.8480697384807,14.83726150392817
C 174.01411374014114,13.485537637584422 174.26317974263182,12.376001732726882 174.34620174346202,11.88374977848662
C 174.51224574512244,12.171224919762933 174.76131174761312,15.782385256069462 174.84433374844332,16.562112351586034
C 175.01037775010377,16.983480024415694 175.25944375259442,14.770315238151497 175.34246575342465,14.411955815464589
C 175.5085097550851,14.98395258629177 175.75757575757578,19.06373678303503 175.84059775840598,19.994092976549116
C 176.0066417600664,20.924449170063202 176.25570776255708,19.99409297654912 176.33872976338728,19.994092976549116
C 176.50477376504773,19.994092976549116 176.75383976753838,19.99409297654912 176.8368617683686,19.994092976549116
C 177.00290577002906,19.994092976549116 177.25197177251974,19.99409297654912 177.33499377334994,19.994092976549116
C 177.50103777501036,19.663299663299664 177.75010377750104,18.340126410301853 177.83312577833124,18.009333097052394
C 177.9991697799917,17.317226849390593 178.24823578248234,16.202768424990648 178.33125778331257,15.841455490578298
C 178.49730178497302,15.70854746293343 178.7463677874637,16.983480024415694 178.8293897882939,17.211884931183175
C 178.99543378995432,16.808238328706164 179.244499792445,14.05162738496072 179.3275217932752,13.419575875716227
C 179.49356579493565,13.821253470376277 179.7426317974263,18.588221395238936 179.82565379825652,19.62195049914348
C 179.99169779991698,20.717703349282296 180.24076380240766,19.932069230314845 180.32378580323785,19.994092976549116
C 180.48982980489828,20.05611672278339 180.73889580738896,19.99409297654912 180.82191780821915,19.994092976549116
C 180.9879618098796,19.990154960915195 181.23702781237026,19.974402898379505 181.32004981320048,19.970464882745585
C 181.48609381486094,19.970464882745585 181.73515981735162,19.990154960915195 181.8181818181818,19.994092976549116
C 181.90120381901204,19.998030992183036 181.81818181818184,19.99409297654912 181.8181818181818,19.994092976549116
" ></path>
  </svg>
