  <svg id="graph" xmlns="http://www.w3.org/2000/svg" class='w-full' width='200' height='30' viewbox="0 0 300.0 20">
  <path fill="none" class='stroke-2 stroke-amber-900 dark:stroke-amber-300' d="M 0.49813200498132,19.994092976549116
C 0.58115400581154,7.954594679740879 0.91324200913242,10.73877173292378 0.99626400996264,11.434815996219506
C 1.16230801162308,13.201016008033553 1.4113740141137399,16.785594738811113 1.49439601494396,17.855750487329434
C 1.6604400166044,19.282296650717704 1.90950601909506,19.63770256167917 1.99252801992528,19.994092976549116
C 2.15857202158572,19.57370980762794 2.4076380240763804,16.11022505759348 2.4906600249066,15.33345147380235
C 2.65670402656704,15.33345147380235 2.9057700290577,19.21731939275799 2.98879202988792,19.994092976549116
C 3.15483603154836,20.77086656034024 3.4039020340390196,19.99409297654912 3.4869240348692396,19.994092976549116
C 3.652968036529679,19.92320869513852 3.90203403902034,19.63967156949613 3.98505603985056,19.56878728808553
C 4.1511000415109995,18.91999921239687 4.400166044001659,16.679268316695214 4.48318804483188,16.101364522417153
C 4.64923204649232,15.083387481048298 4.89829804898298,13.900998286963201 4.9813200498132,13.460925039872409
C 5.14736405147364,12.995254691161124 5.396430053964299,13.332939531769943 5.47945205479452,13.307342430149449
C 5.64549605645496,13.303404414515526 5.8945620589456205,13.415637860082304 5.9775840597758405,13.437296946068876
C 6.143628061436281,13.651918798117629 6.392694063926942,14.402110776379784 6.47571606475716,14.595073542441964
C 6.6417600664176,15.687872880855336 6.89082606890826,19.094256404197925 6.97384806973848,19.994092976549116
C 7.139892071398921,19.68003622974383 7.3889580738895795,13.92462638076673 7.4719800747198,12.710733061610254
C 7.63802407638024,11.627778762281686 7.887090078870901,13.3654281607498 7.97011207970112,13.496367180577709
C 8.136156081361559,12.863331167424738 8.385222083852218,9.676492015673302 8.46824408468244,8.912516982692422
C 8.63428808634288,9.349636718057772 8.883354088833538,14.91799082442357 8.96637608966376,16.119085592769803
C 9.1324200913242,17.14100064977258 9.381486093814859,15.223187036052535 9.46450809464508,15.04400732470908
C 9.63055209630552,13.287652351979839 9.87961809879618,7.15813101778014 9.9626400996264,5.580955756394353
C 10.12868410128684,5.601630338472444 10.3777501037775,13.570204973713748 10.46077210460772,15.168054817177625
C 10.62681610626816,15.502786146060998 10.875882108758821,8.852462244275111 10.95890410958904,7.589343729694608
C 11.12494811124948,7.161084529505583 11.374014113740143,11.763640301651998 11.45703611457036,12.598499616043476
C 11.6230801162308,13.395947781912696 11.87214611872146,12.411443873432178 11.95516811955168,12.374032724909918
C 12.12121212121212,12.209620572193673 12.37027812370278,11.739027703939987 12.453300124533,11.612026699745998
C 12.61934412619344,11.649437848268258 12.868410128684102,12.43408746332723 12.95143212951432,12.598499616043476
C 13.117476131174762,12.828873530627916 13.366542133665419,12.92830842538445 13.44956413449564,12.994270187252644
C 13.615608136156082,13.991572646543405 13.864674138646741,17.650973674365485 13.94769613947696,18.582314371788055
C 14.113740141137399,19.320692303148444 14.362806143628061,17.617500541477153 14.44582814445828,17.42453777541497
C 14.61187214611872,17.06716285663654 14.860938148609378,16.602477011833734 14.943960149439599,16.43806485911749
C 15.110004151100041,16.140744678756374 15.3590701535907,15.77352472089314 15.44209215442092,15.640616693248273
C 15.608136156081358,14.890424714986118 15.85720215857202,12.554196940161853 15.94022415940224,11.936912989544568
C 16.10626816106268,12.334652568570696 16.355334163553337,17.012030637761633 16.43835616438356,18.027054167405044
C 16.604400166043998,18.37261503928171 16.85346616853466,14.679740878571288 16.93648816936488,14.010278220804537
C 17.102532171025317,12.992301179435684 17.351598173515978,12.267706302794025 17.434620174346197,11.91919191919192
C 17.60066417600664,12.057022466379195 17.849730178497296,14.350916573138795 17.93275217932752,14.83726150392817
C 18.098796180987957,15.29210230964617 18.347862183478615,14.679740878571288 18.430884184308837,14.648236753499912
C 18.596928185969276,15.507708665603401 18.84599418845994,19.10311693937425 18.92901618929016,19.994092976549116
C 19.0950601909506,20.88506901372398 19.34412619344126,19.99409297654912 19.427148194271478,19.994092976549116
C 19.593192195931916,19.994092976549116 19.842258198422574,19.99409297654912 19.925280199252796,19.994092976549116
C 20.091324200913235,19.994092976549116 20.3403902034039,19.99409297654912 20.42341220423412,19.994092976549116
C 20.58945620589456,19.994092976549116 20.838522208385218,19.99409297654912 20.921544209215437,19.994092976549116
C 21.087588210875875,19.994092976549116 21.33665421336654,19.99409297654912 21.41967621419676,19.994092976549116
C 21.585720215857197,19.63081103431981 21.834786218347855,18.17768326540256 21.917808219178077,17.814401323173254
C 22.08385222083852,17.814401323173254 22.332918223329177,19.63081103431981 22.4159402241594,19.994092976549116
C 22.581984225819838,20.357374918778426 22.831050228310502,19.99409297654912 22.914072229140718,19.994092976549116
C 23.080116230801156,19.99803099218304 23.329182233291814,20.013783054718726 23.412204234122036,20.017721070352646
C 23.57824823578248,20.544430661389722 23.827314238273136,22.631578947368414 23.91033623910336,23.154350522771573
C 24.076380240763797,23.15041250713765 24.32544624325446,20.520802567586195 24.408468244084677,19.994092976549116
C 24.574512245745115,19.12772953708626 24.823578248235776,18.295823734420225 24.906600249066,17.956169885994445
C 25.072644250726437,17.531848701439344 25.321710253217095,17.532833205347824 25.404732254047317,17.4481658692185
C 25.570776255707756,17.164628743576113 25.81984225819842,16.453816921653175 25.90286425902864,16.254947132140114
C 26.068908260689085,16.34059897217792 26.317974263179735,17.67755527989446 26.400996264009958,17.96207690944533
C 26.567040265670396,18.585267883513495 26.816106268161054,19.65542363203182 26.899128268991277,19.994092976549116
C 27.065172270651715,20.332762321066415 27.31423827314238,19.99409297654912 27.3972602739726,19.994092976549116
C 27.563304275633044,19.48707346368165 27.812370278123694,17.458995412211785 27.895392278953917,16.95197589934432
C 28.06143628061436,16.841711461594503 28.31050228310502,18.93575127493256 28.39352428393524,19.33250635005021
C 28.559568285595677,19.839525862917675 28.808634288086342,19.8838285387993 28.891656288916558,19.994092976549116
C 29.057700290577,19.157264654340675 29.306766293067653,15.25862917675783 29.389788293897876,14.311536416799575
C 29.555832295558318,14.103806092110185 29.80489829804898,18.00834859314391 29.887920298879198,18.74771102841278
C 30.053964300539636,19.694803788371036 30.3030303030303,19.786362651859726 30.386052303860517,19.994092976549116
C 30.55209630552096,20.201823301238505 30.801162308011616,19.99409297654912 30.88418430884184,19.994092976549116
C 31.05022831050228,19.994092976549116 31.299294312992938,19.99409297654912 31.382316313823157,19.994092976549116
C 31.548360315483595,19.89662708960955 31.79742631797426,19.50676354185126 31.88044831880448,19.40929765491169
C 32.046492320464914,18.905231653769665 32.29555832295558,17.37629708389942 32.3785803237858,16.96969696969697
C 32.54462432544624,16.164372772559908 32.79369032793689,14.976076555023923 32.87671232876712,14.577352472089315
C 33.04275633042756,15.081418473231338 33.29182233291822,19.09130289247248 33.37484433374844,19.994092976549116
C 33.54088833540888,20.89688306062575 33.78995433789955,19.99409297654912 33.872976338729764,19.994092976549116
C 34.0390203403902,19.994092976549116 34.28808634288085,19.99409297654912 34.37110834371108,19.994092976549116
C 34.53715234537152,19.994092976549116 34.78621834786218,19.99409297654912 34.8692403486924,19.994092976549116
C 35.03528435035284,19.994092976549116 35.28435035284351,19.99409297654912 35.36737235367372,19.994092976549116
C 35.53341635533416,19.994092976549116 35.78248235782481,19.99409297654912 35.86550435865504,19.994092976549116
C 36.031548360315476,19.994092976549116 36.28061436280614,19.99409297654912 36.36363636363636,19.994092976549116
C 36.5296803652968,19.994092976549116 36.77874636778747,19.99409297654912 36.86176836861768,19.994092976549116
C 37.02781237027812,19.994092976549116 37.276878372768785,19.99409297654912 37.359900373599004,19.994092976549116
C 37.52594437525945,19.994092976549116 37.7750103777501,19.99409297654912 37.85803237858032,19.994092976549116
C 38.02407638024076,19.994092976549116 38.27314238273143,19.99409297654912 38.35616438356164,19.994092976549116
C 38.52220838522208,19.994092976549116 38.771274387712744,19.99409297654912 38.85429638854296,19.994092976549116
C 39.02034039020341,19.994092976549116 39.26940639269406,19.99409297654912 39.35242839352428,19.994092976549116
C 39.518472395184716,19.994092976549116 39.76753839767539,19.99409297654912 39.8505603985056,19.994092976549116
C 40.01660440016604,19.994092976549116 40.2656704026567,19.99409297654912 40.34869240348692,19.994092976549116
C 40.51473640514737,19.994092976549116 40.763802407638025,19.99409297654912 40.846824408468244,19.994092976549116
C 41.01286841012868,19.994092976549116 41.26193441261935,19.99409297654912 41.34495641344956,19.994092976549116
C 41.51100041511,19.994092976549116 41.76006641760066,19.99409297654912 41.84308841843088,19.994092976549116
C 42.009132420091326,19.994092976549116 42.258198422581984,19.99409297654912 42.3412204234122,19.994092976549116
C 42.50726442507264,19.994092976549116 42.756330427563306,19.99409297654912 42.83935242839352,19.994092976549116
C 43.00539643005396,19.994092976549116 43.25446243254462,19.99409297654912 43.33748443337484,19.994092976549116
C 43.503528435035285,19.994092976549116 43.75259443752594,19.99409297654912 43.83561643835616,19.994092976549116
C 44.0016604400166,19.994092976549116 44.25072644250727,19.99409297654912 44.333748443337484,19.994092976549116
C 44.49979244499792,19.994092976549116 44.74885844748858,19.99409297654912 44.8318804483188,19.994092976549116
C 44.997924449979244,19.994092976549116 45.2469904524699,19.99409297654912 45.33001245330012,19.994092976549116
C 45.49605645496056,19.994092976549116 45.74512245745123,19.99409297654912 45.82814445828144,19.994092976549116
C 45.99418845994188,19.994092976549116 46.24325446243254,19.99409297654912 46.32627646326276,19.994092976549116
C 46.4923204649232,19.994092976549116 46.74138646741386,19.99409297654912 46.82440846824408,19.994092976549116
C 46.99045246990452,19.994092976549116 47.23951847239519,19.99409297654912 47.3225404732254,19.994092976549116
C 47.48858447488585,19.994092976549116 47.7376504773765,19.99409297654912 47.820672478206724,19.994092976549116
C 47.98671647986717,19.994092976549116 48.23578248235782,19.99409297654912 48.31880448318804,19.994092976549116
C 48.48484848484848,19.994092976549116 48.73391448733915,19.99409297654912 48.81693648816936,19.994092976549116
C 48.98298048982981,19.994092976549116 49.23204649232046,19.99409297654912 49.31506849315068,19.994092976549116
C 49.48111249481113,19.994092976549116 49.73017849730178,19.99409297654912 49.813200498132,19.994092976549116
C 49.979244499792436,19.994092976549116 50.22831050228311,19.99409297654912 50.31133250311332,19.994092976549116
C 50.477376504773765,19.994092976549116 50.726442507264416,19.99409297654912 50.80946450809464,19.994092976549116
C 50.97550850975509,19.994092976549116 51.224574512245745,19.99409297654912 51.307596513075964,19.994092976549116
C 51.473640514736395,19.994092976549116 51.72270651722707,19.99409297654912 51.80572851805728,19.994092976549116
C 51.971772519717724,19.994092976549116 52.220838522208375,19.99409297654912 52.3038605230386,19.994092976549116
C 52.46990452469905,19.994092976549116 52.718970527189704,19.99409297654912 52.80199252801992,19.994092976549116
C 52.968036529680354,19.994092976549116 53.217102532171026,19.99409297654912 53.30012453300124,19.994092976549116
C 53.46616853466168,19.994092976549116 53.715234537152334,19.99409297654912 53.79825653798256,19.994092976549116
C 53.964300539643006,19.994092976549116 54.21336654213366,19.99409297654912 54.29638854296388,19.994092976549116
C 54.46243254462431,19.994092976549116 54.711498547114985,19.99409297654912 54.7945205479452,19.994092976549116
C 54.96056454960564,19.994092976549116 55.20963055209629,19.99409297654912 55.29265255292652,19.994092976549116
C 55.458696554586965,19.994092976549116 55.70776255707762,19.99409297654912 55.79078455790784,19.994092976549116
C 55.95682855956827,19.994092976549116 56.205894562058944,19.99409297654912 56.28891656288916,19.994092976549116
C 56.4549605645496,18.8934176068679 56.70402656704025,14.49071612814303 56.78704856787048,13.390040758461812
C 56.953092569530924,13.390040758461813 57.20215857202158,18.893417606867903 57.2851805728518,19.994092976549116
C 57.45122457451223,21.094768346230335 57.7002905770029,19.99409297654912 57.78331257783312,19.994092976549116
C 57.94935657949356,19.994092976549116 58.19842258198421,19.99409297654912 58.28144458281444,19.994092976549116
C 58.44748858447488,19.994092976549116 58.69655458696554,19.99409297654912 58.77957658779576,19.994092976549116
C 58.94562058945619,19.994092976549116 59.19468659194686,19.99409297654912 59.27770859277708,19.994092976549116
C 59.44375259443752,19.259653060822654 59.69281859692817,16.32189339791679 59.7758405977584,15.587453482190325
C 59.94188459941884,14.771299742059975 60.1909506019095,15.178884360170912 60.27397260273972,15.097170535767027
C 60.44001660440015,14.24360564711442 60.68908260689082,11.237915214523404 60.77210460772104,10.466064150274677
C 60.93814860938148,11.291078425581352 61.18721461187213,18.450390848051672 61.27023661270236,20.047256187607065
C 61.4362806143628,20.659617618681946 61.68534661685346,15.12473664520448 61.76836861768368,14.140232736723965
C 61.93441261934411,14.13137220154764 62.18347862183478,19.018449603244925 62.266500622665,19.994092976549116
C 62.43254462432544,20.96973634985331 62.68161062681609,19.99409297654912 62.76463262764632,19.994092976549116
C 62.93067662930676,19.994092976549116 63.17974263179743,19.99409297654912 63.26276463262764,19.994092976549116
C 63.42880863428808,19.994092976549116 63.67787463677874,19.99409297654912 63.76089663760896,19.994092976549116
C 63.9269406392694,19.994092976549116 64.17600664176005,19.99409297654912 64.25902864259028,19.994092976549116
C 64.42507264425072,19.994092976549116 64.67413864674138,19.99409297654912 64.7571606475716,19.994092976549116
C 64.92320464923203,19.994092976549116 65.1722706517227,19.99409297654912 65.25529265255291,19.994092976549116
C 65.42133665421336,19.994092976549116 65.67040265670401,19.99409297654912 65.75342465753424,19.994092976549116
C 65.91946865919468,19.994092976549116 66.16853466168534,19.99409297654912 66.25155666251555,19.994092976549116
C 66.41760066417599,19.994092976549116 66.66666666666666,19.99409297654912 66.74968866749687,19.994092976549116
C 66.91573266915732,19.994092976549116 67.16479867164797,19.99409297654912 67.2478206724782,19.994092976549116
C 67.41386467413864,19.994092976549116 67.6629306766293,19.99409297654912 67.74595267745951,19.994092976549116
C 67.91199667911995,19.279343138992264 68.16106268161062,16.42034378876484 68.24408468244083,15.705593951207986
C 68.41012868410128,15.052867859885403 68.65919468659193,16.01571268237935 68.74221668742216,16.07773642861362
C 68.9082606890826,16.792486266170474 69.15732669157326,19.34136688522653 69.24034869240347,19.994092976549116
C 69.40639269406391,20.6468190678717 69.65545869655458,19.99409297654912 69.73848069738479,19.994092976549116
C 69.90452469904524,19.994092976549116 70.15359070153589,19.99409297654912 70.23661270236612,19.994092976549116
C 70.40265670402655,19.994092976549116 70.65172270651722,19.99409297654912 70.73474470734743,19.994092976549116
C 70.90078870900787,19.994092976549116 71.14985471149853,19.99409297654912 71.23287671232875,19.994092976549116
C 71.3989207139892,19.994092976549116 71.64798671647985,19.99409297654912 71.73100871731008,19.994092976549116
C 71.89705271897051,19.994092976549116 72.14611872146118,19.99409297654912 72.22914072229139,19.994092976549116
C 72.39518472395183,19.994092976549116 72.64425072644251,19.99409297654912 72.72727272727272,19.994092976549116
C 72.89331672893316,19.994092976549116 73.14238273142381,19.99409297654912 73.22540473225403,19.994092976549116
C 73.39144873391446,18.87668104042373 73.64051473640512,14.407033295922185 73.72353673723535,13.289621359796799
C 73.88958073889579,12.24309370508201 74.13864674138647,13.644042766849786 74.22166874221668,13.714927048260382
C 74.38771274387712,14.83233898438577 74.63677874636777,18.94756532183433 74.719800747198,19.994092976549116
C 74.88584474885842,21.040620631263906 75.13491075134908,19.99409297654912 75.21793275217931,19.994092976549116
C 75.38397675383975,19.994092976549116 75.63304275633043,19.99409297654912 75.71606475716064,19.994092976549116
C 75.88210875882108,19.994092976549116 76.13117476131173,19.99409297654912 76.21419676214195,19.994092976549116
C 76.38024076380238,19.994092976549116 76.62930676629304,19.99409297654912 76.71232876712327,19.994092976549116
C 76.8783727687837,19.994092976549116 77.12743877127438,19.99409297654912 77.2104607721046,19.994092976549116
C 77.37650477376503,19.033217161872134 77.62557077625569,15.189713903164197 77.70859277708591,14.228838088487212
C 77.87463677874634,14.228838088487214 78.123702781237,19.033217161872134 78.20672478206723,19.994092976549116
C 78.37276878372766,20.9549687912261 78.62183478621834,19.99409297654912 78.70485678704856,19.994092976549116
C 78.870900788709,19.994092976549116 79.11996679119964,19.99409297654912 79.20298879202987,19.994092976549116
C 79.3690327936903,19.994092976549116 79.61809879618097,19.99409297654912 79.7011207970112,19.994092976549116
C 79.86716479867164,19.994092976549116 80.1162308011623,19.99409297654912 80.19925280199251,19.994092976549116
C 80.36529680365295,19.9950774804576 80.6143628061436,19.99901549609152 80.69738480697383,20.0
C 80.86342880863425,20.0 81.11249481112493,19.9950774804576 81.19551681195516,19.994092976549116
C 81.3615608136156,19.993108472640635 81.61062681610626,19.99409297654912 81.69364881693647,19.994092976549116
C 81.85969281859691,19.992123968732155 82.10875882108756,19.984247937464314 82.19178082191779,19.98227892964735
C 82.35782482357821,19.98227892964735 82.60689082606889,19.992123968732155 82.68991282689912,19.994092976549116
C 82.85595682855956,19.996061984366076 83.10502283105022,19.99409297654912 83.18804483188043,19.994092976549116
C 83.35408883354087,19.946836788942054 83.60315483603152,19.75781203851379 83.68617683686175,19.710555850906726
C 83.85222083852217,19.710555850906726 84.10128684101285,19.946836788942054 84.18430884184308,19.994092976549116
C 84.35035284350352,20.04134916415618 84.59941884599418,19.99409297654912 84.68244084682439,19.994092976549116
C 84.84848484848483,19.994092976549116 85.09755085097548,19.99409297654912 85.1805728518057,19.994092976549116
C 85.34661685346613,19.992123968732155 85.59568285595681,19.984247937464314 85.67870485678704,19.98227892964735
C 85.84474885844747,19.98227892964735 86.09381486093811,19.992123968732155 86.17683686176835,19.994092976549116
C 86.34288086342877,19.996061984366076 86.59194686591945,19.99409297654912 86.67496886674967,19.994092976549116
C 86.84101286841009,20.075806800953 87.09007887090077,20.402662098568527 87.173100871731,20.48437592297241
C 87.33914487339143,20.67536968121763 87.58821087588207,21.0307755921791 87.67123287671231,21.140055526020436
C 87.83727687837275,21.005178490558606 88.08634288086341,19.919270679504596 88.16936488169364,19.67511371020143
C 88.33540888335408,19.48411995195621 88.58447488584476,19.94092976549117 88.66749688667495,19.994092976549116
C 88.83354088833539,20.047256187607065 89.08260689082603,19.99409297654912 89.16562889165627,19.994092976549116
C 89.3316728933167,19.852324413727924 89.58073889580737,19.285250162443145 89.6637608966376,19.14348159962195
C 89.82980489829804,19.14348159962195 90.07887090078871,19.852324413727924 90.16189290161891,19.994092976549116
C 90.32793690327935,20.069899777502116 90.57700290576999,19.664284167208145 90.66002490660023,19.598322405339946
C 90.82606890826067,19.458522850335715 91.07513491075133,19.22913343965976 91.15815691158156,19.155295646523715
C 91.324200913242,19.22125740839191 91.57326691573267,19.854293421544885 91.65628891656287,19.994092976549116
C 91.82233291822331,20.13389253155335 92.07139892071395,19.99409297654912 92.15442092154419,19.994092976549116
C 92.32046492320463,19.994092976549116 92.56953092569529,19.99409297654912 92.65255292652552,19.994092976549116
C 92.81859692818595,19.994092976549116 93.06766293067663,19.99409297654912 93.15068493150683,19.994092976549116
C 93.31672893316727,19.994092976549116 93.5657949356579,19.99409297654912 93.64881693648815,19.994092976549116
C 93.81486093814858,19.994092976549116 94.06392694063925,19.99409297654912 94.14694894146947,19.994092976549116
C 94.31299294312991,19.225195424025834 94.56205894562059,16.1496052139327 94.64508094645079,15.380707661409415
C 94.81112494811123,14.732904089629235 95.06019095060189,15.986177565124933 95.14321295143212,16.107271545868034
C 95.30925695309254,16.13089963967157 95.55832295558321,15.61994211117018 95.64134495641343,15.52247622423061
C 95.80738895807387,14.936696398684704 96.05645496056455,13.080906531198929 96.13947696139475,12.592592592592593
C 96.30552096305519,12.244078208990489 96.55458696554585,13.29159036761376 96.63760896637608,13.431389922617994
C 96.8036529680365,13.983696615275562 97.05271897052717,15.493925610884679 97.1357409713574,15.906432748538013
C 97.30178497301783,17.000216590859868 97.55085097550851,19.3128162718806 97.63387297633871,19.994092976549116
C 97.79991697799915,20.029535117254415 98.04898298048981,16.76492015673302 98.13200498132004,16.119085592769803
C 98.29804898298046,15.539212790674776 98.54711498547113,16.448894402110778 98.63013698630135,16.51485616397897
C 98.79618098796179,15.932029850158502 99.04524699045247,13.270915785535669 99.12826899128267,12.622127709847009
C 99.2943129929431,12.051115442928308 99.54337899543377,13.011006753696812 99.626400996264,13.088782562466774
C 99.79244499792442,13.662748341110914 100.04151100041508,15.569732411837672 100.12453300124531,16.065922381711854
C 100.29057700290575,15.994053596392774 100.53964300539643,13.225628605745568 100.62266500622663,12.657569850552308
C 100.78870900788706,11.655344871719143 101.03777501037773,10.48673873235277 101.12079701120796,10.05257250871286
C 101.28684101286838,10.183511528540768 101.53590701535904,12.878098726051944 101.61892901618927,13.44320396951976
C 101.78497301784971,13.810423927382994 102.03403902034039,12.453777541496839 102.1170610211706,12.255892255892256
C 102.28310502283104,12.572902514422983 102.53217102532169,14.830369976568809 102.61519302615191,15.345265520704118
C 102.78123702781234,15.274381239293518 103.030303030303,12.416366392974581 103.11332503113323,11.830586567428673
C 103.27936903279367,11.404296375056608 103.52843503528435,12.62803473329789 103.61145703611456,12.787524366471734
C 103.77750103777502,13.169511882962174 104.02656704026565,13.900013783054717 104.10958904109587,14.122511666371315
C 104.2756330427563,14.10971311556107 104.52469904524696,12.946029495737095 104.60772104607719,12.710733061610254
C 104.77376504773763,13.072045996022602 105.0228310502283,15.693779904306218 105.10585305105852,16.290389272845413
C 105.27189705271898,16.879122610116763 105.5209630552096,16.251009116506193 105.60398505603983,16.243133085238348
C 105.77002905770026,15.79026128733731 106.01909506019092,14.018154252072383 106.10211706102115,13.573158485439189
C 106.26816106268159,13.549530391635656 106.51722706517226,15.679996849587491 106.60024906600248,16.101364522417153
C 106.76629306766294,16.282513241577565 107.01535907015356,14.900269754070926 107.09838107098379,14.66005080040168
C 107.26442507264422,14.410971311556109 107.51349107513488,14.615748124520055 107.5965130759651,14.60688758934373
C 107.76255707762554,14.504499182861757 108.01162308011622,14.139248232815483 108.09464508094644,14.045720361509835
C 108.2606890826069,13.802547896115145 108.50975508509752,13.297497391064644 108.59277708592775,13.147852796975604
C 108.75882108758817,13.150806308701045 109.00788709007884,13.910843326048003 109.09090909090907,14.063441431862485
C 109.2569530925695,15.03022426999035 109.50601909506018,18.13436509342942 109.5890410958904,18.948549825742806
C 109.75508509755086,19.061767775218065 110.00415110004148,15.443715911552168 110.08717310087171,14.74274912871404
C 110.25321710253216,13.974836080099239 110.50228310502281,14.408017799830665 110.58530510585304,14.34107153405399
C 110.75134910751348,14.768346230334535 111.00041511000416,16.812176344340088 111.08343711083435,17.306397306397304
C 111.24948111249479,18.24856754681316 111.49854711498544,19.546143698190484 111.58156911581567,19.994092976549116
C 111.74761311747612,20.44204225490775 111.99667911996677,19.99409297654912 112.079701120797,19.994092976549116
C 112.24574512245744,19.994092976549116 112.49481112494811,19.99409297654912 112.57783312577831,19.994092976549116
C 112.74387712743875,19.421111701813455 112.9929431299294,17.129186602870814 113.07596513075963,16.556205328135153
C 113.24200913242008,16.565065863311478 113.49107513491073,19.46541437769508 113.57409713574096,20.047256187607065
C 113.7401411374014,20.620237462342725 113.98920713989207,20.002953511725444 114.07222914072227,19.994092976549116
C 114.23827314238271,19.52350010829543 114.48733914487336,17.685431311162308 114.57036114570359,17.223698978084943
C 114.73640514736404,16.637919152539038 114.98547114985469,16.603461515742215 115.06849315068492,16.479414023273673
C 115.23453715234535,16.941146356351034 115.48360315483603,19.40831315100321 115.56662515566623,19.994092976549116
C 115.73266915732667,20.57987280209502 115.98173515981732,19.99409297654912 116.06475716064755,19.994092976549116
C 116.230801162308,19.994092976549116 116.47986716479865,19.99409297654912 116.56288916562887,19.994092976549116
C 116.72893316728931,18.937720282749524 116.97799916977999,14.712229507551143 117.06102117061019,13.655856813751551
C 117.22706517227063,12.62606572548093 117.47613117476129,13.788764841396421 117.55915317559152,13.815346446925394
C 117.72519717725197,14.870734636816508 117.97426317974261,18.959379368736094 118.05728518057283,19.98818595309823
C 118.22332918223327,19.96849587492862 118.47239518472395,14.745702640439482 118.55541718555415,13.697205977907734
C 118.72146118721459,12.878098726051944 118.97052718970525,14.844153031287533 119.05354919053548,15.073542441963495
C 119.21959319219593,15.185775887530275 119.46865919468657,14.487762616417585 119.55168119551679,14.370606651308405
C 119.71772519717723,14.521235749305923 119.96679119966791,15.70953196684191 120.04981320049811,15.97731702994861
C 120.21585720215855,16.914564750822063 120.46492320464921,19.324630318782365 120.54794520547944,19.994092976549116
C 120.71398920713989,19.2370094709276 120.96305520963053,12.861362159607774 121.04607721046075,11.434815996219506
C 121.21212121212119,11.451552562663673 121.46118721461187,18.651229645381694 121.54420921544207,20.09451237521413
C 121.7102532171025,21.5210585386024 121.95931921959317,20.010829542993285 122.0423412204234,19.994092976549116
C 122.20838522208385,19.97735641010495 122.45745122457448,19.99409297654912 122.54047322540471,19.994092976549116
C 122.70651722706515,19.994092976549116 122.95558322955583,19.99409297654912 123.03860523038603,19.994092976549116
C 123.20464923204646,19.994092976549116 123.45371523453713,19.99409297654912 123.53673723536735,19.994092976549116
C 123.7027812370278,19.994092976549116 123.95184723951844,19.99409297654912 124.03486924034867,19.994092976549116
C 124.20091324200911,19.994092976549116 124.44997924449979,19.99409297654912 124.53300124533,19.994092976549116
C 124.69904524699042,19.994092976549116 124.94811124948109,19.99409297654912 125.03113325031131,19.994092976549116
C 125.19717725197177,19.994092976549116 125.4462432544624,19.99409297654912 125.52926525529263,19.994092976549116
C 125.69530925695307,19.23405595920216 125.94437525944375,16.193907889814323 126.02739726027396,15.433870872467365
C 126.19344126193438,14.437552917085084 126.44250726442505,14.252466182290744 126.52552926525527,14.01618524425542
C 126.69157326691573,13.76907476322681 126.94063926940636,13.962037529288992 127.02366127023659,13.951207986295705
C 127.18970527189703,14.216039537676963 127.4387712743877,15.329513458168428 127.52179327521792,15.605174552542975
C 127.68783727687834,15.55791836493591 127.936903279369,13.990588142634929 128.01992528019923,13.667670860653319
C 128.18596928185968,12.551243428436413 128.43503528435033,9.700120109476837 128.51805728518056,8.906609959241539
C 128.684101286841,8.776655443322111 128.93316728933166,12.224388130820879 129.0161892901619,12.887943765136749
C 129.1822332918223,13.05826294130388 129.43129929431302,10.421761474393055 129.51432129514322,9.928525016244315
C 129.68036529680367,9.662708960954575 129.9294312992943,11.06562703053931 130.01245330012452,11.29304743339831
C 130.17849730178497,12.910587355031799 130.42756330427562,18.243645027270755 130.51058530510585,19.633764546045246
C 130.67662930676627,21.083938803237046 130.92569530925698,19.93403823813181 131.00871731008718,19.994092976549116
C 131.17476131174763,19.066690294760473 131.42382731423825,15.056805875519325 131.50684931506848,14.069348455313369
C 131.67289331672893,12.830842538444882 131.92195931921958,12.81410597200071 132.0049813200498,12.563057475338178
C 132.17102532171023,13.550514895544138 132.42009132420094,18.75558705968063 132.50311332503114,19.994092976549116
C 132.6691573266916,21.16565262764093 132.9182233291822,19.65936164766574 133.00124533001244,19.592415381889065
C 133.1672893316729,17.424537775414965 133.41635533416354,9.087758678401952 133.49937733499377,6.986827337704531
C 133.6654213366542,5.9964164057731315 133.9144873391449,12.539429381534646 133.9975093399751,13.649949790300669
C 134.16355334163555,12.787524366471738 134.41261934412617,3.785220627325892 134.4956413449564,1.812274794730937
C 134.66168534661685,1.4883730088408467 134.9107513491075,10.057495028255264 134.99377334993773,11.706539074960128
C 135.15981735159815,14.736842105263158 135.40888335408886,18.61283399295095 135.49190535491906,19.994092976549116
C 135.6579493565795,21.37535196014728 135.90701535907013,19.99409297654912 135.99003735990036,19.994092976549116
C 136.1560813615608,19.14249709571347 136.40514736405146,15.736113572370881 136.48816936488168,14.884517691535235
C 136.6542133665421,13.755291708508082 136.90327936903282,13.496367180577709 136.986301369863,13.218737078386201
C 137.15234537152347,13.06318546084628 137.4014113740141,13.82912950164412 137.48443337484431,13.951207986295705
C 137.65047737650477,13.981727607458602 137.89954337899542,13.493413668852265 137.98256537982564,13.401854805363579
C 138.14860938148607,13.862602634532463 138.39767538397678,16.163388268651424 138.48069738480697,16.715694961308994
C 138.64674138646743,17.811447811447806 138.89580738895805,19.432925748715224 138.97882938978827,19.976371906196466
C 139.14487339144873,19.133636560537145 139.39393939393938,13.04546439049363 139.4769613947696,11.659282887353063
C 139.64300539643003,10.35481520861638 139.89207139892073,12.067852009372475 139.97509339975093,12.14956583377636
C 140.14113740141138,12.43704097505267 140.390203403902,13.178372418138501 140.47322540473223,13.384133735010929
C 140.63926940639269,13.424498395258631 140.88833540888334,12.557150451887296 140.97135740971356,12.391753795262568
C 141.137401411374,12.630988245023334 141.3864674138647,14.41490932719003 141.4694894146949,14.819540433575522
C 141.63553341635534,15.52346072813909 141.88459941884597,16.315986374465904 141.9676214196762,16.615275562643983
C 142.13366542133664,16.54931380077579 142.3827314238273,14.789020812412625 142.46575342465752,14.423769862366354
C 142.63179742631795,13.82420698210172 142.88086342880865,13.252210211274539 142.96388542963885,13.017898281056176
C 143.1299294312993,13.583003524523994 143.37899543378995,17.014984149487073 143.46201743462018,17.814401323173254
C 143.62806143628063,17.18136531002028 143.87712743877125,10.652135388977493 143.96014943960148,9.219682202138342
C 144.1261934412619,9.58296414436765 144.3752594437526,18.198357847480654 144.4582814445828,19.994092976549116
C 144.62432544624326,21.789828105617577 144.8733914487339,19.99409297654912 144.95641344956414,19.994092976549116
C 145.1224574512246,19.21141236930711 145.3715234537152,16.08068994033906 145.45454545454544,15.298009333097053
C 145.62058945620586,13.78679583357946 145.86965545869657,11.655344871719143 145.95267745952677,10.926811979443558
C 146.11872146118722,9.891113867722055 146.36778746367787,9.390985882213952 146.4508094645081,9.083820662768032
C 146.61685346616855,9.947230590505443 146.86591946865917,14.936696398684703 146.9489414694894,16.107271545868034
C 147.11498547114982,17.460964420028745 147.36405147364053,17.02286018075492 147.44707347447073,17.205977907732294
C 147.61311747613118,16.841711461594503 147.86218347862183,14.469057042156457 147.94520547945206,13.92167286904129
C 148.1112494811125,13.455018016421526 148.36031548360313,14.3253194715183 148.44333748443336,14.406048792013705
C 148.60938148609378,14.30267588162325 148.8584474885845,13.485537637584422 148.9414694894147,13.301435406698564
C 149.10751349107514,14.23277610412113 149.3565794935658,18.878650048240694 149.43960149439602,19.994092976549116
C 149.60564549605647,21.10953590485754 149.8547114985471,19.99409297654912 149.93773349937732,19.994092976549116
C 150.10377750103774,19.036170673597574 150.35284350352845,15.204481461791403 150.43586550435865,14.24655915883986
C 150.6019095060191,13.071061492114126 150.85097550850975,13.158682339968891 150.93399750933997,12.941106976194696
C 151.10004151100043,12.89188178077067 151.34910751349105,13.782857817945539 151.43212951432128,13.951207986295705
C 151.5981735159817,14.793943331955026 151.8472395184724,17.323133872841474 151.9302615193026,17.99751905015063
C 152.09630552096306,17.5190501506291 152.3453715234537,12.233248665997207 152.42839352428393,11.08039458916652
C 152.5944375259444,10.088014649418161 152.843503528435,11.882765274578139 152.92652552926523,12.043239411660464
C 153.09256953092566,13.079922027290449 153.34163553341637,16.424281804398763 153.42465753424656,17.300490282946424
C 153.59070153590702,17.39401815425207 153.83976753839767,13.387087246736371 153.9227895392279,12.604406639494359
C 154.08883354088834,11.992045208419476 154.33789954337897,13.456002520330005 154.4209215442092,13.626321696497135
C 154.58696554586962,14.19339594778191 154.83603154836032,15.610097072085376 154.91905354919052,16.006852147203023
C 155.08509755085097,16.270699194675803 155.33416355334163,15.342312008978674 155.41718555417185,15.209403981333805
C 155.5832295558323,15.656368755783959 155.83229555832293,18.10876799180893 155.91531755915315,18.68864079390395
C 156.08136156081358,18.183590288853445 156.33042756330428,13.264024258176304 156.41344956413448,12.179100951030776
C 156.57949356579493,11.539173410518439 156.82855956828558,14.404079784196744 156.9115815691158,14.849075550829937
C 157.07762557077626,16.14862071002422 157.32669157326688,19.121822513635376 157.4097135740971,19.976371906196466
C 157.57575757575754,20.833874810482996 157.82482357824824,19.99113946482368 157.90784557907844,19.994092976549116
C 158.0738895807389,19.99704648827456 158.32295558322954,19.99409297654912 158.40597758405977,19.994092976549116
C 158.57202158572022,19.994092976549116 158.82108758821087,19.99409297654912 158.9041095890411,19.994092976549116
C 159.07015359070152,19.994092976549116 159.3192195931922,19.99409297654912 159.4022415940224,19.994092976549116
C 159.56828559568285,19.13462106444563 159.8173515981735,15.69673341603166 159.90037359900373,14.83726150392817
C 160.06641760066418,13.485537637584422 160.31548360315483,12.376001732726882 160.39850560398506,11.88374977848662
C 160.56454960564548,12.171224919762933 160.81361560813616,15.782385256069462 160.89663760896636,16.562112351586034
C 161.0626816106268,16.983480024415694 161.31174761311746,14.770315238151497 161.3947696139477,14.411955815464589
C 161.56081361560814,14.98395258629177 161.8098796180988,19.06373678303503 161.89290161892902,19.994092976549116
C 162.05894562058944,20.924449170063202 162.30801162308012,19.99409297654912 162.39103362391032,19.994092976549116
C 162.55707762557077,19.994092976549116 162.80614362806142,19.99409297654912 162.88916562889165,19.994092976549116
C 163.0552096305521,19.994092976549116 163.30427563304275,19.99409297654912 163.38729763387298,19.994092976549116
C 163.5533416355334,19.663299663299664 163.80240763802408,18.340126410301853 163.88542963885428,18.009333097052394
C 164.05147364051473,17.317226849390593 164.30053964300538,16.202768424990648 164.3835616438356,15.841455490578298
C 164.54960564549606,15.70854746293343 164.7986716479867,16.983480024415694 164.88169364881693,17.211884931183175
C 165.04773765047736,16.808238328706164 165.29680365296804,14.05162738496072 165.37982565379824,13.419575875716227
C 165.5458696554587,13.821253470376277 165.79493565794934,18.588221395238936 165.87795765877956,19.62195049914348
C 166.04400166044002,20.717703349282296 166.29306766293067,19.932069230314845 166.3760896637609,19.994092976549116
C 166.54213366542132,20.05611672278339 166.791199667912,19.99409297654912 166.8742216687422,19.994092976549116
C 167.04026567040265,19.976371906196466 167.2893316728933,19.905487624785867 167.37235367372352,19.88776655443322
C 167.53839767538398,19.33742886959261 167.78746367787463,17.224683481993427 167.87048567870485,16.692066867505464
C 168.03652968036528,16.084627955972987 168.28559568285596,16.317955382282864 168.36861768368615,16.243133085238348
C 168.5346616853466,16.793470770078958 168.78372768783726,19.36893299466399 168.86674968866748,19.994092976549116
C 169.03279369032794,20.61925295843424 169.28185969281859,19.99409297654912 169.3648816936488,19.994092976549116
C 169.53092569530924,19.994092976549116 169.77999169779991,19.99409297654912 169.8630136986301,19.994092976549116
C 170.02905770029056,19.994092976549116 170.27812370278122,19.99409297654912 170.36114570361144,19.994092976549116
C 170.5271897052719,18.922952724122315 170.77625570776254,14.638391714415105 170.85927770859277,13.567251461988304
C 171.02532171025322,12.573887018331463 171.27438771274387,13.956130505838109 171.35740971357407,14.03390631460807
C 171.52345371523452,14.545848347017937 171.7725197177252,16.204737432807608 171.8555417185554,16.638903656447514
C 172.02158572021585,16.60739953137614 172.2706517227065,14.310551912891093 172.35367372353673,13.84488156417981
C 172.51971772519718,13.560359934628941 172.76878372768783,14.750625159981887 172.85180572851803,14.9317738791423
C 173.01784973017848,15.931045346250023 173.26691573266916,19.02238761887885 173.34993773349936,19.840510366826155
C 173.5159817351598,20.5759347864611 173.76504773765046,19.42701872526434 173.8480697384807,19.344320396951975
C 174.01411374014114,19.36991749857247 174.26317974263182,19.885797546616264 174.34620174346202,19.994092976549116
C 174.51224574512244,19.08736487683856 174.76131174761312,14.918975328332055 174.84433374844332,13.903951798688642
C 175.01037775010377,13.761198731958968 175.25944375259442,18.26530411325733 175.34246575342465,19.137574576171065
C 175.5085097550851,19.81195975348022 175.75757575757578,18.148148148148145 175.84059775840598,17.950262862543564
C 176.0066417600664,17.647035658731564 176.25570776255708,17.42355327150649 176.33872976338728,17.31821135329907
C 176.50477376504773,17.658849705633326 176.75383976753838,19.54811270600744 176.8368617683686,19.994092976549116
C 177.00290577002906,20.14472207454664 177.25197177251974,18.51733711382834 177.33499377334994,18.221985941284185
C 177.50103777501036,18.221985941284185 177.75010377750104,19.69874180400496 177.83312577833124,19.994092976549116
C 177.9991697799917,19.060783271309585 178.24823578248234,13.850788587630694 178.33125778331257,12.622127709847009
C 178.49730178497302,11.91623840746648 178.7463677874637,15.23598558686278 178.8293897882939,15.758757162265935
C 178.99543378995432,16.96772796188001 179.244499792445,19.189753283320538 179.3275217932752,19.875952507531455
C 179.49356579493565,20.34162285624274 179.7426317974263,18.773308130033275 179.82565379825652,18.55277925453364
C 179.99169779991698,17.2916297477701 180.24076380240766,13.349676098214111 180.32378580323785,12.309055466950204
C 180.48982980489828,10.556638509854883 180.73889580738896,8.750073837793137 180.82191780821915,8.038277511961724
C 180.9879618098796,9.319117096894876 181.23702781237026,18.001457065784553 181.32004981320048,19.994092976549116
C 181.48609381486094,21.986728887313685 181.73515981735162,19.99409297654912 181.8181818181818,19.994092976549116
C 181.90120381901204,19.994092976549116 181.81818181818184,19.99409297654912 181.8181818181818,19.994092976549116
" ></path>
  </svg>
