  <svg id="graph" xmlns="http://www.w3.org/2000/svg" class='w-full' width='200' height='30' viewbox="0 0 300.0 20">
  <path fill="none" class='stroke-2 stroke-amber-900 dark:stroke-amber-300' d="M 3.3670033670033668,19.99797077922078
C 3.9281705948372614,17.400229978354982 6.1728395061728385,14.736539502164504 6.7340067340067336,14.070616883116884
C 7.856341189674524,12.784090909090908 9.539842873176205,10.967600108225108 10.1010101010101,10.346996753246755
C 11.223344556677889,9.646239177489178 12.906846240179574,9.94622564935065 13.468013468013467,9.866071428571429
C 14.590347923681255,8.444264069264069 16.273849607182942,3.157805735930738 16.835016835016834,1.8161525974025994
C 17.957351290684624,0.5499188311688332 19.640852974186306,2.1932494588744595 20.2020202020202,2.2686688311688314
C 21.32435465768799,3.320143398268398 23.007856341189676,7.148944805194808 23.569023569023567,8.125000000000002
C 24.691358024691354,10.478557900432902 26.37485970819304,15.012513528138527 26.936026936026934,16.390016233766232
C 28.058361391694728,18.426339285714285 29.741863075196406,19.684117965367964 30.3030303030303,20.34293831168831
C 31.42536475869809,20.177218614718612 33.108866442199776,16.2202380952381 33.67003367003367,15.395698051948052
C 34.79236812570146,14.903612012987013 36.47586980920314,17.05796807359307 37.03703703703704,17.39042207792208
C 38.15937149270483,17.64069264069264 39.8428731762065,16.979504870129873 40.4040404040404,16.89732142857143
C 41.52637485970819,17.33191287878788 43.20987654320987,19.481195887445885 43.771043771043765,19.99797077922078
C 44.89337822671155,20.51474567099567 46.57687991021324,19.997970779220775 47.13804713804713,19.99797077922078
C 48.260381593714925,19.99797077922078 49.9438832772166,19.997970779220775 50.505050505050505,19.99797077922078
C 51.627384960718295,19.99797077922078 53.31088664421998,19.997970779220775 53.87205387205387,19.99797077922078
C 54.99438832772165,19.99797077922078 56.67789001122335,19.997970779220775 57.23905723905723,19.99797077922078
C 58.36139169472502,19.99797077922078 60.044893378226696,19.997970779220775 60.606060606060595,19.99797077922078
C 61.728395061728385,19.619859307359306 63.41189674523008,18.107413419913417 63.97306397306397,17.729301948051948
C 65.09539842873176,16.318993506493506 66.77890011223344,12.568317099567103 67.34006734006734,11.536120129870131
C 68.46240179573512,11.914231601731606 70.1459034792368,18.58766233766234 70.7070707070707,19.99797077922078
C 71.8294051627385,20.93851461038961 73.51290684624016,17.649147727272727 74.07407407407406,17.179383116883116
C 75.19640852974184,17.179383116883116 76.87991021324355,19.52820616883117 77.44107744107744,19.99797077922078
C 78.56341189674522,19.72436417748918 80.2469135802469,16.281114718614717 80.8080808080808,15.537743506493506
C 81.9304152637486,15.207656926406926 83.61391694725027,17.604166666666668 84.17508417508417,18.0174512987013
C 85.29741863075195,18.744250541125542 86.98092031425364,19.585024350649352 87.54208754208753,19.898538961038962
C 88.66442199775531,20.25602002164502 90.347923681257,20.11837121212121 90.90909090909089,20.162337662337663
C 92.03142536475868,20.154897186147185 93.71492704826038,19.905303030303028 94.27609427609427,19.853896103896105
C 95.39842873176205,19.77847673160173 97.08193041526374,19.73383387445887 97.64309764309763,19.709821428571427
C 98.76543209876542,17.95758928571428 100.4489337822671,11.068722943722944 101.010101010101,9.340503246753247
C 102.13243546576878,6.9358766233766245 103.81593714927048,5.958468614718616 104.37710437710437,5.282061688311689
C 105.49943883277216,4.340841450216451 107.18294051627385,3.9579951298701315 107.74410774410774,3.69318181818182
C 108.86644219977552,4.174107142857145 110.54994388327721,7.421875 111.1111111111111,8.167613636363637
C 112.23344556677888,9.315476190476192 113.91694725028059,10.178233225108226 114.47811447811446,10.580357142857144
C 115.60044893378226,11.998444264069263 117.28395061728394,15.66017316017316 117.84511784511783,16.676136363636363
C 118.96745230078562,17.168222402597404 120.6509539842873,14.056750541125544 121.2121212121212,13.532873376623378
C 122.33445566778902,12.768533549783553 124.01795735129066,12.330560064935064 124.57912457912457,12.090097402597404
C 125.70145903479234,13.167613636363635 127.38496071829404,18.67999188311688 127.94612794612793,19.99797077922078
C 129.0684624017957,18.711444805194805 130.75196408529743,6.975446428571431 131.31313131313132,4.37094155844156
C 132.4354657687991,2.5111607142857157 134.11896745230078,8.094561688311689 134.68013468013467,8.839285714285715
C 135.80246913580245,8.797348484848486 137.48597081930416,4.905979437229439 138.04713804713805,4.119318181818183
C 139.16947250280586,5.979099025974027 140.85297418630753,17.35152867965368 141.41414141414143,19.99797077922078
C 142.5364758698092,20.574607683982684 144.21997755331088,9.648944805194807 144.78114478114477,7.579139610389612
C 145.90347923681256,5.108225108225111 147.58698092031426,5.5735930735930745 148.14814814814815,5.172483766233768
C 149.27048260381594,5.087932900432903 150.95398428731764,6.755275974025975 151.51515151515153,7.0718344155844175
C 152.6374859708193,8.109780844155845 154.320987654321,10.678774350649354 154.88215488215488,11.400162337662339
C 156.00448933782266,11.241544913419915 157.68799102132436,7.000135281385281 158.24915824915826,6.120129870129871
C 159.37149270482607,5.446428571428572 161.0549943883277,7.151650432900435 161.6161616161616,7.357954545454547
C 162.7384960718294,8.910308441558442 164.4219977553311,14.088203463203465 164.98316498316498,15.434253246753247
C 166.10549943883277,16.911187770562773 167.78900112233444,16.08867694805195 168.35016835016836,16.21956168831169
C 169.47250280583614,16.179315476190478 171.1560044893378,15.363906926406925 171.7171717171717,15.192775974025974
C 172.8395061728395,15.050730519480519 174.5230078563412,15.338203463203463 175.0841750841751,15.367288961038962
C 176.20650953984287,14.946902056277056 177.89001122334454,13.11992694805195 178.45117845117844,12.670454545454547
C 179.57351290684622,12.921739718614718 181.25701459034795,16.174242424242426 181.8181818181818,16.875
C 182.37934904601573,17.575757575757574 181.81818181818184,16.875 181.8181818181818,16.875
" ></path>
  </svg>
