  <svg id="graph" xmlns="http://www.w3.org/2000/svg" class='w-full' width='200' height='30' viewbox="0 0 300.0 20">
  <path fill="none" class='stroke-2 stroke-amber-900 dark:stroke-amber-300' d="M 3.3670033670033668,19.99797077922078
C 3.9281705948372614,17.29707792207792 6.1728395061728385,12.67857142857143 6.7340067340067336,11.523944805194805
C 7.856341189674524,11.150229978354979 9.539842873176205,15.428503787878789 10.1010101010101,16.209415584415584
C 11.223344556677889,16.369724025974026 12.906846240179574,13.10639880952381 13.468013468013467,12.485795454545455
C 14.590347923681255,11.144480519480522 16.273849607182942,8.882237554112555 16.835016835016834,8.161525974025976
C 17.957351290684624,6.697443181818183 19.640852974186306,4.444669913419916 20.2020202020202,3.701298701298704
C 21.32435465768799,4.947578463203466 23.007856341189676,13.649553571428571 23.569023569023567,15.639204545454547
C 24.691358024691354,17.595035173160174 26.37485970819304,15.470102813852817 26.936026936026934,15.436282467532468
C 28.058361391694728,14.302962662337663 29.741863075196406,9.938785173160174 30.3030303030303,8.839285714285715
C 31.42536475869809,7.600784632034634 33.108866442199776,8.144277597402597 33.67003367003367,8.005275974025976
C 34.79236812570146,8.623511904761905 36.47586980920314,11.791463744588745 37.03703703703704,12.5487012987013
C 38.15937149270483,13.55959145021645 39.8428731762065,13.816964285714286 40.4040404040404,14.070616883116884
C 41.52637485970819,13.702651515151516 43.20987654320987,10.962527056277056 43.771043771043765,10.340909090909092
C 44.89337822671155,9.640151515151516 46.57687991021324,9.94521103896104 47.13804713804713,9.866071428571429
C 48.260381593714925,8.44527867965368 49.9438832772166,3.157805735930738 50.505050505050505,1.8161525974025994
C 51.627384960718295,0.5499188311688332 53.31088664421998,2.1932494588744595 53.87205387205387,2.2686688311688314
C 54.99438832772165,3.320143398268398 56.67789001122335,7.148944805194808 57.23905723905723,8.125000000000002
C 58.36139169472502,10.478557900432902 60.044893378226696,15.012513528138527 60.606060606060595,16.390016233766232
C 61.728395061728385,18.128382034632033 63.41189674523008,18.19433170995671 63.97306397306397,18.555194805194805
C 65.09539842873176,18.38947510822511 66.77890011223344,15.922280844155845 67.34006734006734,15.395698051948052
C 68.46240179573512,15.201569264069265 70.1459034792368,17.05796807359307 70.7070707070707,17.39042207792208
C 71.8294051627385,17.64069264069264 73.51290684624016,16.979504870129873 74.07407407407406,16.89732142857143
C 75.19640852974184,17.33191287878788 76.87991021324355,19.481195887445885 77.44107744107744,19.99797077922078
C 78.56341189674522,20.51474567099567 80.2469135802469,19.997970779220775 80.8080808080808,19.99797077922078
C 81.9304152637486,19.99797077922078 83.61391694725027,19.997970779220775 84.17508417508417,19.99797077922078
C 85.29741863075195,19.99797077922078 86.98092031425364,19.997970779220775 87.54208754208753,19.99797077922078
C 88.66442199775531,19.99797077922078 90.347923681257,19.997970779220775 90.90909090909089,19.99797077922078
C 92.03142536475868,19.99797077922078 93.71492704826038,19.997970779220775 94.27609427609427,19.99797077922078
C 95.39842873176205,19.619859307359306 97.08193041526374,18.107413419913417 97.64309764309763,17.729301948051948
C 98.76543209876542,16.315949675324674 100.4489337822671,12.553097943722946 101.010101010101,11.517857142857144
C 102.13243546576878,11.895968614718617 103.81593714927048,18.584618506493506 104.37710437710437,19.99797077922078
C 105.49943883277216,20.941558441558442 107.18294051627385,17.649147727272727 107.74410774410774,17.179383116883116
C 108.86644219977552,17.179383116883116 110.54994388327721,19.52820616883117 111.1111111111111,19.99797077922078
C 112.23344556677888,19.72436417748918 113.91694725028059,16.281114718614717 114.47811447811446,15.537743506493506
C 115.60044893378226,15.207656926406926 117.28395061728394,17.604166666666668 117.84511784511783,18.0174512987013
C 118.96745230078562,18.743912337662337 120.6509539842873,19.583333333333332 121.2121212121212,19.89650974025974
C 122.33445566778902,20.22558170995671 124.01795735129066,19.975987554112553 124.57912457912457,19.991883116883116
C 125.70145903479234,19.919169372294373 127.38496071829404,19.548836580086576 127.94612794612793,19.460227272727273
C 129.0684624017957,19.413216991341994 130.75196408529743,19.6682224025974 131.31313131313132,19.709821428571427
C 132.4354657687991,18.023200757575754 134.11896745230078,11.068722943722944 134.68013468013467,9.340503246753247
C 135.80246913580245,6.933847402597404 137.48597081930416,5.9483225108225115 138.04713804713805,5.269886363636365
C 139.16947250280586,4.328327922077924 140.85297418630753,3.9542748917748938 141.41414141414143,3.691152597402599
C 142.5364758698092,4.174107142857144 144.21997755331088,7.421536796536796 144.78114478114477,8.167613636363637
C 145.90347923681256,9.315814393939394 147.58698092031426,10.178233225108226 148.14814814814815,10.580357142857144
C 149.27048260381594,11.995400432900434 150.95398428731764,15.644954004329003 151.51515151515153,16.657873376623378
C 152.6374859708193,17.14995941558442 154.320987654321,14.053706709956714 154.88215488215488,13.532873376623378
C 156.00448933782266,12.765827922077923 157.68799102132436,12.301812770562771 158.24915824915826,12.05560064935065
C 159.37149270482607,13.133116883116884 161.0549943883277,18.674242424242426 161.6161616161616,19.99797077922078
C 162.7384960718294,18.717194264069263 164.4219977553311,6.975446428571431 164.98316498316498,4.37094155844156
C 166.10549943883277,2.5111607142857157 167.78900112233444,8.094561688311689 168.35016835016836,8.839285714285715
C 169.47250280583614,8.797348484848486 171.1560044893378,4.905979437229439 171.7171717171717,4.119318181818183
C 172.8395061728395,5.979099025974027 174.5230078563412,17.35152867965368 175.0841750841751,19.99797077922078
C 176.20650953984287,20.574607683982684 177.89001122334454,9.648944805194807 178.45117845117844,7.579139610389612
C 179.57351290684622,5.823863636363639 181.25701459034795,9.151785714285717 181.8181818181818,9.466314935064936
C 182.37934904601573,9.780844155844157 181.81818181818184,9.466314935064938 181.8181818181818,9.466314935064936
" ></path>
  </svg>
