  <svg id="graph" xmlns="http://www.w3.org/2000/svg" class='w-full' width='200' height='30' viewbox="0 0 300.0 20">
  <path fill="none" class='stroke-2 stroke-amber-900 dark:stroke-amber-300' d="M 3.3670033670033668,19.99773717259716
C 3.9281705948372614,19.44447587260282 6.1728395061728385,19.63002771963568 6.7340067340067336,19.6764156813939
C 7.856341189674524,17.795628971733514 9.539842873176205,10.040542324300882 10.1010101010101,8.113367652882276
C 11.223344556677889,5.431917180517057 12.906846240179574,4.341988648149195 13.468013468013467,3.5877128472025794
C 14.590347923681255,2.538138070185363 16.273849607182942,2.111217966849577 16.835016835016834,1.8159189907789768
C 17.957351290684624,2.3522090852520208 19.640852974186306,5.9738643434972 20.2020202020202,6.805453414040844
C 21.32435465768799,8.085459448247251 23.007856341189676,9.047538232354661 23.569023569023567,9.495955196017423
C 24.691358024691354,11.077294412702003 26.37485970819304,15.160566461126512 26.936026936026934,16.293488714148328
C 28.058361391694728,16.842224359336992 29.741863075196406,13.372555674982555 30.3030303030303,12.788369067149402
C 31.42536475869809,11.936037412079726 33.108866442199776,11.447643830966795 33.67003367003367,11.17949878373027
C 34.79236812570146,12.381060134638231 36.47586980920314,18.52803077445268 37.03703703703704,19.99773717259716
C 38.15937149270483,18.563104599196695 39.8428731762065,5.476042314872433 40.4040404040404,2.5717033433274863
C 41.52637485970819,0.49782202862476527 43.20987654320987,6.723991627538609 43.771043771043765,7.5544492843808335
C 44.89337822671155,7.507684184722144 46.57687991021324,3.16833550187626 47.13804713804713,2.291112745375345
C 48.260381593714925,4.3649940600780655 49.9438832772166,17.046633101393525 50.505050505050505,19.99773717259716
C 51.627384960718295,20.64075729290415 53.31088664421998,8.457317418113933 53.87205387205387,6.149233467217288
C 54.99438832772165,3.3938639663592993 56.67789001122335,3.912805717410569 57.23905723905723,3.4655201674492253
C 58.36139169472502,3.3712356923308984 60.044893378226696,5.230525541664309 60.606060606060595,5.583526616507326
C 61.728395061728385,6.740962833059908 63.41189674523008,9.605702325055155 63.97306397306397,10.410137466764722
C 65.09539842873176,10.23325979144274 66.77890011223344,5.503573381606984 67.34006734006734,4.522260564575436
C 68.46240179573512,3.771001866832606 70.1459034792368,5.672531161019026 70.7070707070707,5.902585280307743
C 71.8294051627385,7.633648243480227 73.51290684624016,13.407629499726575 74.07407407407406,14.90863834361034
C 75.19640852974184,16.555599554977274 76.87991021324355,15.638400181026192 77.44107744107744,15.784352548509363
C 78.56341189674522,15.739473138353041 80.2469135802469,14.830193660311892 80.8080808080808,14.639361882672398
C 81.9304152637486,14.48096396447361 83.61391694725027,14.801531179875923 84.17508417508417,14.833965039316626
C 85.29741863075195,14.365182629028304 86.98092031425364,12.327883690671491 87.54208754208753,11.826667420942467
C 88.66442199775531,11.82930738624578 90.347923681257,14.345948596104165 90.90909090909089,14.849804831136504
C 92.03142536475868,14.117025890516866 93.71492704826038,8.66662895287662 94.27609427609427,7.429993777224642
C 95.39842873176205,8.287982500801418 97.08193041526374,17.903113273368408 97.64309764309763,19.99773717259716
C 98.76543209876542,21.359204993305806 100.4489337822671,16.331956779996606 101.010101010101,15.598800701476495
C 102.13243546576878,15.598800701476497 103.81593714927048,19.26458109407705 104.37710437710437,19.99773717259716
C 105.49943883277216,20.73089325111727 107.18294051627385,19.997737172597162 107.74410774410774,19.99773717259716
C 108.86644219977552,19.99773717259716 110.54994388327721,19.997737172597162 111.1111111111111,19.99773717259716
C 112.23344556677888,19.99773717259716 113.91694725028059,19.997737172597162 114.47811447811446,19.99773717259716
C 115.60044893378226,19.99773717259716 117.28395061728394,19.997737172597162 117.84511784511783,19.99773717259716
C 118.96745230078562,19.99773717259716 120.6509539842873,19.997737172597162 121.2121212121212,19.99773717259716
C 122.33445566778902,19.99773717259716 124.01795735129066,19.997737172597162 124.57912457912457,19.99773717259716
C 125.70145903479234,19.99773717259716 127.38496071829404,19.997737172597162 127.94612794612793,19.99773717259716
C 129.0684624017957,19.99773717259716 130.75196408529743,19.997737172597162 131.31313131313132,19.99773717259716
C 132.4354657687991,19.99773717259716 134.11896745230078,19.997737172597162 134.68013468013467,19.99773717259716
C 135.80246913580245,19.99773717259716 137.48597081930416,19.997737172597162 138.04713804713805,19.99773717259716
C 139.16947250280586,19.99773717259716 140.85297418630753,19.997737172597162 141.41414141414143,19.99773717259716
C 142.5364758698092,19.99773717259716 144.21997755331088,19.997737172597162 144.78114478114477,19.99773717259716
C 145.90347923681256,19.99773717259716 147.58698092031426,19.997737172597162 148.14814814814815,19.99773717259716
C 149.27048260381594,19.99773717259716 150.95398428731764,19.997737172597162 151.51515151515153,19.99773717259716
C 152.6374859708193,19.99773717259716 154.320987654321,19.997737172597162 154.88215488215488,19.99773717259716
C 156.00448933782266,19.99773717259716 157.68799102132436,19.997737172597162 158.24915824915826,19.99773717259716
C 159.37149270482607,19.99773717259716 161.0549943883277,19.997737172597162 161.6161616161616,19.99773717259716
C 162.7384960718294,19.99773717259716 164.4219977553311,19.997737172597162 164.98316498316498,19.99773717259716
C 166.10549943883277,19.99773717259716 167.78900112233444,19.997737172597162 168.35016835016836,19.99773717259716
C 169.47250280583614,19.99773717259716 171.1560044893378,19.997737172597162 171.7171717171717,19.99773717259716
C 172.8395061728395,19.99773717259716 174.5230078563412,19.997737172597162 175.0841750841751,19.99773717259716
C 176.20650953984287,19.987931587184857 177.89001122334454,19.94870924553563 178.45117845117844,19.938903660123323
C 179.57351290684622,19.921932454602025 181.25701459034795,19.903075559578358 181.8181818181818,19.895909939469366
C 182.37934904601573,19.888744319360374 181.81818181818184,19.895909939469366 181.8181818181818,19.895909939469366
" ></path>
  </svg>
