  <svg id="graph" xmlns="http://www.w3.org/2000/svg" class='w-full' width='200' height='30' viewbox="0 0 300.0 20">
  <path fill="none" class='stroke-2 stroke-amber-900 dark:stroke-amber-300' d="M 3.3670033670033668,19.99797077922078
C 3.9281705948372614,17.251082251082252 6.1728395061728385,18.049242424242426 6.7340067340067336,18.248782467532468
C 7.856341189674524,16.880073051948056 9.539842873176205,10.407535173160174 10.1010101010101,8.839285714285715
C 11.223344556677889,7.132034632034634 12.906846240179574,8.144277597402597 13.468013468013467,8.005275974025976
C 14.590347923681255,8.623511904761905 16.273849607182942,11.791463744588745 16.835016835016834,12.5487012987013
C 17.957351290684624,13.55959145021645 19.640852974186306,13.816964285714286 20.2020202020202,14.070616883116884
C 21.32435465768799,13.703666125541126 23.007856341189676,10.967600108225108 23.569023569023567,10.346996753246755
C 24.691358024691354,9.646239177489178 26.37485970819304,9.94622564935065 26.936026936026934,9.866071428571429
C 28.058361391694728,8.444264069264069 29.741863075196406,3.157805735930738 30.3030303030303,1.8161525974025994
C 31.42536475869809,0.5499188311688332 33.108866442199776,2.1932494588744595 33.67003367003367,2.2686688311688314
C 34.79236812570146,3.320143398268398 36.47586980920314,7.148944805194808 37.03703703703704,8.125000000000002
C 38.15937149270483,10.478557900432902 39.8428731762065,15.012513528138527 40.4040404040404,16.390016233766232
C 41.52637485970819,18.426339285714285 43.20987654320987,19.684117965367964 43.771043771043765,20.34293831168831
C 44.89337822671155,20.177218614718612 46.57687991021324,16.2202380952381 47.13804713804713,15.395698051948052
C 48.260381593714925,14.903612012987013 49.9438832772166,17.05796807359307 50.505050505050505,17.39042207792208
C 51.627384960718295,17.64069264069264 53.31088664421998,16.979504870129873 53.87205387205387,16.89732142857143
C 54.99438832772165,17.33191287878788 56.67789001122335,19.481195887445885 57.23905723905723,19.99797077922078
C 58.36139169472502,20.51474567099567 60.044893378226696,19.997970779220775 60.606060606060595,19.99797077922078
C 61.728395061728385,19.99797077922078 63.41189674523008,19.997970779220775 63.97306397306397,19.99797077922078
C 65.09539842873176,19.99797077922078 66.77890011223344,19.997970779220775 67.34006734006734,19.99797077922078
C 68.46240179573512,19.99797077922078 70.1459034792368,19.997970779220775 70.7070707070707,19.99797077922078
C 71.8294051627385,19.99797077922078 73.51290684624016,19.997970779220775 74.07407407407406,19.99797077922078
C 75.19640852974184,19.619859307359306 76.87991021324355,18.107413419913417 77.44107744107744,17.729301948051948
C 78.56341189674522,16.318993506493506 80.2469135802469,12.568317099567103 80.8080808080808,11.536120129870131
C 81.9304152637486,11.914231601731606 83.61391694725027,18.58766233766234 84.17508417508417,19.99797077922078
C 85.29741863075195,20.93851461038961 86.98092031425364,17.649147727272727 87.54208754208753,17.179383116883116
C 88.66442199775531,17.179383116883116 90.347923681257,19.52820616883117 90.90909090909089,19.99797077922078
C 92.03142536475868,19.72436417748918 93.71492704826038,16.281114718614717 94.27609427609427,15.537743506493506
C 95.39842873176205,15.207656926406926 97.08193041526374,17.604166666666668 97.64309764309763,18.0174512987013
C 98.76543209876542,18.744250541125542 100.4489337822671,19.585024350649352 101.010101010101,19.898538961038962
C 102.13243546576878,20.25602002164502 103.81593714927048,20.11837121212121 104.37710437710437,20.162337662337663
C 105.49943883277216,20.154897186147185 107.18294051627385,19.905303030303028 107.74410774410774,19.853896103896105
C 108.86644219977552,19.77847673160173 110.54994388327721,19.73383387445887 111.1111111111111,19.709821428571427
C 112.23344556677888,17.95758928571428 113.91694725028059,11.068722943722944 114.47811447811446,9.340503246753247
C 115.60044893378226,6.9358766233766245 117.28395061728394,5.958468614718616 117.84511784511783,5.282061688311689
C 118.96745230078562,4.340841450216451 120.6509539842873,3.9579951298701315 121.2121212121212,3.69318181818182
C 122.33445566778902,4.174107142857145 124.01795735129066,7.421875 124.57912457912457,8.167613636363637
C 125.70145903479234,9.315476190476192 127.38496071829404,10.178233225108226 127.94612794612793,10.580357142857144
C 129.0684624017957,11.998444264069263 130.75196408529743,15.66017316017316 131.31313131313132,16.676136363636363
C 132.4354657687991,17.168222402597404 134.11896745230078,14.056750541125544 134.68013468013467,13.532873376623378
C 135.80246913580245,12.768533549783553 137.48597081930416,12.330560064935064 138.04713804713805,12.090097402597404
C 139.16947250280586,13.167613636363635 140.85297418630753,18.67999188311688 141.41414141414143,19.99797077922078
C 142.5364758698092,18.711444805194805 144.21997755331088,6.975446428571431 144.78114478114477,4.37094155844156
C 145.90347923681256,2.5111607142857157 147.58698092031426,8.094561688311689 148.14814814814815,8.839285714285715
C 149.27048260381594,8.797348484848486 150.95398428731764,4.905979437229439 151.51515151515153,4.119318181818183
C 152.6374859708193,5.979099025974027 154.320987654321,17.35152867965368 154.88215488215488,19.99797077922078
C 156.00448933782266,20.574607683982684 157.68799102132436,9.648944805194807 158.24915824915826,7.579139610389612
C 159.37149270482607,5.108225108225111 161.0549943883277,5.5735930735930745 161.6161616161616,5.172483766233768
C 162.7384960718294,5.087932900432903 164.4219977553311,6.755275974025975 164.98316498316498,7.0718344155844175
C 166.10549943883277,8.109780844155845 167.78900112233444,10.678774350649354 168.35016835016836,11.400162337662339
C 169.47250280583614,11.241544913419915 171.1560044893378,7.000135281385281 171.7171717171717,6.120129870129871
C 172.8395061728395,5.446428571428572 174.5230078563412,7.151650432900435 175.0841750841751,7.357954545454547
C 176.20650953984287,8.910308441558442 177.89001122334454,14.088203463203465 178.45117845117844,15.434253246753247
C 179.57351290684622,17.024824134199136 181.25701459034795,16.656858766233764 181.8181818181818,16.90137987012987
C 182.37934904601573,17.145900974025974 181.81818181818184,16.90137987012987 181.8181818181818,16.90137987012987
" ></path>
  </svg>
