  <svg id="graph" xmlns="http://www.w3.org/2000/svg" class='w-full' width='200' height='30' viewbox="0 0 300.0 20">
  <path fill="none" class='stroke-2 stroke-amber-900 dark:stroke-amber-300' d="M 3.3670033670033668,19.99797077922078
C 3.9281705948372614,18.71888528138528 6.1728395061728385,16.711309523809526 6.7340067340067336,16.209415584415584
C 7.856341189674524,15.086918290043291 9.539842873176205,13.10639880952381 10.1010101010101,12.485795454545455
C 11.223344556677889,11.144480519480522 12.906846240179574,8.882237554112555 13.468013468013467,8.161525974025976
C 14.590347923681255,6.697443181818183 16.273849607182942,4.444669913419916 16.835016835016834,3.701298701298704
C 17.957351290684624,4.947578463203466 19.640852974186306,13.649553571428571 20.2020202020202,15.639204545454547
C 21.32435465768799,17.595035173160174 23.007856341189676,15.470102813852817 23.569023569023567,15.436282467532468
C 24.691358024691354,14.302962662337663 26.37485970819304,9.938785173160174 26.936026936026934,8.839285714285715
C 28.058361391694728,7.600784632034634 29.741863075196406,8.144277597402597 30.3030303030303,8.005275974025976
C 31.42536475869809,8.623511904761905 33.108866442199776,11.791463744588745 33.67003367003367,12.5487012987013
C 34.79236812570146,13.55959145021645 36.47586980920314,13.816964285714286 37.03703703703704,14.070616883116884
C 38.15937149270483,13.702651515151516 39.8428731762065,10.962527056277056 40.4040404040404,10.340909090909092
C 41.52637485970819,9.640151515151516 43.20987654320987,9.94521103896104 43.771043771043765,9.866071428571429
C 44.89337822671155,8.44527867965368 46.57687991021324,3.157805735930738 47.13804713804713,1.8161525974025994
C 48.260381593714925,0.5499188311688332 49.9438832772166,2.1932494588744595 50.505050505050505,2.2686688311688314
C 51.627384960718295,3.320143398268398 53.31088664421998,7.148944805194808 53.87205387205387,8.125000000000002
C 54.99438832772165,10.478557900432902 56.67789001122335,15.012513528138527 57.23905723905723,16.390016233766232
C 58.36139169472502,18.128382034632033 60.044893378226696,18.19433170995671 60.606060606060595,18.555194805194805
C 61.728395061728385,18.38947510822511 63.41189674523008,15.922280844155845 63.97306397306397,15.395698051948052
C 65.09539842873176,15.201569264069265 66.77890011223344,17.05796807359307 67.34006734006734,17.39042207792208
C 68.46240179573512,17.64069264069264 70.1459034792368,16.979504870129873 70.7070707070707,16.89732142857143
C 71.8294051627385,17.33191287878788 73.51290684624016,19.481195887445885 74.07407407407406,19.99797077922078
C 75.19640852974184,20.51474567099567 76.87991021324355,19.997970779220775 77.44107744107744,19.99797077922078
C 78.56341189674522,19.99797077922078 80.2469135802469,19.997970779220775 80.8080808080808,19.99797077922078
C 81.9304152637486,19.99797077922078 83.61391694725027,19.997970779220775 84.17508417508417,19.99797077922078
C 85.29741863075195,19.99797077922078 86.98092031425364,19.997970779220775 87.54208754208753,19.99797077922078
C 88.66442199775531,19.99797077922078 90.347923681257,19.997970779220775 90.90909090909089,19.99797077922078
C 92.03142536475868,19.619859307359306 93.71492704826038,18.107413419913417 94.27609427609427,17.729301948051948
C 95.39842873176205,16.315949675324674 97.08193041526374,12.553097943722946 97.64309764309763,11.517857142857144
C 98.76543209876542,11.895968614718617 100.4489337822671,18.584618506493506 101.010101010101,19.99797077922078
C 102.13243546576878,20.941558441558442 103.81593714927048,17.649147727272727 104.37710437710437,17.179383116883116
C 105.49943883277216,17.179383116883116 107.18294051627385,19.52820616883117 107.74410774410774,19.99797077922078
C 108.86644219977552,19.72436417748918 110.54994388327721,16.281114718614717 111.1111111111111,15.537743506493506
C 112.23344556677888,15.207656926406926 113.91694725028059,17.604166666666668 114.47811447811446,18.0174512987013
C 115.60044893378226,18.743912337662337 117.28395061728394,19.583333333333332 117.84511784511783,19.89650974025974
C 118.96745230078562,20.22558170995671 120.6509539842873,19.975987554112553 121.2121212121212,19.991883116883116
C 122.33445566778902,19.919169372294373 124.01795735129066,19.548836580086576 124.57912457912457,19.460227272727273
C 125.70145903479234,19.413216991341994 127.38496071829404,19.6682224025974 127.94612794612793,19.709821428571427
C 129.0684624017957,18.023200757575754 130.75196408529743,11.068722943722944 131.31313131313132,9.340503246753247
C 132.4354657687991,6.933847402597404 134.11896745230078,5.9483225108225115 134.68013468013467,5.269886363636365
C 135.80246913580245,4.328327922077924 137.48597081930416,3.9542748917748938 138.04713804713805,3.691152597402599
C 139.16947250280586,4.174107142857144 140.85297418630753,7.421536796536796 141.41414141414143,8.167613636363637
C 142.5364758698092,9.315814393939394 144.21997755331088,10.178233225108226 144.78114478114477,10.580357142857144
C 145.90347923681256,11.995400432900434 147.58698092031426,15.644954004329003 148.14814814814815,16.657873376623378
C 149.27048260381594,17.14995941558442 150.95398428731764,14.053706709956714 151.51515151515153,13.532873376623378
C 152.6374859708193,12.765827922077923 154.320987654321,12.301812770562771 154.88215488215488,12.05560064935065
C 156.00448933782266,13.133116883116884 157.68799102132436,18.674242424242426 158.24915824915826,19.99797077922078
C 159.37149270482607,18.717194264069263 161.0549943883277,6.975446428571431 161.6161616161616,4.37094155844156
C 162.7384960718294,2.5111607142857157 164.4219977553311,8.094561688311689 164.98316498316498,8.839285714285715
C 166.10549943883277,8.797348484848486 167.78900112233444,4.905979437229439 168.35016835016836,4.119318181818183
C 169.47250280583614,5.979099025974027 171.1560044893378,17.35152867965368 171.7171717171717,19.99797077922078
C 172.8395061728395,20.574607683982684 174.5230078563412,9.648944805194807 175.0841750841751,7.579139610389612
C 176.20650953984287,5.108225108225111 177.89001122334454,5.5735930735930745 178.45117845117844,5.172483766233768
C 179.57351290684622,5.114650974025976 181.25701459034795,6.888866341991343 181.8181818181818,7.232142857142858
C 182.37934904601573,7.575419372294372 181.81818181818184,7.232142857142857 181.8181818181818,7.232142857142858
" ></path>
  </svg>
